<?xml version="1.0" encoding="UTF-8" standalone="no"?>
<svg
   width="1200mm"
   height="1200mm"
   viewBox="0 0 1200 1200"
   version="1.1"
   id="svg5"
   sodipodi:docname="Peep.svg"
   inkscape:version="1.1 (c68e22c387, 2021-05-23)"
   inkscape:export-xdpi="96"
   inkscape:export-ydpi="96"
   xmlns:inkscape="http://www.inkscape.org/namespaces/inkscape"
   xmlns:sodipodi="http://sodipodi.sourceforge.net/DTD/sodipodi-0.dtd"
   xmlns:xlink="http://www.w3.org/1999/xlink"
   xmlns="http://www.w3.org/2000/svg"
   xmlns:svg="http://www.w3.org/2000/svg">
  <sodipodi:namedview
     id="namedview7"
     pagecolor="#ffffff"
     bordercolor="#666666"
     borderopacity="1.0"
     inkscape:pageshadow="2"
     inkscape:pageopacity="0.0"
     inkscape:pagecheckerboard="0"
     inkscape:document-units="mm"
     showgrid="false"
     inkscape:zoom="2"
     inkscape:cx="396.25"
     inkscape:cy="428.75"
     inkscape:window-width="1920"
     inkscape:window-height="1001"
     inkscape:window-x="-9"
     inkscape:window-y="-9"
     inkscape:window-maximized="1"
     inkscape:current-layer="layer4"
     inkscape:snap-grids="true"
     showguides="false" />
<defs>

  <filter id="filter26279" x="-.11856" y="-.11339" width="1.2371" height="1.2268" color-interpolation-filters="sRGB">
   <feGaussianBlur id="feGaussianBlur26281" stdDeviation="0.25657396"/>
  </filter>
  <filter id="filter26275" x="-.077338" y="-.079673" width="1.1547" height="1.1593" color-interpolation-filters="sRGB">
   <feGaussianBlur id="feGaussianBlur26277" stdDeviation="0.25657396"/>
  </filter>
  <filter id="filter26271" x="-.14464" y="-.14914" width="1.2893" height="1.2983" color-interpolation-filters="sRGB">
   <feGaussianBlur id="feGaussianBlur26273" stdDeviation="0.25657396"/>
  </filter>
  <filter id="filter26267" x="-.0879" y="-.085795" width="1.1758" height="1.1716" color-interpolation-filters="sRGB">
   <feGaussianBlur id="feGaussianBlur26269" stdDeviation="0.25657396"/>
  </filter>
  <filter id="filter26283" x="-.06013" y="-.067293" width="1.1203" height="1.1346" color-interpolation-filters="sRGB">
   <feGaussianBlur id="feGaussianBlur26285" stdDeviation="0.25657396"/>
  </filter>
  <filter id="filter26291" x="-.084013" y="-.086678" width="1.168" height="1.1734" color-interpolation-filters="sRGB">
   <feGaussianBlur id="feGaussianBlur26293" stdDeviation="0.25657396"/>
  </filter>
  <filter id="filter26287" x="-.1486" y="-.12645" width="1.2972" height="1.2529" color-interpolation-filters="sRGB">
   <feGaussianBlur id="feGaussianBlur26289" stdDeviation="0.25657396"/>
  </filter>
  <filter id="filter26263" x="-.12049" y="-.13303" width="1.241" height="1.2661" color-interpolation-filters="sRGB">
   <feGaussianBlur id="feGaussianBlur26265" stdDeviation="0.25657396"/>
  </filter>
  <filter id="filter26299" x="-.12161" y="-.13521" width="1.2432" height="1.2704" color-interpolation-filters="sRGB">
   <feGaussianBlur id="feGaussianBlur26301" stdDeviation="0.25657396"/>
  </filter>
  <filter id="filter26295" x="-.11966" y="-.1087" width="1.2393" height="1.2174" color-interpolation-filters="sRGB">
   <feGaussianBlur id="feGaussianBlur26297" stdDeviation="0.25657396"/>
  </filter>
  <filter id="filter26315" x="-.16548" y="-.17789" width="1.331" height="1.3558" color-interpolation-filters="sRGB">
   <feGaussianBlur id="feGaussianBlur26317" stdDeviation="0.25657396"/>
  </filter>
  <filter id="filter26311" x="-.20433" y="-.17496" width="1.4087" height="1.3499" color-interpolation-filters="sRGB">
   <feGaussianBlur id="feGaussianBlur26313" stdDeviation="0.25657396"/>
  </filter>
  <filter id="filter26307" x="-.22335" y="-.22219" width="1.4467" height="1.4444" color-interpolation-filters="sRGB">
   <feGaussianBlur id="feGaussianBlur26309" stdDeviation="0.25657396"/>
  </filter>
  <filter id="filter26303" x="-.1062" y="-.10781" width="1.2124" height="1.2156" color-interpolation-filters="sRGB">
   <feGaussianBlur id="feGaussianBlur26305" stdDeviation="0.25657396"/>
  </filter>
  <filter id="filter26331" x="-.08274" y="-.088946" width="1.1655" height="1.1779" color-interpolation-filters="sRGB">
   <feGaussianBlur id="feGaussianBlur26333" stdDeviation="0.25657396"/>
  </filter>
  <filter id="filter26327" x="-.092411" y="-.071157" width="1.1848" height="1.1423" color-interpolation-filters="sRGB">
   <feGaussianBlur id="feGaussianBlur26329" stdDeviation="0.25657396"/>
  </filter>
  <filter id="filter26323" x="-.14032" y="-.13897" width="1.2806" height="1.2779" color-interpolation-filters="sRGB">
   <feGaussianBlur id="feGaussianBlur26325" stdDeviation="0.25657396"/>
  </filter>
  <filter id="filter26319" x="-.090771" y="-.097718" width="1.1815" height="1.1954" color-interpolation-filters="sRGB">
   <feGaussianBlur id="feGaussianBlur26321" stdDeviation="0.25657396"/>
  </filter>
 
  <linearGradient id="linearGradient41819" x1="123.66" x2="114.77" y1="91.869" y2="114.29" gradientUnits="userSpaceOnUse">
   <stop id="stop41815" offset="0"/>
   <stop id="stop41817" stop-opacity="0" offset="1"/>
  </linearGradient>
  <linearGradient id="linearGradient19129">
   <stop id="stop3" stop-color="#fff" stop-opacity=".72874" offset="0"/>
   <stop id="stop5" stop-color="#fff" stop-opacity="0" offset="1"/>
  </linearGradient>
  <filter id="filter22322-0" x="-.015979" y="-.033658" width="1.0287" height="1.0605" color-interpolation-filters="sRGB">
   <feGaussianBlur id="feGaussianBlur30-6" stdDeviation="0.23358464"/>
  </filter>
  <linearGradient id="linearGradient84709" x1="123.66" x2="114.77" y1="91.869" y2="114.29" gradientTransform="matrix(4.1447 0 0 4.1447 115.04 46.785)" gradientUnits="userSpaceOnUse" xlink:href="#linearGradient41819"/>
  <radialGradient id="radialGradient3780-8" cx="130.27" cy="107.07" r="10.993" gradientTransform="matrix(4.1447 0 0 4.1313 115.04 48.22)" gradientUnits="userSpaceOnUse">
   <stop id="stop17-3" offset="0"/>
   <stop id="stop19-8" stop-opacity="0" offset="1"/>
  </radialGradient>
  <radialGradient id="radialGradient2958-8" cx="89.798" cy="95.813" r="18.841" gradientTransform="matrix(4.7266 -.0034504 .0035783 4.9023 62.422 -25.477)" gradientUnits="userSpaceOnUse">
   <stop id="stop12-8" offset="0"/>
   <stop id="stop14-60" stop-opacity="0" offset="1"/>
  </radialGradient>
  <linearGradient id="linearGradient85716" x1="123.66" x2="114.77" y1="91.869" y2="114.29" gradientTransform="matrix(4.1461 0 0 4.1461 114.91 46.625)" gradientUnits="userSpaceOnUse" xlink:href="#linearGradient41819"/>
  <linearGradient id="linearGradient714529" x1="-9.5396" x2="4.5847" y1="-122.65" y2="-137.45" gradientUnits="userSpaceOnUse" xlink:href="#linearGradient19129"/>
  <linearGradient id="linearGradient714531" x1="-8.2966" x2="2.9334" y1="-123.86" y2="-135.57" gradientUnits="userSpaceOnUse">
   <stop id="stop13" stop-color="#fff" stop-opacity=".72874" offset="0"/>
   <stop id="stop15" stop-color="#fff" stop-opacity="0" offset="1"/>
  </linearGradient>
  <linearGradient id="linearGradient714533" x1="-51.461" x2="-44.815" y1="-156.35" y2="-165.9" gradientUnits="userSpaceOnUse" xlink:href="#linearGradient19129"/>
  <linearGradient id="linearGradient714535" x1="-37.451" x2="-29.989" y1="-160.29" y2="-169.21" gradientUnits="userSpaceOnUse" xlink:href="#linearGradient19129"/>
 
  <filter id="filter103773-2-8" x="-.0031192" y="-.0051547" width="1.0062" height="1.0103" color-interpolation-filters="sRGB">
   <feGaussianBlur id="feGaussianBlur7-9-3-6" stdDeviation="0.034481697"/>
  </filter>
 
  <linearGradient id="linearGradient9242" x1="85.011" x2="127.47" y1="230.01" y2="230.82" gradientTransform="matrix(4.1461 0 0 4.1461 113.97 46.974)" gradientUnits="userSpaceOnUse">
   <stop id="stop47" offset="0"/>
   <stop id="stop49" stop-opacity="0" offset=".53219"/>
   <stop id="stop51" stop-opacity=".40486" offset="1"/>
  </linearGradient>
  <filter id="filter25160-7" x="-.10049" y="-.1043" width="1.201" height="1.2086" color-interpolation-filters="sRGB">
   <feGaussianBlur id="feGaussianBlur25162-0" stdDeviation="0.1605801"/>
  </filter>
  <filter id="filter25152-8" x="-.044856" y="-.12565" width="1.0927" height="1.2571" color-interpolation-filters="sRGB">
   <feGaussianBlur id="feGaussianBlur25154-2" stdDeviation="0.1605801"/>
  </filter>
  <filter id="filter25156-6" x="-.050759" y="-.0067172" width="1.0966" height="1.0134" color-interpolation-filters="sRGB">
   <feGaussianBlur id="feGaussianBlur25158-26" stdDeviation="0.1605801"/>
  </filter>
  <filter id="filter25164-7" x="-.079998" y="-.24235" width="1.16" height="1.4847" color-interpolation-filters="sRGB">
   <feGaussianBlur id="feGaussianBlur25166-3" stdDeviation="0.1605801"/>
  </filter>
  <filter id="filter25168-94" x="-.099274" y="-.15547" width="1.1985" height="1.3109" color-interpolation-filters="sRGB">
   <feGaussianBlur id="feGaussianBlur25170-7" stdDeviation="0.1605801"/>
  </filter>
  <filter id="filter25176-9" x="-.10367" y="-.051622" width="1.2046" height="1.1051" color-interpolation-filters="sRGB">
   <feGaussianBlur id="feGaussianBlur25178-4" stdDeviation="0.1605801"/>
  </filter>
  <filter id="filter25136-67" x="-.035505" y="-.0136" width="1.0741" height="1.0225" color-interpolation-filters="sRGB">
   <feGaussianBlur id="feGaussianBlur25138-9" stdDeviation="0.1605801"/>
  </filter>
  <filter id="filter48371-3-3-2" x="-.050052" y="-.014982" width="1.1001" height="1.03" color-interpolation-filters="sRGB">
   <feGaussianBlur id="feGaussianBlur12-6-0" stdDeviation="0.1605801"/>
  </filter>
  <filter id="filter25148-7" x="-.1404" y="-.097107" width="1.2808" height="1.1942" color-interpolation-filters="sRGB">
   <feGaussianBlur id="feGaussianBlur25150-2" stdDeviation="0.1605801"/>
  </filter>
  <filter id="filter25144-2" x="-.074698" y="-.099359" width="1.1494" height="1.1987" color-interpolation-filters="sRGB">
   <feGaussianBlur id="feGaussianBlur25146-0" stdDeviation="0.1605801"/>
  </filter>
  <filter id="filter25140-5" x="-.074911" y="-.083833" width="1.1498" height="1.1677" color-interpolation-filters="sRGB">
   <feGaussianBlur id="feGaussianBlur25142-6" stdDeviation="0.1605801"/>
  </filter>
 
    <filter
       id="filter570399"
       x="-0.0051270174"
       y="-0.024617002"
       width="1.010254"
       height="1.049234"
       color-interpolation-filters="sRGB">
      <feGaussianBlur
         id="feGaussianBlur570401"
         stdDeviation="0.1756641" />
    </filter>
    <filter
       id="filter83355-9-5-3"
       x="-0.0045702766"
       y="-0.00433623"
       width="1.0091406"
       height="1.0086725"
       color-interpolation-filters="sRGB">
      <feGaussianBlur
         id="feGaussianBlur14-1-4"
         stdDeviation="0.049994638" />
    </filter>
    <filter
       id="filter5543-6-9-2-0"
       x="-0.0043462142"
       y="-0.0030184018"
       width="1.0086924"
       height="1.0060368"
       color-interpolation-filters="sRGB">
      <feGaussianBlur
         id="feGaussianBlur15-9-7-6-3"
         stdDeviation="0.045169842" />
    </filter>
    <filter
       id="filter51069-8-9"
       x="-0.14923117"
       y="-2.5579732"
       width="1.2927831"
       height="6.1319948"
       color-interpolation-filters="sRGB">
      <feGaussianBlur
         id="feGaussianBlur26-82"
         stdDeviation="0.20956735" />
    </filter>
    <filter
       id="filter83355-9-9"
       x="-0.01122096"
       y="-0.010646328"
       width="1.0224419"
       height="1.0212927"
       color-interpolation-filters="sRGB">
      <feGaussianBlur
         id="feGaussianBlur14-55"
         stdDeviation="0.12274701" />
    </filter>
    <filter
       id="filter5543-6-9-35"
       x="-0.011810641"
       y="-0.0082267817"
       width="1.0236213"
       height="1.0164536"
       color-interpolation-filters="sRGB">
      <feGaussianBlur
         id="feGaussianBlur15-9-7-60"
         stdDeviation="0.12274701" />
    </filter>
  
  <linearGradient id="linearGradient9180" x1="108.22" x2="104.84" y1="123.63" y2="130.84" gradientUnits="userSpaceOnUse">
   <stop id="stop5-4" stop-color="#ef8a8a" offset="0"/>
   <stop id="stop7-7" offset="1"/>
  </linearGradient>
  <filter id="filter8911" x="-.95663" y="-.33785" width="2.8065" height="1.6212" color-interpolation-filters="sRGB">
   <feGaussianBlur id="feGaussianBlur2-44" stdDeviation="0.16452398"/>
  </filter>
 </defs>
<g id="Time">
 <g id="layer60" transform="translate(19.4 11.241)">
  <g id="layer253">
   <g id="layer255">
    <path id="path7155" d="m-19.4 588.76v-600h1200v1200h-1200v-600z" fill="#5bacc9" stroke-width=".2"/>
    <path id="path7147" d="m750.2 614.74c-140.93-49.316-336.86-57.415-479.43-41.854-124.58 13.598-288.49-94.412-288.49-94.412l0.16662-42.464v-447.25l1198.1 1.596v895.18s-280.15-228.11-430.4-270.79zm-615.02 33.357c-51.372-1.1752-104.64-13.331-154.58-34.506l1.0428-100.32c106.59 89.928 237.16 107.67 353.33 91.733 66.766-5.878 146.74-3.0129 209.21-1.2228-136.34 14.204-272.29 42.974-408.99 44.313z" fill="#5b97c9" stroke-width=".19938"/>
    <path id="path7143" d="m928.58 382.63c-154.38-91.95-319.38-99.591-480.65-96.141-125.45 1.9592-252.49 34.472-376.9-6.2949-52.627-18.844 34.029 0.14806 49.945-5.6724 179.47-5.1913 356.24-82.458 536.2-67.431 119.07 0.60965 239.44 26.121 350.79 104.38 58.402 35.296 116.57 73.221 171.15 124.71-0.034 45.182 1.4878 133.27 1.4878 133.27s-169.38-125.28-252.02-186.82zm251.72 4.9446c-162.86-128.82-340.55-217.89-520.23-211.73-136.7-5.6175-272.22 29.316-407.61 57.191-90.079 9.877-184.33 37.504-271.59-16.663l-0.26819-71.062c125.25 86.295 274.95 61.418 405.07 36.032 173.36-39.819 350.71-54.653 523.14 6.3123 93.71 32.615 185.57 92.851 272.1 163.64-0.05 11.427 0.2253 27.46-0.6046 36.287zm0.3022-88.22c-99.604-63.623-202.54-131.27-308.34-154.34-164.54-45.216-332.27-28.119-496.68 10.088-130.95 27.042-269.87 54.621-394.72-39.326l-0.0082-125.84c385.93 0.6255 813.85-2.8915 1199.7-0.06842v142.69c0 54.168 3.7097 119.81 1e-4 166.79z" fill="#5b77c9" stroke-width=".19965"/>
    <path id="path7153" d="m-17.932 1126.5 0.26197-57.836c83.721 49.381 184.94 66.09 272.71 58.041 138.26-6.8298 276.56-31.499 414.88-12.259 95.252 11.343 190.29 34.444 283.31 72.661-52.186 1.7542-104.45 3.768-155.73-16.092-147-36.998-298.24-38.068-444.73-18.285 103.95 6.5297 208 14.284 311.44 34.643-226.72 0.183-455.42 0.079-682.14 0.1081v-60.98zm1020.8 55.831c-127.24-85.701-264.65-99.231-399.33-97.897-196.94-8.3847-429.78 6.4191-622.9-78.857l-1.9918-30.729c189.13 85.272 416.16 70.065 609.17 76.75 139.02-1.8445 281.64 6.1779 413.14 94.946 20.395 13.954 106.28 49.419 40.418 40.935-12.737-2.0341-26.613 4.908-38.502-5.1491z" fill="#5cc9a0" stroke-width=".19938"/>
    <path id="path9827" d="m469.48 291.95c1.9881-7.0892-4.3236-1.9221 0 0z" fill="#5b77c9" stroke-width=".034938"/>
    <ellipse id="path22090" cx="1026.4" cy="293.83" rx="94.948" ry="94.699" fill="#fbf3c1" fill-rule="evenodd" style="paint-order:markers stroke fill"/>
    <ellipse id="path25489" transform="matrix(1.1701 0 0 1.3788 3.1092 20.494)" cx="969.69" cy="18.422" rx="3.3919" ry="3.1508" fill="#fffce9" fill-rule="evenodd" filter="url(#filter26319)" style="paint-order:markers stroke fill"/>
    <ellipse id="path25491" transform="matrix(1.1701 0 0 1.3788 3.1092 20.494)" cx="959.44" cy="65.892" rx="2.1942" ry="2.2155" fill="#fffce9" fill-rule="evenodd" filter="url(#filter26323)" style="paint-order:markers stroke fill"/>
    <ellipse id="path25493" transform="matrix(1.1701 0 0 1.3788 3.1092 20.494)" cx="970.75" cy="87.028" rx="3.3317" ry="4.3269" fill="#fffce9" fill-rule="evenodd" filter="url(#filter26327)" style="paint-order:markers stroke fill"/>
    <ellipse id="path25495" transform="matrix(1.1701 0 0 1.3788 3.1092 20.494)" cx="873.78" cy="85.038" rx="3.7212" ry="3.4615" fill="#fffce9" fill-rule="evenodd" filter="url(#filter26331)" style="paint-order:markers stroke fill"/>
    <ellipse id="path25497" transform="matrix(1.1701 0 0 1.3788 -21.446 100.01)" cx="771.97" cy="133.59" rx="2.899" ry="2.8558" fill="#fffce9" fill-rule="evenodd" filter="url(#filter26303)" style="paint-order:markers stroke fill"/>
    <ellipse id="path25499" transform="matrix(1.1701 0 0 1.3788 -21.446 100.01)" cx="762.92" cy="123.29" rx="1.3785" ry="1.3857" fill="#fffce9" fill-rule="evenodd" filter="url(#filter26307)" style="paint-order:markers stroke fill"/>
    <ellipse id="path25501" transform="matrix(1.1701 0 0 1.3788 -21.446 100.01)" cx="771.44" cy="165.98" rx="1.5068" ry="1.7598" fill="#fffce9" fill-rule="evenodd" filter="url(#filter26311)" style="paint-order:markers stroke fill"/>
    <ellipse id="path25503" transform="matrix(1.1701 0 0 1.3788 -21.446 100.01)" cx="749.12" cy="139.56" rx="1.8606" ry="1.7308" fill="#fffce9" fill-rule="evenodd" filter="url(#filter26315)" style="paint-order:markers stroke fill"/>
    <ellipse id="path25505" transform="matrix(1.1701 0 0 1.3788 -26.123 71.943)" cx="351.57" cy="27.405" rx="2.5731" ry="2.8324" fill="#fffce9" fill-rule="evenodd" filter="url(#filter26295)" style="paint-order:markers stroke fill"/>
    <ellipse id="path25507" transform="matrix(1.1701 0 0 1.3788 -26.123 71.943)" cx="333.41" cy="14.612" rx="2.5317" ry="2.2772" fill="#fffce9" fill-rule="evenodd" filter="url(#filter26299)" style="paint-order:markers stroke fill"/>
    <ellipse id="path25509" transform="matrix(1.1701 0 0 1.3788 -26.123 71.943)" cx="322.91" cy="41.573" rx="2.5554" ry="2.3144" fill="#fffce9" fill-rule="evenodd" filter="url(#filter26263)" style="paint-order:markers stroke fill"/>
    <ellipse id="path25511" transform="matrix(1.1701 0 0 1.3788 -26.123 71.943)" cx="271.03" cy="51.24" rx="2.0719" ry="2.4348" fill="#fffce9" fill-rule="evenodd" filter="url(#filter26287)" style="paint-order:markers stroke fill"/>
    <ellipse id="path25513" transform="matrix(1.1701 0 0 1.3788 -74.065 43.88)" cx="166.88" cy="18.579" rx="3.6648" ry="3.5521" fill="#fffce9" fill-rule="evenodd" filter="url(#filter26291)" style="paint-order:markers stroke fill"/>
    <ellipse id="path25515" transform="matrix(-.16858 0 0 .21213 59.794 202.59)" cx="16.581" cy="91.074" rx="5.1204" ry="4.5753" fill="#fffce9" fill-rule="evenodd" filter="url(#filter26283)" style="paint-order:markers stroke fill"/>
    <ellipse id="path25517" transform="matrix(.78717 0 0 .77407 145.86 207.75)" cx="126.58" cy="155.2" rx="3.5027" ry="3.5887" fill="#fffce9" fill-rule="evenodd" filter="url(#filter26267)" style="paint-order:markers stroke fill"/>
    <ellipse id="path25521" transform="matrix(1.1701 0 0 1.3788 80.004 114.75)" cx="85.552" cy="173.25" rx="2.1287" ry="2.0645" fill="#fffce9" fill-rule="evenodd" filter="url(#filter26271)" style="paint-order:markers stroke fill"/>
    <path id="ellipse162063" transform="matrix(1.2982 0 0 1.5147 82.543 91.66)" d="m137.16 186.39c0 2.0187 5e-3 3.8299-2.1796 4.0411-3.4935 0.33774-5.7826-2.0224-5.7826-4.0411s1.7824-3.6551 3.9811-3.6551 3.9811 1.6365 3.9811 3.6551z" fill="#fffce9" fill-rule="evenodd" filter="url(#filter26275)" stroke-dasharray="0.810761, 0.810761" stroke-linecap="round" stroke-linejoin="round" stroke-width=".20269" style="paint-order:markers stroke fill"/>
    <ellipse id="path25525" transform="matrix(1.3386 0 0 1.1829 71.729 148.25)" cx="164.35" cy="165.83" rx="2.5969" ry="2.7153" fill="#fffce9" fill-rule="evenodd" filter="url(#filter26279)" style="paint-order:markers stroke fill"/>
    <path id="ellipse272370" transform="matrix(1.1701 0 0 1.3788 -21.446 100.01)" d="m764.3 123.29a1.3785 1.3857 0 0 1-1.3785 1.3857 1.3785 1.3857 0 0 1-1.3785-1.3857 1.3785 1.3857 0 0 1 1.3785-1.3857 1.3785 1.3857 0 0 1 1.3785 1.3857z" fill="#fffce9" fill-rule="evenodd" filter="url(#filter26307)" stroke-dasharray="1.31809, 1.31809" stroke-linecap="round" stroke-linejoin="round" stroke-width=".32952" style="paint-order:markers stroke fill"/>
    <path id="ellipse272372" transform="matrix(1.1701 0 0 1.3788 -21.446 100.01)" d="m750.98 139.56a1.8606 1.7308 0 0 1-1.8606 1.7308 1.8606 1.7308 0 0 1-1.8606-1.7308 1.8606 1.7308 0 0 1 1.8606-1.7308 1.8606 1.7308 0 0 1 1.8606 1.7308z" fill="#fffce9" fill-rule="evenodd" filter="url(#filter26315)" stroke-dasharray="1.06, 1.06" stroke-linecap="round" stroke-linejoin="round" stroke-width=".265" style="paint-order:markers stroke fill"/>
   </g>
  </g>
 </g>

</g><g id="District">
 <g id="layer60" transform="translate(19.4 11.241)">
  <g id="layer23">
   <g id="layer30" transform="translate(-19.4 -11.241)">
    <path id="path11229" d="m0.018248 598.46 357.99 176.42s142.18-49.686 296.66-40.396c76.664 4.6101 129.35 90.336 223.52 61.722 137.47-41.77 232.26-404.78 325.82-410.95l1.6651 213.21v602.83h-1205.7z" fill="#ab9d88" stroke-width=".20094"/>
    <path id="path11227" d="m451.47 1072.7c4.8828-24.694 19.904-76.686 26.734-110.88 18.304-56.998 38.2-123.14 91.993-156.28 59.69-21.038 102.63 40.16 137.69 78.452 42.925 53.743 101.07 94.166 167.84 111.76 25.855 9.5036 114.49 57.564 102.49 27.158-67.5-39.835-166.71-51.25-221.84-112.25-47.314-41.67-79.401-107.76-144.89-123.72 75.008-6.5722 120.48 65.192 188.72 82.033 81.549 28.926 167.53-18.887 214.78-84.959 73.942-84.045 107.41-197.11 190.59-273.63 0.109 217.72-0.017 435.46 0.1002 651.97-0.1918 20.506 7.0869 48.484-23.123 38.972zm375.23-218.53c-78.616-3.7378-125.81-86.882-206.02-84.209-78.883 15.816 30.703-37.508 57.469-18.65 53.931 14.581 89.739 68.545 148.46 74.792 84.501 8.9891 146.95-61.991 185.08-127.29 19.37-35.583 47.085-81.751 44.186-79.224-42.003 91.135-95.356 193.41-195.12 230.49-11.074 3.0063-22.58 4.41-34.049 4.0908zm-172.61-96.737c-0.78429-0.73408-0.78434 0.73406 0 0zm11.253 0c-1.0535-0.74044-1.0535 0.74043 0 0zm234.19 94.459c125.95-78.703 170.5-227.96 228.53-355.89 15.597-38.077 42.362-72.011 77.615-93.635-1.3797 28.76 2.7523 60.073-2.059 87.243-98.563 84.16-132.76 217.39-223.32 308.63-22.433 23.307-48.801 45.375-80.768 53.644z" fill="#9c8c77" stroke-width=".20094"/>
    <path id="path11225" d="m0.018248 637.01c0.097237-188.03-0.19785-376.06 0.25118-564.08 67.099 32.823 81.3 114.8 99.273 180.2 27.548 112.57 42.499 229.46 87.36 336.99 24.021 66.173 108.95 61.767 154.22 22.001 51.54-37.641 121.06-84.191 184.95-47.311 56.823 38.285 81.35 107.39 106.52 168.25-86.714 21.651-133.76 130.19-164.74 205.55-3.5644 11.284-3.4813 13.744-5.3165 19.468-13.209 41.201-36.14 77.1-27.824 109.61l-434.69 133.59z" fill="#938068" stroke-width=".20094"/>
    <path id="path11223" d="m0.018248 1071c1.1218-43.527-2.2342-89.383 1.6611-131.47 68.292-42.787 148.54-62.333 215.66-107.72 60.885-31.341 105.11-85.473 163.57-120.03 69.86-37.52 171.63-39.334 220.73 31.776-72.949 38.844-105.79 121.8-133.74 195.09-88.117-46.444-195.04-11.926-268.35 46.33-36.575 33.337 43.567-2.4916 56.797-18.485 61.699-33.38 143.29-47.769 206.54-9.9428-5.2728 25.52-20.787 77.874-24.89 104.36-71.041 71.98-303.98 101.94-436.95 138.98zm0.02331-359.86c0.19697-69.2-0.34041-141.67 0.3815-208.82 33.558 91.078 102.02 181.62 204.04 196.49 78.224 13.505 142.11-40.78 197.15-87.977 31.44-22.725 72.454-57.782 112.52-34.643 44.156 24.537 14.851 17.978-16.008 17.737-93.952 13.209-157.67 91.804-224.72 151.05-115.17 98.76-176.38 115.88-273.78 170.41l0.40019-98.512c-0.001822-35.246 0.0024773-70.492 0.0061725-105.74zm235.48 89.282c73.186-59.965 133.8-138.72 221.3-179.07 38.737-17.493 99.284-19.242 118.85 25.346 15.482 27.609 29.276 56.416 39.657 86.305-49.661-69.632-148.04-78.052-221.82-45.52-61.512 24.336-101.52 80.55-157.99 112.94zm-14.669-116.58c-117.32-30.08-223.75-158.94-220.75-268.3 0.36129-52.48-2.6554-112.48-0.86414-159.64 35.687 96.448 50.346 202.05 97.229 294.44 40.982 72.425 131.6 132.17 215.31 96.758 28.019-11.992 52.645-33.601 77.564-48.085-48.475 40.779-100.16 89.07-168.49 84.829zm-37.59-66.712c-67.442-38.847-94.366-116.12-113.89-186.95-24.274-69.76-32.517-146.63-70.093-211.31 3.1803-34.407-12.985-104.28-0.68931-125.92 60.687 0.4594 85.365 168.65 95.27 206.02 21.422 98.566 38.51 199.27 76.356 293.18 2.6708 8.0873 11.378 19.004 13.046 24.99z" fill="#84745e" stroke-width=".20094"/>
    <path id="path11221" d="m0.018248 1085.1c-2.0188-36.304-9.705-92.135 7.0856-116 147.67 8.4925 273.45 79.207 417.04 109.33 17.508 23.196 82.091 0.089 113.03 6.567 111.02 2.4927 221.7-19.778 330.32-41.507 113.06-18.814 224.84-44.92 338.19-61.973 0.6347 20.626-1.1136 40.614 0 59.515v160.29h-1205.7c-1.0729e-4 -38.741 2.145e-4 -77.483-1.6075e-4 -116.22zm82.909 93.406c12.19-12.99-17.604-35.322-14.278-14.769-12.311 13.996 5.7773 8.716 14.278 14.769z" fill="#68a240" stroke-width=".20094"/>
    <path id="path15226-9" d="m69.694 1171.8c-5.0472-12.118 7.3741-15.611 8.3253-3.7464 9.965-5.8967 17.338 5.7507 3.5383 9.5741 5.2823 12.472-6.4628 14.369-9.9904 3.3301-10.029 6.9009-16.877-10.304-1.8732-9.1578z" fill="#facf4c"/>
    <circle id="path16723-4" cx="75.522" cy="1174.6" r="4.2667" fill="#faa34c" fill-rule="evenodd" opacity=".78658" style="paint-order:fill markers stroke"/>
    <path id="path11217" d="m0.018248 1149c0.79031-17.109-1.5475-36.999 1.1089-52.448 36.898 5.1721 75.245 15.414 110.45 21.507 5.9416 3.0446 18.948 7.2169 28.192 9.3427 44.02 10.402 86.296 27.107 130.11 38.975 41.475 13.195 83.811 24.141 126.11 34.715-131.99 0.3309-263.99 0.1614-395.98 0.2274zm729.53 51.824c-85.254-22.131-170.11-45.633-256-65.284-71.911-16.918-141.41-42.01-213.5-58.132-87.049-19.468-179.52-42.202-260.02-48.105 0.82248-19.648-1.59-42.88 1.1554-60.397 144.99 7.2035 296.28 61.01 437.01 91.413l-0.5096 6.4563c-0.50523 6.4008 50.977 8.6381 79.577 10.668 118.81 5.7316 237.13-10.814 353.36-34.059 111.92-18.665 222.6-44.343 334.79-61.431 2.0391 17.359-1.6264 37.148 0.2817 51.813 10.366 33.769-22.213 23.69-45.413 24.782-101.67 5.5819-202.81 18.021-303.93 29.044-86.411 5.0942-172.45 16.687-259.21 15.436 68.183 22.29 138.51 36.307 209.11 48.054 46.511 9.6728 92.019 13.12 139.58 18.37 86.412 7.743 173.04 13.211 259.85 13.375 6.5352 21.702-10.744 19.589-27.013 18.485-149.69-0.315-299.53 0.5858-449.12-0.4875z" fill="#5a9830" stroke-width=".20094"/>
    <path id="path15226-93" d="m69.81 1171.4c-9.0496-10.04 3.1282-17.674 6.2735-5.5948 8.8635-4.555 14.339 4.5309 5.8174 8.9757 9.9451 8.0334-4.9818 17.036-8.607 4.4598-6.6124 5.9438-14.899-3.9742-3.4839-7.8407z" fill="#facf4c"/>
    <ellipse id="path16723-1" transform="matrix(.97411 -.22606 .22255 .97492 0 0)" cx="-187.27" cy="1159.6" rx="4.4515" ry="4.4846" fill="#faa34c" fill-rule="evenodd" opacity=".78658" style="paint-order:fill markers stroke"/>
    <path id="path15226" d="m1091.2 1116.9c-5.0472-12.118 7.3741-15.611 8.3253-3.7464 9.965-5.8967 17.338 5.7507 3.5383 9.5741 5.2823 12.472-6.4628 14.369-9.9904 3.3301-10.029 6.9009-16.877-10.304-1.8732-9.1578z" fill="#facf4c"/>
    <circle id="path16723" cx="1097.1" cy="1119.8" r="4.2667" fill="#faa34c" fill-rule="evenodd" opacity=".78658" style="paint-order:fill markers stroke"/>
    <path id="path15226-8" d="m861.11 1157.1c-7.6754-7.9912 1.1213-12.686 5.6075-5.4771 5.8724-5.5805 15.414 0.8357 5.6777 6.6759 7.9388 8.4975-1.1278 13.18-7.229 5.3205-7.8504 8.6821-15.361-2.4338-4.0562-6.5193z" fill="#2286d7"/>
    <circle id="path16723-9" transform="rotate(-20.098)" cx="416.22" cy="1384.2" r="3.6634" fill="#feaa3a" fill-rule="evenodd" opacity=".78658" style="paint-order:fill markers stroke"/>
    <path id="path46233" d="m196.25 1059.5c-0.14069-4.823 4.2665-6.608 7.8737-2.8699 3.7614-1.6606 6.6754-0.5224 6.6227 4.3416 5.1968 0.085 8.6263 4.715 2.2076 8.9775 1.4514 2.0343 2.634 5.3836-2.7227 7.0642-0.84288 5.6123-7.1937 5.5924-9.1247 1.3982-1.6871 3.5072-9.4773 4.6908-7.5058-4.7831-5.1503-0.2165-5.4483-5.4557-2.2076-7.8737-1.8614-6.6643 3.0662-6.5567 4.8567-6.2548z" fill="#f94dc9"/>
    <ellipse id="path47264" cx="202.69" cy="1067.3" rx="5.2614" ry="5.4822" fill="#feaa3a" fill-rule="evenodd" style="paint-order:fill markers stroke"/>
    <ellipse id="ellipse51018" transform="translate(19.4 11.241)" cx="567.23" cy="1162.4" rx="139.32" ry="19.844" fill-rule="evenodd" opacity=".095528" style="paint-order:fill markers stroke"/>
   </g>
  </g>
 </g>

</g><g id="Skin">
 <g id="layer60" transform="translate(19.4 11.241)">
  <g id="layer192">
   <g id="g265099">
    <path id="path265091" d="m549.13 259.7c-9.4797 0-18.959 0.34454-24.279 1.0327-24.145 3.1232-44.929 9.3587-66.167 19.851-23.296 11.508-43.292 26.981-59.98 46.412-22.535 26.238-36.234 57-41.229 92.577-1.1092 7.9026-0.93727 34.289 0.27639 42.422l0.95556 6.404-1.1441 0.79916c-5.3279 3.7306-7.183 6.9139-6.8347 11.728 0.46137 6.3789 4.9709 10.842 11.784 11.662 1.9657 0.23666 3.6917 0.54858 3.8351 0.69203 0.14337 0.14333 0.62524 2.8601 1.0713 6.0376 2.5684 18.297 8.9002 32.187 21.588 47.356 19.185 22.935 52.298 42.055 90.755 52.403 19.446 5.2331 48.296 8.8275 65.678 8.8315 4.2932 1e-3 7.0696-0.8498 7.3014-0.24586 12.686-0.16269 15.862-1.4205 25.185-1.6174 0-0.76137 1.4358 0.55138 10.683-0.7009 38.113-5.1611 70.921-18.286 97.703-37.041 7.0807-4.9588 10.37-7.5239 16.935-13.851 11.391-10.978 18.485-21.072 23.706-33.74l2.8823-5.3574 3.4899-0.75105c6.2022-1.3348 8.3236-3.0609 9.3521-8.464 0.87448-4.5939-1.6056-10.412-6.3328-11.829-1.2054-0.36113-2.2685-0.35144-2.536-0.67401-0.30341-0.36555 0.62198-3.8625 1.5947-7.3273 1.9966-7.112 3.9063-16.197 5.1121-24.315 1.2091-8.1405 1.3786-34.539 0.2721-42.422-4.9942-35.577-18.693-66.337-41.229-92.577-5.3844-6.2692-16.158-16.973-21.791-21.652-29.278-24.314-64.777-39.49-104.36-44.609-5.32-0.68816-14.801-1.0327-24.281-1.0327zm-80.322 632.16c0.29847 1.173-5e-3 1.6663-2.0718 3.3595-2.8989 2.3754-2.8604 4.886-2.4698 9.8063 0.31676 3.988 0.29683 4.7498 3.5708 6.826 3.274 2.0764 5.1227 0.78507 7.9253-0.28527 5.7916-2.2118 7.0183-3.4323 5.7441-9.1264-0.33835-1.5121-0.52485-2.3981-0.99372-3.0676-1.4368-2.0513-4.0369-5.1595-6.2997-5.1595-2.9532-0.088-3.4279 0.14163-5.4051-2.3532zm223.97-173.56c-2.2628 0-4.5225 1.3839-5.9593 3.4353-0.46888 0.66942-1.4309 2.5543-1.7692 4.0664-1.2742 5.694 0.82656 8.7504 6.618 10.962 2.8025 1.0703 3.7591 0.56684 7.0332-1.5095 3.2739-2.0764 3.563-2.1671 3.8798-6.1551 0.39077-4.9201 0.13182-5.9922-2.767-8.3676-3.0703-1.3317-4.6169-0.89594-7.0355-2.4315z" fill="#eed0b8" stroke-width="1.097" style="mix-blend-mode:normal"/>
   </g>
  </g>
 </g>

</g><g id="Head">
 <g id="layer60" transform="translate(19.4 11.241)">
  <g id="layer266">
   <g id="layer120">
    <g id="g4-2" transform="matrix(4.1461 0 0 4.1461 114.51 46.946)">
     <path id="path2-97" d="m104.32 135.44c-2.7616 0-7.6008-0.50136-11.336-1.1745-13.605-2.4516-24.641-8.9681-29.528-17.437-1.329-2.3028-2.0879-4.5222-2.5248-7.3836-0.14563-0.95359-0.33435-1.778-0.41938-1.8321-0.085-0.0541-0.36452-0.0992-0.62107-0.10025-1.1305-5e-3 -2.239-0.69567-2.7449-1.7109-0.75445-1.514-0.20525-3.0303 1.4381-3.9705 0.60604-0.34674 0.86326-0.41745 1.5093-0.4149 0.85858 3e-3 1.9454 0.39621 2.3462 0.84804 0.23 0.25926 0.22836 0.26292-0.0873 0.19439-0.17697-0.0384-0.66927-0.19776-1.094-0.3541-1.7337-0.6382-3.5822 0.18601-3.9961 1.7818-0.48396 1.8657 1.0858 3.4576 3.2883 3.3347l0.57917-0.0323 0.0843 1.3594c0.49494 7.9809 6.8355 15.61 17.162 20.649 5.6601 2.7623 12.37 4.6166 19.563 5.4066 2.5766 0.28299 8.9404 0.39558 11.656 0.20623 13.264-0.92475 24.949-5.4822 32.324-12.607 2.7776-2.6835 4.5416-5.2986 5.7737-8.5594l0.43011-1.1383 0.48888 0.0782c0.70274 0.11238 1.5531-0.143 2.1352-0.64121 0.64962-0.55605 0.844-1.0383 0.77141-1.9137-0.14185-1.7104-1.9766-2.6074-3.835-1.8749-0.78576 0.30971-0.99259 0.32987-0.78207 0.0762 0.20975-0.25274 1.011-0.61853 1.5885-0.72513 0.35335-0.0652 0.69716-0.0125 1.2692 0.19462 1.4365 0.52013 2.043 1.2638 2.043 2.505 0 0.85527-0.23263 1.3916-0.83171 1.9176-0.57778 0.5073-0.92986 0.65303-1.8605 0.77006l-0.7004 0.0881-0.48383 1.1941c-0.61838 1.5261-1.818 3.6345-2.9089 5.1125-1.218 1.6503-4.1659 4.5424-6.1064 5.9908-6.7488 5.0376-15.421 8.2896-25.502 9.5631-0.76502 0.0966-1.4082 0.2164-2.092 0.31549" fill-opacity=".99763"/>
    </g>
   </g>
  </g>
 </g>

</g><g id="Eye Whites">
 <g id="layer60" transform="translate(19.4 11.241)">
  <g id="layer30">
   <g id="layer52" fill="#fff">
    <ellipse id="ellipse187" cx="485.87" cy="443.88" rx="108.22" ry="108.92" stroke-width="4.1283"/>
    <ellipse id="ellipse189" cx="653.33" cy="489.79" rx="62.37" ry="62.685" stroke-width="4.1461"/>
   </g>
  </g>
 </g>

</g><g id="Eye Colour">
 <g id="layer60" transform="translate(19.4 11.241)">
  <g id="layer49">
   <g id="layer126" stroke-width="4.1461">
    <path id="path6-49" d="m649.56 536.14c-0.73373-0.13018-2.7748-0.49218-4.5358-0.80413-4.1714-0.73904-11.364-3.7855-15.789-6.6868-4.5259-2.9681-10.949-9.7018-13.733-14.397-15.623-26.349-1.7877-59.936 27.92-67.776 5.1345-1.3554 17.234-1.388 22.081-0.0597 10.443 2.8628 18.419 8.0306 24.893 16.128 11.639 14.559 12.994 34.973 3.4194 51.519-2.5395 4.389-8.1653 10.504-12.529 13.618-4.2137 3.0068-11.165 6.2494-15.877 7.4066-3.5659 0.87545-13.232 1.5172-15.85 1.0524zm-170.76-14.119c-9.7209-1.1919-17.352-3.3406-25.434-7.1615-20.589-9.7338-36.248-28.367-41.992-49.969-2.1-7.8991-2.6885-12.444-2.6885-20.76 0-4.2555 0.30474-9.5385 0.67727-11.74 4.4243-26.145 19.601-46.743 43.235-58.671 4.9546-2.501 15.021-5.7228 21.133-6.7639 7.0102-1.194 19.084-1.2039 26.007-0.0207 29.998 5.1242 54.811 27.532 62.498 56.436 2.1 7.8991 2.6885 12.444 2.6885 20.76 0 21.41-7.7001 40.011-22.878 55.263-11.767 11.826-26.124 19.242-42.406 21.906-6.0433 0.98885-15.87 1.3275-20.839 0.71823z" fill="#502d16"/>
    <path id="path8-004" d="m648.23 529.22c-2.0545-0.4535-5.7763-1.8034-8.271-2.9997-6.3924-3.0654-12.772-9.4361-15.926-15.904-3.2381-6.64-3.9894-10.212-3.7012-17.596 0.38807-9.9411 3.3667-16.802 10.306-23.742 6.943-6.943 13.8-9.9182 23.754-10.307 7.2386-0.28277 12.107 0.78369 18.36 4.0208 5.7531 2.9786 12.321 9.7545 15.127 15.607 9.5053 19.821 0.0477 42.655-20.617 49.778-5.7042 1.9661-13.251 2.4194-19.033 1.1431zm-172.36-18.428c-19.662-2.8333-37.466-15.853-46.154-33.751-8.5509-17.615-8.5509-36.433 0-54.048 18.611-38.338 70.546-46.063 99.713-14.83 23.14 24.778 21.843 63.501-2.9005 86.608-13.562 12.665-32.463 18.643-50.657 16.021z" fill-opacity=".99763" opacity=".59939"/>
   </g>
  </g>
 </g>

</g><g id="Eye Style">
 <g id="layer60" transform="translate(19.4 11.241)">
  <g id="layer45">
   <g id="layer156">
    <path id="path25-2-4" d="m649.8 535.53c-0.73373-0.13019-2.7748-0.49218-4.5358-0.80413-4.1714-0.73904-11.364-3.7855-15.789-6.6868-4.5259-2.9681-10.949-9.7018-13.733-14.397-15.623-26.349-1.7877-59.936 27.92-67.776 5.1345-1.3554 17.234-1.388 22.081-0.0597 10.443 2.8628 18.419 8.0306 24.893 16.128 11.639 14.559 12.994 34.973 3.4194 51.519-2.5395 4.389-8.1653 10.504-12.529 13.618-4.2137 3.0068-11.165 6.2494-15.877 7.4066-3.5659 0.87545-13.232 1.5172-15.85 1.0524zm-170.76-14.119c-9.7209-1.1919-17.352-3.3406-25.434-7.1615-20.589-9.7338-36.248-28.367-41.992-49.969-2.1-7.8991-2.6885-12.444-2.6885-20.76 0-4.2555 0.30474-9.5385 0.67727-11.74 4.4243-26.145 19.601-46.743 43.235-58.671 4.9546-2.501 15.021-5.7228 21.133-6.7639 7.0102-1.194 19.084-1.2039 26.007-0.0207 29.998 5.1241 54.811 27.532 62.498 56.436 2.1 7.8991 2.6885 12.444 2.6885 20.76 0 21.41-7.7001 40.011-22.878 55.263-11.767 11.826-26.124 19.242-42.406 21.906-6.0433 0.98885-15.87 1.3275-20.839 0.71823z" fill="url(#linearGradient85716)" stroke-width="4.1461"/>
    <path id="path35-59" d="m479.22 521.68c-9.7176-1.1915-17.346-3.3394-25.425-7.1591-20.582-9.7304-36.236-28.357-41.977-49.952-2.0992-7.8964-2.6876-12.44-2.6876-20.753 0-4.2541 0.30464-9.5352 0.67704-11.736 4.4228-26.136 19.595-46.727 43.221-58.651 4.9529-2.5002 15.016-5.7209 21.125-6.7616 7.0078-1.1936 19.078-1.2035 25.998-0.0207 29.988 5.1224 54.793 27.522 62.477 56.417 2.0992 7.8964 2.6876 12.44 2.6876 20.753 0 21.403-7.6975 39.997-22.87 55.244-11.763 11.822-26.115 19.235-42.392 21.899-6.0413 0.98851-15.864 1.3271-20.832 0.71798z" fill="url(#radialGradient2958-8)" stroke-width="4.1447"/>
    <path id="path37-6-5" d="m649.91 535.81c-0.73348-0.13014-2.7739-0.49201-4.5343-0.80386-4.17-0.73879-11.361-3.7842-15.783-6.6845-4.5243-2.967-10.945-9.6985-13.728-14.392-15.618-26.34-1.7871-59.915 27.911-67.753 5.1328-1.3549 17.229-1.3876 22.073-0.0597 10.44 2.8618 18.413 8.0278 24.884 16.123 11.635 14.554 12.989 34.961 3.4183 51.502-2.5386 4.3875-8.1625 10.5-12.525 13.613-4.2122 3.0058-11.162 6.2473-15.872 7.404-3.5647 0.87515-13.227 1.5167-15.844 1.052z" fill="url(#radialGradient3780-8)" stroke-width="4.1447"/>
    <path id="path39-10" d="m649.74 535.52c-0.73349-0.13014-2.7739-0.49201-4.5343-0.80385-4.17-0.73879-11.361-3.7842-15.783-6.6845-4.5243-2.967-10.945-9.6985-13.728-14.392-15.618-26.34-1.7871-59.915 27.911-67.753 5.1328-1.3549 17.229-1.3876 22.073-0.0597 10.44 2.8618 18.413 8.0278 24.884 16.123 11.635 14.554 12.989 34.961 3.4183 51.502-2.5386 4.3876-8.1625 10.5-12.525 13.613-4.2122 3.0058-11.162 6.2473-15.872 7.404-3.5647 0.87515-13.227 1.5167-15.844 1.052zm-170.7-14.115c-9.7176-1.1915-17.346-3.3394-25.425-7.1591-20.582-9.7304-36.236-28.357-41.977-49.952-2.0992-7.8964-2.6876-12.439-2.6876-20.753 0-4.2541 0.30464-9.5352 0.67704-11.736 4.4228-26.136 19.595-46.727 43.221-58.651 4.9529-2.5002 15.016-5.7209 21.125-6.7616 7.0078-1.1936 19.078-1.2035 25.998-0.0207 29.988 5.1224 54.793 27.522 62.477 56.417 2.0992 7.8964 2.6876 12.439 2.6876 20.753 0 21.403-7.6975 39.997-22.87 55.244-11.763 11.822-26.115 19.235-42.392 21.899-6.0413 0.9885-15.864 1.3271-20.832 0.71798z" fill="url(#linearGradient84709)" stroke-width="4.1447"/>
    <g id="g49-5" transform="matrix(4.1447 0 0 4.1447 115.04 46.785)" fill="none" filter="url(#filter22322-0)" stroke-linecap="round" stroke-linejoin="round" stroke-opacity=".82341" style="mix-blend-mode:normal">
     <path id="path41-2" transform="rotate(137.23)" d="m13.375-131.98a13.19 13.003 0 0 1-8.1489 12.016 13.19 13.003 0 0 1-14.378-2.8314 13.19 13.003 0 0 1-2.8407-14.18 13.19 13.003 0 0 1 12.206-8.007" opacity=".47557" stroke="url(#linearGradient714529)" stroke-width=".865"/>
     <path id="path43-2" transform="rotate(137.23)" d="m11.721-131.96a11.693 11.527 0 0 1-7.2303 10.654 11.693 11.527 0 0 1-12.749-2.5217 11.693 11.527 0 0 1-2.5014-12.579 11.693 11.527 0 0 1 10.84-7.0799" opacity=".41368" stroke="url(#linearGradient714531)" stroke-width=".165"/>
     <path id="path45-77" transform="rotate(145.57)" d="m-39.721-162.73a7.0148 6.9114 0 0 1-6.3018 6.8756 7.0148 6.9114 0 0 1-7.5829-5.4779 7.0148 6.9114 0 0 1 4.7603-7.9892" opacity=".47883" stroke="url(#linearGradient714533)" stroke-width=".165"/>
     <path id="path47-63" transform="rotate(140.51)" d="m-24.344-166.26a7.9229 7.8065 0 0 1-7.7289 7.8042 7.9229 7.8065 0 0 1-8.1074-7.422 7.9229 7.8065 0 0 1 7.3318-8.1677" opacity=".468" stroke="url(#linearGradient714535)" stroke-width=".465"/>
    </g>
    <path id="path51" d="m409.63 433.5 154.08 26.788c4e-3 -8e-3 -0.4482 1.8929-0.75727 3.2289-0.41874 1.8101-0.84199 3.0472-0.84199 3.0472l-152.87-27.2s0.0605-1.9376 0.12517-2.915c0.0647-0.97735 0.26236-2.9492 0.26236-2.9492z" fill-opacity=".8" stroke-width="4.1447"/>
    <path id="path53-75" d="m609.79 484.46 89.678 15.592c2e-3 -4e-3 -0.2607 1.1017-0.44087 1.8793-0.24329 1.0536-0.49007 1.7736-0.49007 1.7736l-88.974-15.832s0.0332-1.1277 0.0734-1.6966c0.0373-0.5689 0.15294-1.7166 0.15294-1.7166z" fill-opacity=".79757" stroke-width="4.1447"/>
    <path id="path55-8" d="m598.6 511.53c-322.33-309.8-161.17-154.9 0 0zm12.122-31.645c3.7721-15.635 15.727-29.067 33.13-33.662 5.1328-1.3549 17.229-1.3876 22.073-0.0597 10.44 2.8618 18.413 8.0278 24.884 16.123 7.7497 9.694 10.938 21.984 9.3757 34zm-200.03-51.949c5.2811-24.137 20.063-43.163 42.404-54.44 4.9529-2.5002 15.016-5.7209 21.125-6.7616 7.0078-1.1936 19.078-1.2035 25.998-0.0207 29.988 5.1224 54.793 27.522 62.477 56.417 2.0992 7.8964 2.6876 12.44 2.6876 20.753 0 3.4036-0.1948 6.7363-0.58307 9.9957z" fill-opacity=".8" stroke-width="4.1447"/>
    <g id="g65-7" transform="matrix(4.1447 0 0 4.1447 115.04 46.785)" fill="#fff">
     <ellipse id="ellipse57-9" cx="136.36" cy="105.39" rx="2.7249" ry="3.6633" fill-rule="evenodd"/>
     <ellipse id="ellipse59-1" cx="100.26" cy="92.945" rx="4.6816" ry="6.2939" fill-rule="evenodd"/>
     <path id="path61-90" d="m97.951 84.134c0.22902 0.83904-0.58965 2.0678-1.4537 2.1667-2.8468 0.32572-6.2779-5.8721-6.2779-5.8721s6.9791 0.94835 7.7317 3.7054z"/>
     <path id="path63-05" d="m135.01 100.26c0.13328 0.48835-0.3432 1.2036-0.84615 1.2611-1.657 0.18959-3.654-3.4178-3.654-3.4178s4.0621 0.55198 4.5002 2.1567z"/>
    </g>
   </g>
  </g>
 </g>

</g><g id="Hair">
 <g id="layer60" transform="translate(19.4 11.241)">
  <g id="layer4">
   <g id="g136580" transform="translate(-19.4 -11.241)">
    <g id="g136544" transform="matrix(4.1461 0 0 4.1461 133.91 58.186)">
     <g id="g136536" fill="#371F0F" stroke="#000">
      <path id="path136532" d="m67.482 121.95s-7.0247-7.077-6.348-14.759c-3.8647 1.0197-4.0806-2.3632-4.1212-3.0672-0.11303-2.4278 3.6678-3.4584 5.322-1.8576 0 0-0.5431-21.237 5.5854-29.141 4.3551-5.6162 7.3038-7.8241 17.586-11.075 2.0179-0.3929 4.3373-0.59142 6.8395-0.64103-0.21829 4.8027 9.262 10.115 17.942 12.708 0.40534-2.6908 0.0179-7.3475 3.7675-11.101 0.98296 12.401 15.692 14.998 18.987 19.62 0.97216-8.053-1.3236-15.797-1.3236-15.797 4.8482 3.4141 8.6154 8.1268 11.084 13.628 3.9396 8.7799 4.8234 27.406 4.8234 27.406s3.7874-0.86084 3.9464 2.3386c0.12591 2.5332-3.1573 2.7718-3.1573 2.7718-1.7917 4.2649-4.4786 8.1643-8.0059 10.986 0 0 8.594-5.722 11.677-10.139 4.1483-5.9433 3.0056-24.633 1.6519-31.753-0.21411-1.1262-0.58011-3.0646 1.6598-1.1479-2.0455-10.553-5.8648-17.809-14.882-25.068-1.8813-1.5143-1.0338-1.8781 2.3454-1.7693-3.2965-2.2028-12.747-4.7168-18.371-6.3993-1.2781-0.38233-2.6548-0.72601-4.1061-1.0282-0.40106-0.87633-2.8415-11.742-5.623-15.75 0.34643 3.8124 0.87258 13.732-0.7054 12.176-3.7102-3.6575-10.181-9.4154-13.138-9.5834 1.644 2.1252 3.203 7.4938 3.6629 11.316-6.7727-2.3517-10.438-2.7808-13.211-2.8372 1.9521 1.9862 2.4337 2.5419 2.8491 3.7532-6.8766 0.922-22.773 3.015-25.414 5.2662 3.9843 0.14757 4.1798 1.4828 2.5888 2.7079-7.0584 5.4475-16.122 14.12-18.564 22.378 3.7524-1.8114 3.8389 0.0855 3.5922 1.2333-2.2009 10.244-3.4312 21.246 0.65773 31.425 2.6454 6.5852 10.405 13.2 10.405 13.2z" fill="#371F0F" stroke-linecap="round" stroke-width=".565"/>
     </g>
     <path id="path136540" d="m121.44 49.915-6.6792-19.001c-0.51083 4.7016 1.1708 11.23-1.5325 14.105l8.2118 4.8965" fill-opacity="0"/>
    </g>
    <path id="path136546" d="m538.3 276.82c-13.55 9.122-21.679 19.184-23.109 29.816-1.4303 10.633 4.0303 21.42 16.559 31.525 12.528 10.105 32.193 19.735 59.859 28.486l2.0059 0.63476-0.0547-2.1016c-0.42271-16.53 1.5084-31.385 11.807-41.674 6.0238 23.684 18.784 37.184 33.316 47.359 15.072 10.553 31.916 17.803 45.373 29.92l2.2129 1.9922 0.28516-2.9629c2.1055-21.884 2.3416-43.753-5.1172-65.006l-24.51-39.546c11.427 17.511 22.13 39.745 26.3 60.427 3.2784 16.259 1.3401 31.93 0.53254 41.067-13.492-11.383-29.397-18.575-43.355-28.348-14.734-10.316-27.271-23.501-32.822-48.137l20.887-25.668-23.331 24.863c-12.405 10.722-14.756 26.704-14.533 43.654-26.372-8.5082-45.218-17.816-56.973-27.297-12.056-9.7244-16.728-19.41-15.467-28.789 1.2617-9.3791 8.6494-18.869 21.811-27.729 13.161-8.86 31.015-12.321 57.574-15.751-32.663 1.3034-48.71 6.3017-59.25 13.262z" color="#000000" style="-inkscape-stroke:none"/>
    <path id="path136548" d="m525.55 247.3-2.4635 0.88507c3.9241 8.9691 6.0447 16.499 11.483 21.868z" color="#000000" style="-inkscape-stroke:none"/>
    <path id="path136550" d="m567.93 242.59-0.84111 2.5755 15.682 5.3284c-5.4875-4.8678-10.032-6.4732-14.841-7.9039z" color="#000000" style="-inkscape-stroke:none"/>
    <path id="path136552" d="m608.8 236.55-3.0163 0.90301 15.348 15.671c-5.8171-9.6626-8.6101-12.852-12.332-16.574z" color="#000000" style="-inkscape-stroke:none"/>
    <path id="path136554" d="m634.45 251.19-3.0526-0.64211 4.664 15.064 2.8477-0.94141z" color="#000000" style="-inkscape-stroke:none"/>
    <path id="path136556" d="m630.61 265.54c5.2338 0.0983 6.78 2.1127 15.176 0.66211-5.2338-0.0983-10.028-4.8331-15.176-0.66211z" color="#000000" style="-inkscape-stroke:none"/>
    <path id="path136558" transform="matrix(4.1461 0 0 4.1461 133.04 56.614)" d="m88.162 47.16c3.4227 1.9187 3.9764 3.8374 4.5458 5.7561-4.5175 2.7408-5.4331 5.9961-7.2022 9.1295l6.9427-0.65773c0.29904-3.5398 4.8018-10.891 19.588-11.476 0 0-6.176-1.1161-8.8537-0.5923-2.3917 0.4678-6.3365 2.1595-6.3365 2.1595l-2.1754-5.4879c-1.6186 0.58982-4.8596 1.1841-6.5092 1.1689z" filter="url(#filter103773-2-8)" opacity=".087398" style="mix-blend-mode:normal"/>
    <path id="path136560" d="m430.55 265.22-11.379 4.44 11.379 1.5692 3.573 4.5475c-23.035 23.862-44.553 40.05-62.366 61.067 28.369-18.822 57.147-54.285 83.642-61.716-4.1126-5.3103-9.2332-10.135-24.849-9.9071z" opacity=".085366" stroke="#000" stroke-width=".26458px"/>
    <path id="path136562" d="m355.36 367.37s11.932-9.0232 18.515-7.7957c4.1402 0.772 2.0486 15.378 1.1369 19.489-2.2748 10.242-10.326 65.769 5.4894 47.382 2.7034 4.2686-1.9489 25.639 5.0212 20.094 5.0512-7.7816 6.9695-16.19 10.07-24.362l-3.2363 60.008-14.248-2.5486-8.1306 5.9678 2.9234 13.642 14.458 3.3484c0.56468 22.398 9.7511 42.7 26.338 61.201-20.185-26.361-42.488-27.773-53.623-88.911-3.7041-20.34 0.81161-60.607 7.7024-96.148 1.0523-5.4277-0.67186-10.464-14.833-5.0757" opacity=".085366" stroke="#000" stroke-width=".26458px"/>
    <path id="path136564" d="m552.32 197.11c16.152 21.206 30.524 43.669 51.528 61.45-12.373-3.9824-24.268-9.6086-36.342-14.533 0.067-16.87-7.8395-31.826-15.187-46.917" opacity=".087398" stroke="#000" stroke-width=".26458px"/>
    <path id="path136566" d="m609.71 186.36c2.7292 24.338 5.6588 48.562 13.189 70.199-3.4864-7.7552-9.3994-13.34-14.099-20.009 3.6875-15.038 0.63914-33.443 0.90985-50.19" opacity=".087398" stroke="#000" stroke-width=".26458px"/>
    <path id="path136568" d="m630.61 265.54-23.552-0.93986c8.1537 0.68874 17.649 1.8954 26.643 3.3304 5.2684 3.0522 6.6393 7.7748 7.6944 12.633 0.77774-3.8382 2.2333-7.8119 1.6078-11.369 2.3553-1.1622 5.9292 0.20808 8.8428 2.0672-1.7152-1.7202-1.8699-3.6138-6.0609-5.0589l-15.176-0.66212" opacity=".087398" stroke="#000" stroke-width=".26458px"/>
    <path id="path136570" d="m628.47 294.6s-9.7765 19.167-10.007 29.571c-0.26725 12.059 10.069 34.756 10.069 34.756-12.451-10.616-17.4-25.324-23.393-39.463l23.331-24.863" opacity=".087398" stroke="#000" stroke-width=".26458px"/>
    <path id="path136572" d="m708.44 320.27c28.95 23.277 51.402 71.393 52.389 133.95-0.10119-13.309-17.656-105.8-52.389-133.95z" opacity=".087398" stroke="#000" stroke-width=".26458px"/>
    <path id="path136574" d="m702.59 283.25c5.4082 1.771 10.09 4.3405 13.967 7.7957l-3.3661-6.7321 5.6697-2.9011c-5.3678 0.89194-10.752 1.7001-16.271 1.8375z" opacity=".087" stroke="#000" stroke-width=".26458px"/>
    <path id="path136576" d="m777.75 392.06c-4.5547-3.353-9.5419-4.6017-11.819-9.0934l4.6287 17.216 0.48723-9.298" opacity=".087" stroke="#000" stroke-width=".26458px"/>
    <path id="path136578" d="m744.82 475.86c5.0708 1.4358 6.913 7.9164 15.267 4.2227 4.757-0.8809 15.054-25.029 15.916-19.164 0.8067 5.4847-3.6757 65.7-9.7447 66.913-12.016 17.615-28.341 25.828-42.552 38.654l25.518-39.878c4.8964 0.1948 8.1539-3.1613 11.836-5.5968l1.2993-8.1205-6.1716-7.4709-10.212 0.01z" opacity=".087" stroke="#000" stroke-width=".26458px"/>
   </g>
  </g>
 </g>

</g><g id="Eye Outline">
 <g id="layer60" transform="translate(19.4 11.241)">
  <g id="layer104">
   <g id="layer51">
    <path id="path274" d="m646.78 554.34c-0.44023-0.10656-2.6014-0.4853-4.8024-0.84157-9.2056-1.4899-19.15-5.8485-27.255-11.946-16.244-12.22-25.574-30.99-25.574-51.449 0-3.8712-0.18782-5.9845-0.50346-5.6664-0.27696 0.27903-2.0916 3.7288-4.0327 7.6665-5.9612 12.093-14.114 23.201-23.332 31.789-42.912 39.978-108.4 39.978-151.31 0-9.4319-8.7872-17.592-19.994-23.595-32.406-4.3472-8.9887-6.9679-16.622-8.7922-25.61-4.8016-23.656-1.8853-47.983 8.2955-69.194 6.1034-12.715 12.245-21.446 21.82-31.022 43.177-43.177 112.67-43.177 155.85 0 9.5758 9.5758 15.717 18.307 21.82 31.022 8.0969 16.868 11.75 36.373 10.259 54.774-0.35076 4.3289-0.78008 8.4112-0.95401 9.0716-0.62515 2.3735 0.85886 1.1485 2.9535-2.438 3.2246-5.5213 6.455-9.5712 11.489-14.404 12.114-11.629 27.342-17.71 44.355-17.71 35.614 0 64.289 28.765 64.277 64.472-0.0124 25.954-15.748 49.276-40.046 59.347-7.1176 2.9499-13.754 4.2912-22.386 4.5246-4.2555 0.11485-8.0977 0.1219-8.538 0.0166zm21.988-5.251c9.9145-2.6206 18.804-7.6437 26.353-14.891 12.812-12.3 18.895-26.438 18.895-43.915 0-11.037-1.7875-18.506-6.7109-28.038-8.5082-16.473-23.902-28.025-42.302-31.746-6.2419-1.2621-20.97-0.85161-26.78 0.74637-21.643 5.9521-37.877 22.239-43.87 44.015-1.0659 3.8716-1.1952 5.5562-1.1741 15.29 0.0207 10.354 0.10199 11.196 1.482 15.742 1.6688 5.496 5.2912 13.335 8.213 17.773 2.8598 4.3443 11.333 12.926 15.808 16.01 7.0454 4.8559 14.483 8.0774 22.497 9.7445 7.2241 1.5028 20.47 1.1524 27.591-0.72983zm-171.52 0.66255c19.74-2.1455 39.855-10.574 55.607-23.301 4.7236-3.8161 13.694-12.964 17.152-17.492 4.4732-5.8568 8.4568-12.409 11.906-19.583 7.6943-16.005 10.925-31.654 10.272-49.761-0.83067-23.056-8.5011-43.832-23.058-62.461-3.7663-4.819-13.323-14.278-18.14-17.954-32.572-24.861-75.819-29.346-111.87-11.604-11.239 5.5313-18.757 10.837-27.872 19.668-19.975 19.355-31.195 44.57-32.196 72.349-0.65243 18.108 2.5782 33.758 10.272 49.761 5.5201 11.483 10.918 19.239 19.703 28.314 8.9784 9.274 17.71 15.693 29.193 21.461 10.375 5.2112 23.915 9.3067 34.858 10.543 6.0918 0.68829 18.106 0.71748 24.168 0.0589z" stroke-width="4.1461"/>
   </g>
  </g>
 </g>

</g><g id="Pose">
 <g id="layer60" transform="translate(19.4 11.241)">
  <g id="layer134">
   <g id="g265105">
    <g id="g265103" transform="matrix(4.1461 0 0 4.1461 114.5 46.946)" fill-opacity=".99763">
     <path id="path265101" d="m93.014 270.84c-0.54243-0.12847-0.59439-0.18685-0.36789-0.41335 0.12673-0.12674 0.76593-0.23222 2.0332-0.33555 2.6743-0.21805 5.5425-0.63947 5.7475-0.84448 0.1473-0.14731 0.1291-2.4673-0.1156-14.735-0.24474-12.27-0.26577-14.951-0.13364-17.039 0.0862-1.3631 1.6025-24.471 3.3695-51.351s3.2127-49.077 3.2127-49.326c0-0.72652-0.37063-0.58428-1.1962 0.45908-0.49341 0.62361-1.373 2.1812-2.78 4.923-1.132 2.2059-2.2412 4.4162-2.4649 4.9117-0.22369 0.49551-0.77741 1.6828-1.2305 2.6384-0.45308 0.95564-0.82359 1.7818-0.82337 1.8359 2.6e-4 0.0541-0.41414 1.0097-0.92082 2.1236-1.3716 3.0153-2.8954 6.5962-3.5181 8.2675-0.30332 0.81406-0.90034 2.3489-1.3267 3.4107-0.42638 1.0618-1.0488 2.7414-1.3831 3.7324s-0.77 2.2444-0.96817 2.7851c-1.1018 3.0067-3.1481 10.673-3.6517 13.68-0.1177 0.70291-0.23613 1.3138-0.26317 1.3576-0.36925 0.59745-1.0219 8.4559-0.9302 11.2 0.0644 1.9269 0.48989 5.2043 0.73516 5.6626 0.0754 0.14092 0.32871 0.24687 0.68665 0.2872 0.34347 0.0387 0.79776 0.22259 1.1518 0.4662 1.3645 0.93881 1.3914 3.2037 0.0489 4.1208-1.1378 0.77718-1.8256 0.78616-2.9574 0.0386-0.60042-0.39657-0.86081-0.87404-0.94965-1.7414-0.10397-1.015 0.14287-1.7141 0.82694-2.3422 0.51825-0.47584 0.57489-0.58053 0.49154-0.90852-0.29442-1.1586-0.60633-3.7241-0.67099-5.5189-0.0552-1.5315-3e-3 -2.9333 0.20393-5.47 0.24067-2.9515 0.56135-5.5383 0.718-5.7917 0.0261-0.0422 0.14015-0.62416 0.25348-1.2932 0.88038-5.1974 3.5621-14.301 6.029-20.467 0.46929-1.173 1.0625-2.7337 1.3181-3.4683 0.25569-0.73457 0.60008-1.6024 0.76533-1.9285 0.16524-0.32609 0.67505-1.4875 1.1329-2.5809 0.45786-1.0934 1.1631-2.712 1.5672-3.5968 0.40408-0.88485 0.90234-2.0286 1.1072-2.5416 0.20491-0.513 0.63566-1.4566 0.95723-2.0969s0.70311-1.4658 0.84788-1.8344c0.25778-0.65647 3.8645-7.7478 5.1349-10.096 0.35365-0.65367 0.5877-1.1758 0.643-1.3836 0 0 0.15588-0.2483-0.27259-0.23395l4.528-0.59113 3.8132 0.0306c-0.76502 0.0966-1.4433 0.22809-1.5073 0.2921-0.0694 0.0694 0.13953 0.58361 0.51729 1.2733 5.4097 10.159 10.076 24.816 14.582 31.454s2.5116 5.4306 10.71-1.3291c0.11457-0.31845 0.16236-0.40196-0.17852-1.0174-0.44996-0.81239-0.46268-1.5537-0.0426-2.4836 0.35891-0.79458 1.0752-1.1546 1.4522-1.351 0.28403-0.0986 0.57048-0.12217 0.8852-0.1519 0.32614-0.0308 0.47946 0.0168 0.67484 0.049 0.28894 0.0659 0.4644 0.19998 0.7487 0.5201 0.14808 0.14139 0.31776 0.33664 0.48427 0.55598 0.98302 1.295 0.24022 3.4348-1.3514 3.8932-0.41299 0.11895-0.90213 0.14949-1.2402 0.0774-0.35228-0.0751-0.67462-0.0898-0.74226 0.055-8.1756 7.1847-7.0673 9.1994-11.917 1.5943s-9.7716-22.001-14.423-31.123c-0.47766-0.82604-0.75906-1.0666-0.87979-0.75193-0.0383 0.0998 1.8168 22.672 4.1223 50.161 2.3056 27.489 4.2281 50.993 4.2722 52.232 0.0442 1.2388-0.0476 8.4421-0.20384 16.007-0.24097 11.666-0.25726 13.782-0.10729 13.932 0.20719 0.20719 3.0601 0.62722 5.7495 0.84649 1.2956 0.10563 1.9053 0.20758 2.0386 0.34087 0.16775 0.16775 0.16579 0.20381-0.0166 0.3059-0.39281 0.21983-2.0158 0.2664-3.5839 0.10282-1.5433-0.16098-3.9884-0.80709-4.5043-1.1903-0.22548-0.16747-0.51904-2.4652-2.8574-22.365-0.76965-6.55-0.80826-6.95-0.9067-9.3955-0.0385-0.95563-0.12428-2.5773-0.19068-3.6037s-0.50038-7.9476-0.96439-15.38c-0.46401-7.4327-0.87393-13.651-0.91093-13.818-0.0575-0.25953-0.11765-0.28973-0.41528-0.20864-0.59549 0.16222-5.4911 0.22162-6.0288 0.0731-0.3713-0.10251-0.52774-0.0969-0.63704 0.0228-0.0982 0.10758-0.32037 4.7008-0.68939 14.252-0.80443 20.821-0.78052 20.421-1.6756 27.993-2.5342 21.44-2.7044 22.777-2.9203 22.937-0.11578 0.086-0.75511 0.33787-1.4207 0.55962-1.8384 0.61246-5.0555 0.93672-6.3207 0.63709zm-5.654-62.721c0.38879-0.21457 0.52158-0.39052 0.66877-0.88617 0.50456-1.6991-1.0089-2.9884-2.5146-2.1422-0.53979 0.30339-0.76296 0.7491-0.76296 1.5238 0 0.8699 0.21942 1.2451 0.93739 1.6029 0.70567 0.35166 0.87406 0.34175 1.6714-0.0983zm51.906-45.729c-0.58627 0.10785-0.94154 0.46622-1.185 1.1953-0.24533 0.73482-0.1748 1.2283 0.24113 1.687 0.48529 0.5352 1.02 0.71228 1.7354 0.57519 0.45718-0.0878 0.63749-0.21055 0.93628-0.63723 0.32191-0.4597 0.37293-0.6143 0.3925-1.1882 0.0199-0.59345-0.031-0.71293-0.50586-1.187-0.56396-0.56299-0.72676-0.60781-1.6144-0.44453z"/>
    </g>
   </g>
  </g>
 </g>

</g><g id="Bottoms">
 <g id="layer60" transform="translate(19.4 11.241)">
  <g id="layer17">
   <g id="g8105">
    <path id="path8075" d="m514.44 841.17 2.8469 322.76s7.3941 1.4889 9.6969 1.4432c2.3028-0.046 12.983-1.0354 12.983-1.0354l11.293-112.05 15.829-157.22 31.251 266.61s11.673 1.0812 13.876 1.0734c2.2029-0.01 11.554-1.1207 11.554-1.1207l-8.0351-321.85s-11.332 1.3346-48.824 1.8002c-44.492 0.55251-52.469-0.40922-52.469-0.40922z" fill="#007fff" stroke="#000" stroke-width="2.3425"/>
    <path id="path8077" d="m514.32 841.2 2.8469 322.76s6.8638 0.5798 9.1666 0.5342c2.3028-0.046 12.985-0.9598 12.985-0.9598 6.1544-52.668 9.3092-97.354 15.464-146.14l12.187-122.3 31.251 266.61s11.673 1.0811 13.876 1.0732c2.2029-0.01 11.554-1.1205 11.554-1.1205l-8.0351-321.85s-11.332 1.3346-48.824 1.8002c-44.492 0.55251-52.469-0.40922-52.469-0.40922z" fill="url(#linearGradient9242)" stroke-width="4.1461"/>
    <path id="path53293-8-6" transform="matrix(2.0448 0 0 -2.0225 373.55 1682.3)" d="m122.78 264.78c-3.9361 2.9688-7.1734 2.3595-9.7896 1.9844 1.9252 0.85563 2.9141 2.6724 5.2586 1.5875 0.22371-0.10352 4.531-3.5719 4.531-3.5719z" filter="url(#filter25152-8)" opacity=".18567" stroke="#000" stroke-width=".26458px" style="mix-blend-mode:normal"/>
    <path id="path24109-1" transform="matrix(4.1461 0 0 4.1461 114.51 46.946)" d="m103.51 261.3-3.695 3.695 3.8353-3.0402z" filter="url(#filter25160-7)" opacity=".18567" style="mix-blend-mode:normal"/>
    <g id="g8099" transform="matrix(4.1461 0 0 4.1461 114.09 46.948)" stroke="#000">
     <g id="g8093" fill="none">
      <g id="g8085" stroke-width=".26458px">
       <path id="path8079" d="m103.91 192.75s0.22989 5.2894-7.3734 3.1969"/>
       <path id="path8081" d="m113.62 192.56s-0.22989 5.2894 7.3734 3.1969"/>
       <path id="path8083" d="m108.15 191.64c0.01 9.218-0.11002 8.4107 0.98477 8.8178l-0.10335-8.6816"/>
      </g>
      <path id="path8087" d="m109.26 200.46-0.26367 0.01-0.0348 4.4348 0.57939-0.20679z" color="#000000" fill="#000" stroke="none" style="-inkscape-stroke:none"/>
      <path id="path8089" d="m96.609 192.57 11.343 0.10336h0.12919" stroke-width=".26458px"/>
      <path id="path8091" d="m109.11 192.6 11.834-0.41341" stroke-width=".26458px"/>
     </g>
    </g>
    <path id="path52-1-3" transform="matrix(4.1461 0 0 4.1461 114.51 46.946)" d="m108.63 203.5-3.3748 0.69482 2.7388 0.64597-1.208 21.806 2.3731-22.618 3.0518 25.194-2.4211-24.667 3.1652-0.93017z" fill-opacity=".99763" filter="url(#filter48371-3-3-2)" opacity=".18567" stroke-width=".26458px" style="mix-blend-mode:normal"/>
    <path id="path44645-5-3" transform="matrix(4.1461 0 0 4.1461 114.51 46.946)" d="m99.656 205.44c0.98967 3.5696 7.0712 8.0225 7.0712 8.0225s-5.0268-4.0312-7.2115-3.0179c-2.4404 1.1319 0.15365 8.0689 0.15365 8.0689-3.9976 2.6263-1.664 8.0705-0.33349 9.5994-0.22468 1.173-0.65867 4.069 0.33351 4.4941 3.5449 1.4365 0.41667 3.602 0.45965 3.6204 0 0-0.93322 0.45981-1.1693 0.88868-0.26411 0.47978-0.14032 1.637-0.14032 1.637s0.19298 0.77268 0.5145 0.8419c0.39964 0.086 2.3182-7e-3 2.3182-7e-3s-1.2159 0.74406-1.8698 1.1812c-0.57558 0.38478-0.69708 0.0846-1.165 0.59483-0.48466 0.52851-0.28614 1.3664-0.0227 1.9668 0.22837 0.52049 1.268 1.14 1.268 1.14s-1.2644 0.0224-1.6838 0.42095c-0.69719 0.66242-1.0649 1.8241-0.8419 2.7596 0.23239 0.97478 0.37693 1.4924 0.37693 1.4924 1.3722 0.79004 3.3799 2.9007 3.235 3.6948-0.0848 0.46461-1.9482-0.59634-3.0234-0.48642-0.79028 0.0808 0.90913 1.5559 1.5848 2.363 1.6271 1.9434-0.67615 2.5657-0.67615 2.5657-0.0666 0.33316-0.0035-3.0306-0.58124-2.4497-0.92151 0.92644-0.21027 3.962-0.21164 3.9601-0.71626 0.6418-0.87184-1.4781 0.87878 1.2883 1.2258 1.2966-1.8924 2.7938 0.98605 2.9161-3.5001 0.0743 0.27533 1.0866-1.4033 1.9605-0.82946 1.2442-0.03409 2.0493 0.68553 3.3454 0.494 0.88971 3.4303 1.2063 3.4303 1.2063-3.3345 0.86693-2.5341 0.26629-5.4702-0.0984-0.16051-3.095 0.30167-6.4353 0.33492-10.925 5e-3 -0.60492-0.43644-1.3302-0.45843-1.9409-0.0911-2.5303 9e-3 -5.0482-0.1468-7.3781-0.0824-1.2335 0.0609-0.38863 0.0534-1.5713l-0.0453-7.2357s0.0478-2.7909-0.089-7.2044c0 0-0.0575-13.4-0.1091-15.88l-0.17834-24.701 2.5617-0.0429s-0.56618 8.7583 0.58465 12.909z" filter="url(#filter25156-6)" opacity=".18567" stroke="#000" stroke-width=".26458px" style="mix-blend-mode:normal"/>
    <path id="path52902-3-8-2" transform="matrix(4.1461 0 0 4.1461 114.51 46.946)" d="m104.24 222.1-2.4143-4.2003c0.80112 3.5606 2.494 5.6208 4.9622 8.7428z" filter="url(#filter25176-9)" opacity=".18567" stroke="#000" stroke-width=".26458px" style="mix-blend-mode:normal"/>
    <path id="path52914-9-2" transform="matrix(4.1461 0 0 4.1461 114.51 46.946)" d="m115.84 262.44c-0.0257 0.23592 4.5002-0.77898 3.3987-1.5586-0.60055-0.42505-3.0828 0.24588-2.6735-2.6007 0 0-0.16027-1.5559 3.0888 0.49654 0.36161 0.22843-1.1866-1.18-0.9727-1.7554 0.29619-0.79663-2.5726-3.0049-2.2454-4.2139 0.2072-0.76559-1.6989-2.0904-1.5095-5.2658 0.18604-3.1197 0.69051-7.5531 1.5377-9.3685 0.29873-0.64009 1.5089-0.28858 1.5602-0.36118 0.46045-0.65128-1.7641-1.3154-3.0428-4.6076-0.34787-0.89565-0.50323-3.7621-0.66289-4.7382-0.46863-2.8652-1.3137-5.5647-1.103-6.0696 1.0446-2.5027 1.2898-5.2917 1.2898-5.2917-0.2463 1.1166-1.4781 2.0018-2.1412 2.2916 0.20322-1.3458 2.1079-4.5877 1.7112-6.2934 0.1077-1.3177-0.15315-5.4431 0.8599-6.6476-1.4111 1.3578-3.3591 3.3-4.0018 1.9183l-1.7707-3.8066c-0.6748 2.8702-0.92065 1.7393-1.0736 4.6665l-1.7859-1.1245c1.9791 1.8591 1.5906 3.8498 2.1497 5.7878-0.39026-9.5182 0.70976-9.3298 0.70976-9.3298s1.8015 18.53 2.3224 23.59" filter="url(#filter25136-67)" opacity=".18567" stroke="#000" stroke-width=".26458px" style="mix-blend-mode:normal"/>
    <path id="path24105-6" transform="matrix(4.1461 0 0 4.1461 114.51 46.946)" d="m105.53 237.11s-2.0789 0.48975-2.8999 1.1225c-0.44212 0.3408-0.98222 1.3564-0.98222 1.3564z" filter="url(#filter25168-94)" opacity=".18567" style="mix-blend-mode:normal"/>
    <path id="path24107-93" transform="matrix(4.1461 0 0 4.1461 114.51 46.946)" d="m103.76 240.61s-1.4902 0.10949-2.1983 0.32741c-0.92638 0.2851-2.6192 1.2628-2.6192 1.2628z" filter="url(#filter25164-7)" opacity=".18567" style="mix-blend-mode:normal"/>
    <path id="path19432-0" transform="matrix(4.1461 0 0 4.1461 114.51 46.946)" d="m117.48 246.13 2.745-3.9688s-0.53703 1.425-0.95911 2.0505c-0.48867 0.72418-1.7859 1.9182-1.7859 1.9182z" filter="url(#filter25148-7)" opacity=".18567" style="mix-blend-mode:normal"/>
    <path id="path19434-6" transform="matrix(4.1461 0 0 4.1461 114.51 46.946)" d="m116.79 243.15s2.4009-3.415 4.2664-3.8365c0.30281-0.0684 0.89296 0.26459 0.89296 0.26459l-5.0602 3.6049" filter="url(#filter25144-2)" opacity=".18567" style="mix-blend-mode:normal"/>
    <path id="path19436-9" transform="matrix(4.1461 0 0 4.1461 114.51 46.946)" d="m118.73 223.47c-0.45454 1e-3 -1.3744 0.16965-1.3744 0.16965 2.4351 1.4758 3.4836 2.9516 5.1447 4.4275 0 0-1.7885-4.6017-3.7703-4.5971z" filter="url(#filter25140-5)" opacity=".18567" style="mix-blend-mode:normal"/>
   </g>
  </g>
 </g>

</g><g id="Tops">
  <g
     id="layer60"
     transform="translate(19.4 11.241)">
    <g
       id="layer16">
      <g
         id="layer154">
        <path
           id="path8910-3"
           transform="matrix(4.1461 0 0 4.1461 114.36 47.19)"
           d="m97.944 155.85c5.6508 14.032-5.1676 33.625 22.905 35.809-12.774-0.94211-17.39 0.41978-24.943-0.1666 0.66647-11.883 0.21791-23.99 2.0379-35.642z"
           filter="url(#filter5543-6-9-35)"
           opacity=".14332"
           style="mix-blend-mode:normal" />
        <path
           id="path8912-7"
           transform="matrix(4.1461 0 0 4.1461 114.36 47.19)"
           d="m116.15 138.43-14.999 4.1438c-6.807 6.5461-6.594 13.462-9.1551 20.231l-2.0997-0.63203c1.9501-6.1531 3.0918-12.306 7.1282-18.459 2.4066-4.3917 5.5793-7.6597 8.0088-8.2708l6.8725-0.30901z"
           fill-opacity=".99763"
           filter="url(#filter83355-9-9)"
           opacity=".14332"
           style="mix-blend-mode:normal" />
        <path
           id="path8914-0"
           d="m558.57 840.01c3.3097 1.4768 10.353 1.3386 15.453-4e-5"
           fill="none"
           stroke="#000"
           stroke-width="1.097px" />
        <path
           id="path8916-6"
           transform="matrix(4.1461 0 0 4.1461 114.36 47.19)"
           d="m107.21 191.46c0.78911 0.34701 2.4848 0.31059 3.7272-1e-5"
           fill="none"
           filter="url(#filter51069-8-9)"
           stroke="#000"
           stroke-width=".26458px" />
        <g
           id="g8924-3"
           transform="matrix(4.1461 0 0 4.1461 113.95 47.191)"
           fill="#a985bb"
           fill-opacity=".99763"
           stroke="#000">
          <g
             id="g8920-6" />
          <path
             id="path8922-4"
             d="m96.006 191.49 0.99069-27.591c1.1592-17.777 0.0558 1.8562 0 0-0.0181-0.60255-7.0243-1.1932-7.0014-1.7266 4.3241-18.294 11.98-26.757 15.137-26.73l6.8725-0.30901c4.6927 1.9258 10.529 10.913 15.625 26.766 0.15223 0.47352-6.8831 2.539-6.8904 2.005-0.21561-15.716-0.0593-2.1109-0.0411-0.0835l1.0895 27.389c0.0736 0.59478 7e-3 0.57883-0.46691 0.54227-4.3172-0.26213-24.888 0.74333-25.315-0.26181z"
             stroke-width=".724" />
        </g>
        <path
           id="path8928-9"
           transform="matrix(4.1461 0 0 4.1461 114.36 47.19)"
           d="m97.944 155.85c5.6508 14.032 3.0175 34.748 22.905 35.809-11.967-0.88938-16.618 0.71207-24.943-0.1666 0.66647-11.883 0.21791-23.99 2.0379-35.642z"
           filter="url(#filter5543-6-9-2-0)"
           opacity=".1042"
           style="mix-blend-mode:normal" />
        <path
           id="path8930-4"
           transform="matrix(4.1461 0 0 4.1461 114.36 47.19)"
           d="m116.15 138.43-14.999 4.1438c-6.807 6.5461-6.594 13.462-9.1551 20.231l-2.0997-0.63203c1.9501-6.1531 3.0918-12.306 7.1282-18.459 2.4066-4.3917 5.5793-7.6597 8.0088-8.2708l6.8725-0.30901z"
           fill-opacity=".99763"
           filter="url(#filter83355-9-5-3)"
           opacity=".1042"
           style="mix-blend-mode:normal" />
        <g
           aria-label="#RUGGED"
           id="text569723"
           style="font-size:20.364px;line-height:1.25;font-family:Ranchers;opacity:0.78976;stroke-width:0.076366;filter:url(#filter570399)">
          <path
             d="m 529.05829,673.76762 0.93674,-4.72444 h 2.15859 l -0.97748,4.72444 h 2.34186 l 0.93675,-4.72444 h 2.17895 l -0.97748,4.72444 h 2.5455 v 2.15859 h -2.9935 l -0.52947,2.60659 h 2.91205 v 2.15858 h -3.36006 l -1.03856,5.00955 h -2.01604 l 0.97748,-5.00955 h -2.40296 l -1.03856,5.00955 h -1.99567 l 0.97747,-5.00955 h -2.46405 v -2.15858 h 2.89169 l 0.5091,-2.60659 h -2.78986 v -2.15859 z m 1.14038,4.76518 h 2.38259 l 0.5091,-2.60659 h -2.36222 z"
             id="path313" />
          <path
             d="m 539.09773,685.70093 q 0.0611,-1.93458 0.0815,-3.8488 0.0204,-1.93458 0.0204,-3.66552 0,-2.46404 -0.0407,-4.68372 -0.0204,-2.21967 -0.0611,-4.45971 0.99784,-0.10182 1.99567,-0.16292 1.0182,-0.0815 2.05677,-0.0815 1.48657,0 2.78986,0.224 1.3033,0.20364 2.26041,0.7942 0.95711,0.57019 1.50693,1.58839 0.5702,1.0182 0.5702,2.62696 0,1.99567 -0.83493,3.13605 -0.81456,1.14039 -2.21967,1.71058 l 3.31933,6.82194 h -3.62479 l -2.70842,-6.21102 q -0.83492,0.0611 -1.73094,0.0611 0,1.56803 0.0204,3.07496 0.0204,1.50694 0.12218,3.07497 z m 3.38042,-9.24526 q 0.63129,0.0611 1.16075,0.0611 1.38475,0 1.95495,-0.5091 0.59055,-0.52946 0.59055,-1.56802 0,-0.63129 -0.18327,-1.0182 -0.16292,-0.38692 -0.46838,-0.61092 -0.28509,-0.22401 -0.69237,-0.30546 -0.38692,-0.0815 -0.83493,-0.0815 -0.32582,0 -0.7331,0.0407 -0.38692,0.0204 -0.7942,0.0815 z"
             id="path315" />
          <path
             d="m 562.06834,669.02281 q 0.0407,2.97315 0.12218,5.15209 0.0815,2.15859 0.0815,3.68589 0,0.99783 -0.0611,1.99567 -0.0611,0.97747 -0.26473,1.87349 -0.20364,0.89601 -0.59055,1.66985 -0.36656,0.75346 -0.99784,1.32366 -0.61092,0.57019 -1.5273,0.89601 -0.91638,0.30546 -2.17895,0.30546 -1.30329,0 -2.24004,-0.32582 -0.91638,-0.34619 -1.54766,-0.91638 -0.63129,-0.57019 -1.0182,-1.34403 -0.36655,-0.79419 -0.57019,-1.69021 -0.20364,-0.89601 -0.26474,-1.85312 -0.0611,-0.95711 -0.0611,-1.91422 0,-0.75347 0.0204,-1.60875 0.0204,-0.85529 0.0611,-1.91422 0.0407,-1.05893 0.0814,-2.36222 0.0611,-1.3033 0.12219,-2.95278 h 3.58406 q -0.0611,1.83276 -0.10182,3.11569 -0.0407,1.26257 -0.0815,2.11785 -0.0204,0.85529 -0.0407,1.36439 0,0.48874 -0.0204,0.75347 0,0.26473 0,0.38692 0,0.10182 0,0.16291 0,1.97531 0.44801,2.97314 0.44801,0.99784 1.60876,0.99784 1.18111,0 1.58839,-1.07929 0.42764,-1.0793 0.42764,-3.27861 0,-0.10182 0,-0.224 0,-0.14255 -0.0204,-0.42765 0,-0.28509 -0.0204,-0.75346 0,-0.48874 -0.0407,-1.28294 -0.0204,-0.81456 -0.0611,-1.9753 -0.0407,-1.18112 -0.10182,-2.85096 z"
             id="path317" />
          <path
             d="m 574.20528,676.43531 v 9.24525 q -1.09965,0.14255 -1.95494,0.18328 -0.83492,0.0611 -1.38475,0.0611 -1.87349,0 -3.36006,-0.59055 -1.48657,-0.59056 -2.50477,-1.69022 -1.0182,-1.12002 -1.56803,-2.68804 -0.52947,-1.5884 -0.52947,-3.54334 0,-1.87349 0.5091,-3.44152 0.5091,-1.58839 1.50694,-2.72877 1.0182,-1.16075 2.52514,-1.79203 1.5273,-0.65165 3.52297,-0.65165 0.85529,0 1.46621,0.12218 0.63128,0.10182 1.22184,0.2851 0,0.32582 0,0.71274 0.0204,0.38691 0.0204,0.83492 0,0.44801 -0.0204,0.95711 0,0.5091 0,0.91638 -0.99784,-0.52946 -2.28077,-0.52946 -1.12002,0 -1.87349,0.38691 -0.75347,0.36655 -1.22184,0.95711 -0.44801,0.59056 -0.65165,1.32366 -0.18327,0.71274 -0.18327,1.38475 0,0.77383 0.224,1.50694 0.24437,0.7331 0.71274,1.30329 0.46837,0.5702 1.16075,0.91638 0.71274,0.34619 1.66985,0.34619 0.10182,0 0.18327,0 0.10182,0 0.20364,-0.0204 v -3.76734 z"
             id="path319" />
          <path
             d="m 586.09785,676.43531 v 9.24525 q -1.09966,0.14255 -1.95494,0.18328 -0.83493,0.0611 -1.38476,0.0611 -1.87348,0 -3.36006,-0.59055 -1.48657,-0.59056 -2.50477,-1.69022 -1.0182,-1.12002 -1.56803,-2.68804 -0.52946,-1.5884 -0.52946,-3.54334 0,-1.87349 0.5091,-3.44152 0.5091,-1.58839 1.50694,-2.72877 1.0182,-1.16075 2.52513,-1.79203 1.5273,-0.65165 3.52297,-0.65165 0.85529,0 1.46621,0.12218 0.63129,0.10182 1.22184,0.2851 0,0.32582 0,0.71274 0.0204,0.38691 0.0204,0.83492 0,0.44801 -0.0204,0.95711 0,0.5091 0,0.91638 -0.99783,-0.52946 -2.28077,-0.52946 -1.12002,0 -1.87348,0.38691 -0.75347,0.36655 -1.22184,0.95711 -0.44801,0.59056 -0.65165,1.32366 -0.18328,0.71274 -0.18328,1.38475 0,0.77383 0.22401,1.50694 0.24436,0.7331 0.71274,1.30329 0.46837,0.5702 1.16074,0.91638 0.71274,0.34619 1.66985,0.34619 0.10182,0 0.18328,0 0.10182,0 0.20364,-0.0204 v -3.76734 z"
             id="path321" />
          <path
             d="m 594.58963,685.76202 q -0.57019,-0.0204 -1.50693,-0.0407 -0.93675,0 -2.01604,-0.0204 -1.05893,0 -2.13822,0 -1.05893,0 -1.87349,0 0.0204,-0.42765 0.0204,-1.14039 0.0204,-0.71274 0.0204,-1.62912 0,-0.91638 0,-1.9753 0,-1.0793 0,-2.21968 0,-1.54766 -0.0204,-3.09533 0,-1.54766 0,-2.87132 0,-1.34403 -0.0204,-2.3215 0,-0.97747 0,-1.38475 0.7942,0 1.75131,0 0.9571,0 1.95494,0 0.99784,-0.0204 1.95494,-0.0407 0.95711,-0.0204 1.79204,-0.0407 0,0.26474 0,0.46838 0.0204,0.18327 0.0204,0.52946 0,0.24437 -0.0204,0.59056 0,0.32582 -0.0204,0.69237 0,0.34619 -0.0204,0.71274 0,0.34619 -0.0204,0.65165 h -4.09316 v 2.36222 h 3.5637 v 3.03424 h -3.5637 v 2.28077 h 4.15426 q 0.0204,0.46837 0.0407,0.95711 0.0204,0.48873 0.0204,1.09965 0.0204,0.61092 0.0204,1.44585 0,0.81456 0,1.95494 z"
             id="path323" />
          <path
             d="m 595.42457,669.10427 q 1.16075,-0.16291 2.21968,-0.22401 1.05893,-0.0815 1.81239,-0.0815 1.79204,0 3.29897,0.48873 1.50694,0.48874 2.64732,1.75131 1.03857,1.18111 1.54767,2.87132 0.5091,1.66985 0.5091,3.60443 0,1.89385 -0.48874,3.44152 -0.48874,1.54766 -1.50694,2.64732 -0.99783,1.09965 -2.52513,1.71057 -1.5273,0.61092 -3.60443,0.61092 -0.46837,0 -1.5273,-0.0407 -1.03856,-0.0407 -2.30113,-0.18327 0.0204,-0.93675 0.0204,-1.8124 0.0204,-0.89601 0.0204,-1.7513 0.0204,-0.87565 0.0204,-1.75131 0,-0.87565 0,-1.81239 0,-2.66769 -0.0407,-5.11137 -0.0204,-2.44368 -0.10182,-4.35789 z m 3.95062,3.07496 q -0.20364,0 -0.38692,0.0204 -0.16291,0.0204 -0.32582,0.0407 -0.0204,0.95711 -0.0204,1.91422 0,0.93674 0,1.89385 0,0.46837 0,0.99784 0.0204,0.52946 0.0204,1.09965 0.0204,0.54983 0.0407,1.12002 0.0204,0.54983 0.0204,1.03857 0.18328,0.0407 0.36655,0.0611 0.18328,0 0.32583,0 0.75346,0 1.38475,-0.32582 0.65165,-0.32583 1.12002,-0.87566 0.48873,-0.57019 0.75347,-1.32366 0.26473,-0.75346 0.26473,-1.60875 0,-0.63129 -0.18328,-1.34403 -0.16291,-0.7331 -0.59055,-1.32366 -0.40728,-0.59055 -1.09966,-0.97747 -0.67201,-0.40728 -1.69021,-0.40728 z"
             id="path325" />
        </g>
      </g>
    </g>
  </g>

</g><g id="Expression">
 <g id="layer60" transform="translate(19.4 11.241)">
  <g id="layer32">
   <g id="layer38">
    <g id="g18-1" transform="matrix(4.1461 0 0 4.1461 114.51 46.945)">
     <path id="path12-7" d="m112.84 127.91c1.4199-0.14723 3.1239-0.96839 3.8188-2.6527-0.053-0.0526-0.12459-0.082-0.19922-0.082l1.1e-4 4e-5c-0.0752 9.8e-4 -0.14689 0.0319-0.19922 0.0859-1.1802 1.1979-2.3629 1.772-3.4812 1.9724m0 0c-1.1193 0.20056-2.174 0.0268-3.0969-0.27059-1.8449-0.59442-2.0201-1.0421-2.8802-1.5809-0.2319-0.14528-0.63419-0.61353-0.74114-0.50065-0.10644 0.11339-0.0246 0.56234 0.12132 0.78212 0.73164 1.1019 1.3951 1.4432 3.3779 2.082 0.97013 0.31257 2.0931 0.42658 3.2798 0.16443" color="#000000" stroke-linecap="round" style="-inkscape-stroke:none;mix-blend-mode:normal"/>
     <path id="path14-4" d="m106.3 125.08c-0.25155-0.89259 0.54269-1.9097 1.111-2.2996s0.95459-0.65861 1.5761-0.12919 0.40548 2.6275 0.25838 3.3073 0.13376 0.87559-0.49092 1.0335-2.2031-1.0194-2.4546-1.912z" fill="url(#linearGradient9180)" stroke="#000" stroke-width=".26458px" style="mix-blend-mode:normal"/>
     <path id="path16-6" transform="matrix(.85956 0 0 1.3073 15.09 -38.9)" d="m107.28 126.56c0.0901-0.38231-0.0157-1.1471 0.54736-1.5004" fill="none" filter="url(#filter8911)" stroke="#000" stroke-width=".26458px" style="mix-blend-mode:normal"/>
    </g>
   </g>
  </g>
 </g>

</g></svg>