<?xml version="1.0" encoding="UTF-8" standalone="no"?>
<svg
   width="1200mm"
   height="1200mm"
   viewBox="0 0 1200 1200"
   version="1.1"
   id="svg5"
   sodipodi:docname="Peep.svg"
   inkscape:version="1.1 (c68e22c387, 2021-05-23)"
   inkscape:export-xdpi="96"
   inkscape:export-ydpi="96"
   xmlns:inkscape="http://www.inkscape.org/namespaces/inkscape"
   xmlns:sodipodi="http://sodipodi.sourceforge.net/DTD/sodipodi-0.dtd"
   xmlns:xlink="http://www.w3.org/1999/xlink"
   xmlns="http://www.w3.org/2000/svg"
   xmlns:svg="http://www.w3.org/2000/svg">
  <sodipodi:namedview
     id="namedview7"
     pagecolor="#ffffff"
     bordercolor="#666666"
     borderopacity="1.0"
     inkscape:pageshadow="2"
     inkscape:pageopacity="0.0"
     inkscape:pagecheckerboard="0"
     inkscape:document-units="mm"
     showgrid="false"
     inkscape:zoom="2"
     inkscape:cx="396.25"
     inkscape:cy="428.75"
     inkscape:window-width="1920"
     inkscape:window-height="1001"
     inkscape:window-x="-9"
     inkscape:window-y="-9"
     inkscape:window-maximized="1"
     inkscape:current-layer="layer4"
     inkscape:snap-grids="true"
     showguides="false" />
<defs>

  <filter id="filter26279" x="-.11856" y="-.11339" width="1.2371" height="1.2268" color-interpolation-filters="sRGB">
   <feGaussianBlur id="feGaussianBlur26281" stdDeviation="0.25657396"/>
  </filter>
  <filter id="filter26275" x="-.077338" y="-.079673" width="1.1547" height="1.1593" color-interpolation-filters="sRGB">
   <feGaussianBlur id="feGaussianBlur26277" stdDeviation="0.25657396"/>
  </filter>
  <filter id="filter26271" x="-.14464" y="-.14914" width="1.2893" height="1.2983" color-interpolation-filters="sRGB">
   <feGaussianBlur id="feGaussianBlur26273" stdDeviation="0.25657396"/>
  </filter>
  <filter id="filter26267" x="-.0879" y="-.085795" width="1.1758" height="1.1716" color-interpolation-filters="sRGB">
   <feGaussianBlur id="feGaussianBlur26269" stdDeviation="0.25657396"/>
  </filter>
  <filter id="filter26283" x="-.06013" y="-.067293" width="1.1203" height="1.1346" color-interpolation-filters="sRGB">
   <feGaussianBlur id="feGaussianBlur26285" stdDeviation="0.25657396"/>
  </filter>
  <filter id="filter26291" x="-.084013" y="-.086678" width="1.168" height="1.1734" color-interpolation-filters="sRGB">
   <feGaussianBlur id="feGaussianBlur26293" stdDeviation="0.25657396"/>
  </filter>
  <filter id="filter26287" x="-.1486" y="-.12645" width="1.2972" height="1.2529" color-interpolation-filters="sRGB">
   <feGaussianBlur id="feGaussianBlur26289" stdDeviation="0.25657396"/>
  </filter>
  <filter id="filter26263" x="-.12049" y="-.13303" width="1.241" height="1.2661" color-interpolation-filters="sRGB">
   <feGaussianBlur id="feGaussianBlur26265" stdDeviation="0.25657396"/>
  </filter>
  <filter id="filter26299" x="-.12161" y="-.13521" width="1.2432" height="1.2704" color-interpolation-filters="sRGB">
   <feGaussianBlur id="feGaussianBlur26301" stdDeviation="0.25657396"/>
  </filter>
  <filter id="filter26295" x="-.11966" y="-.1087" width="1.2393" height="1.2174" color-interpolation-filters="sRGB">
   <feGaussianBlur id="feGaussianBlur26297" stdDeviation="0.25657396"/>
  </filter>
  <filter id="filter26315" x="-.16548" y="-.17789" width="1.331" height="1.3558" color-interpolation-filters="sRGB">
   <feGaussianBlur id="feGaussianBlur26317" stdDeviation="0.25657396"/>
  </filter>
  <filter id="filter26311" x="-.20433" y="-.17496" width="1.4087" height="1.3499" color-interpolation-filters="sRGB">
   <feGaussianBlur id="feGaussianBlur26313" stdDeviation="0.25657396"/>
  </filter>
  <filter id="filter26307" x="-.22335" y="-.22219" width="1.4467" height="1.4444" color-interpolation-filters="sRGB">
   <feGaussianBlur id="feGaussianBlur26309" stdDeviation="0.25657396"/>
  </filter>
  <filter id="filter26303" x="-.1062" y="-.10781" width="1.2124" height="1.2156" color-interpolation-filters="sRGB">
   <feGaussianBlur id="feGaussianBlur26305" stdDeviation="0.25657396"/>
  </filter>
  <filter id="filter26331" x="-.08274" y="-.088946" width="1.1655" height="1.1779" color-interpolation-filters="sRGB">
   <feGaussianBlur id="feGaussianBlur26333" stdDeviation="0.25657396"/>
  </filter>
  <filter id="filter26327" x="-.092411" y="-.071157" width="1.1848" height="1.1423" color-interpolation-filters="sRGB">
   <feGaussianBlur id="feGaussianBlur26329" stdDeviation="0.25657396"/>
  </filter>
  <filter id="filter26323" x="-.14032" y="-.13897" width="1.2806" height="1.2779" color-interpolation-filters="sRGB">
   <feGaussianBlur id="feGaussianBlur26325" stdDeviation="0.25657396"/>
  </filter>
  <filter id="filter26319" x="-.090771" y="-.097718" width="1.1815" height="1.1954" color-interpolation-filters="sRGB">
   <feGaussianBlur id="feGaussianBlur26321" stdDeviation="0.25657396"/>
  </filter>
 
  <linearGradient id="linearGradient19129">
   <stop id="stop3" stop-color="#fff" stop-opacity=".72874" offset="0"/>
   <stop id="stop5" stop-color="#fff" stop-opacity="0" offset="1"/>
  </linearGradient>
  <linearGradient id="linearGradient17791" x1="-9.5396" x2="4.5847" y1="-122.65" y2="-137.45" gradientUnits="userSpaceOnUse" xlink:href="#linearGradient19129"/>
  <linearGradient id="linearGradient20078" x1="-51.461" x2="-44.815" y1="-156.35" y2="-165.9" gradientUnits="userSpaceOnUse" xlink:href="#linearGradient19129"/>
  <linearGradient id="linearGradient20080" x1="-37.451" x2="-29.989" y1="-160.29" y2="-169.21" gradientUnits="userSpaceOnUse" xlink:href="#linearGradient19129"/>
  <filter id="filter22322-2" x="-.015979" y="-.033658" width="1.0287" height="1.0605" color-interpolation-filters="sRGB">
   <feGaussianBlur id="feGaussianBlur20-2" stdDeviation="0.23358464"/>
  </filter>
  <linearGradient id="linearGradient102788" x1="123.66" x2="114.77" y1="91.869" y2="114.29" gradientTransform="matrix(4.1461 0 0 4.1461 114.51 46.948)" gradientUnits="userSpaceOnUse">
   <stop id="stop8" offset="0"/>
   <stop id="stop10" stop-opacity="0" offset="1"/>
  </linearGradient>
  <linearGradient id="linearGradient9727" x1="-8.2966" x2="2.9334" y1="-123.86" y2="-135.57" gradientUnits="userSpaceOnUse">
   <stop id="stop13" stop-color="#fff" stop-opacity=".72874" offset="0"/>
   <stop id="stop15" stop-color="#fff" stop-opacity="0" offset="1"/>
  </linearGradient>
 
  <filter id="filter36802" x="-.004896" y="-.0023044" width="1.0098" height="1.0046" color-interpolation-filters="sRGB">
   <feGaussianBlur id="feGaussianBlur36804" stdDeviation="0.059796482"/>
  </filter>
  <filter id="filter36806" x="-.032337" y="-.005391" width="1.0639" height="1.0122" color-interpolation-filters="sRGB">
   <feGaussianBlur id="feGaussianBlur36808" stdDeviation="0.059796482"/>
  </filter>
  <filter id="filter37234" x="-.040474" y="-.024056" width="1.0709" height="1.0407" color-interpolation-filters="sRGB">
   <feGaussianBlur id="feGaussianBlur37236" stdDeviation="0.059796482"/>
  </filter>
  <filter id="filter53958" x="-.021696" y="-.018232" width="1.0434" height="1.0365" color-interpolation-filters="sRGB">
   <feGaussianBlur id="feGaussianBlur53960" stdDeviation="0.059796482"/>
  </filter>
  <filter id="filter53962" x="-.038902" y="-.011815" width="1.0767" height="1.0245" color-interpolation-filters="sRGB">
   <feGaussianBlur id="feGaussianBlur53964" stdDeviation="0.059796482"/>
  </filter>
  <filter id="filter53966" x="-.0034435" y="-.013859" width="1.0069" height="1.0277" color-interpolation-filters="sRGB">
   <feGaussianBlur id="feGaussianBlur53968" stdDeviation="0.059796482"/>
  </filter>
  <filter id="filter53970" x="-.026915" y="-.0084294" width="1.0538" height="1.0169" color-interpolation-filters="sRGB">
   <feGaussianBlur id="feGaussianBlur53972" stdDeviation="0.059796482"/>
  </filter>
  <filter id="filter53974" x="-.024692" y="-.005682" width="1.0494" height="1.0114" color-interpolation-filters="sRGB">
   <feGaussianBlur id="feGaussianBlur53976" stdDeviation="0.059796482"/>
  </filter>
  <filter id="filter53978" x="-.018008" y="-.0055489" width="1.036" height="1.0111" color-interpolation-filters="sRGB">
   <feGaussianBlur id="feGaussianBlur53980" stdDeviation="0.059796482"/>
  </filter>
  <filter id="filter53982" x="-.011215" y="-.0052194" width="1.0224" height="1.0104" color-interpolation-filters="sRGB">
   <feGaussianBlur id="feGaussianBlur53984" stdDeviation="0.059796482"/>
  </filter>
  <filter id="filter53986" x="-.0045349" y="-.0025602" width="1.0091" height="1.0051" color-interpolation-filters="sRGB">
   <feGaussianBlur id="feGaussianBlur53988" stdDeviation="0.059796482"/>
  </filter>
  <filter id="filter53990" x="-.014101" y="-.03494" width="1.0282" height="1.0699" color-interpolation-filters="sRGB">
   <feGaussianBlur id="feGaussianBlur53992" stdDeviation="0.059796482"/>
  </filter>
 
  <filter id="filter25160-90" x="-.029955" y="-.031092" width="1.0599" height="1.0622" color-interpolation-filters="sRGB">
   <feGaussianBlur id="feGaussianBlur25162-3" stdDeviation="0.047869003"/>
  </filter>
  <filter id="filter25164-0" x="-.023847" y="-.072244" width="1.0477" height="1.1445" color-interpolation-filters="sRGB">
   <feGaussianBlur id="feGaussianBlur25166-6" stdDeviation="0.047869003"/>
  </filter>
  <filter id="filter25168-2" x="-.029594" y="-.046345" width="1.0592" height="1.0927" color-interpolation-filters="sRGB">
   <feGaussianBlur id="feGaussianBlur25170-9" stdDeviation="0.047869003"/>
  </filter>
  <filter id="filter25140-8" x="-.022331" y="-.024991" width="1.0447" height="1.05" color-interpolation-filters="sRGB">
   <feGaussianBlur id="feGaussianBlur25142-37" stdDeviation="0.047869003"/>
  </filter>
  <filter id="filter25144-55" x="-.022267" y="-.029619" width="1.0445" height="1.0592" color-interpolation-filters="sRGB">
   <feGaussianBlur id="feGaussianBlur25146-9" stdDeviation="0.047869003"/>
  </filter>
  <filter id="filter25148-0" x="-.041852" y="-.028948" width="1.0837" height="1.0579" color-interpolation-filters="sRGB">
   <feGaussianBlur id="feGaussianBlur25150-5" stdDeviation="0.047869003"/>
  </filter>
  <filter id="filter25152-14" x="-.017224" y="-.056427" width="1.0374" height="1.1187" color-interpolation-filters="sRGB">
   <feGaussianBlur id="feGaussianBlur25154-6" stdDeviation="0.047869003"/>
  </filter>
  <filter id="filter25136-9" x="-.040396" y="-.0068998" width="1.0842" height="1.0155" color-interpolation-filters="sRGB">
   <feGaussianBlur id="feGaussianBlur25138-3" stdDeviation="0.1605801"/>
  </filter>
  <filter id="filter25176-35" x="-.043135" y="-.018346" width="1.0837" height="1.0383" color-interpolation-filters="sRGB">
   <feGaussianBlur id="feGaussianBlur25178-48" stdDeviation="0.047869003"/>
  </filter>
  <linearGradient id="linearGradient27389-3" x1="96.445" x2="123.34" y1="230.35" y2="230.35" gradientTransform="matrix(4.1461 0 0 4.1461 133.91 58.188)" gradientUnits="userSpaceOnUse">
   <stop id="stop2-8" offset="0"/>
   <stop id="stop4-2" stop-opacity="0" offset=".53219"/>
   <stop id="stop6" stop-opacity=".40486" offset="1"/>
  </linearGradient>
  <filter id="filter25156-65" x="-.023558" y="-.0031682" width="1.0379" height="1.0063" color-interpolation-filters="sRGB">
   <feGaussianBlur id="feGaussianBlur25158-67" stdDeviation="0.047869003"/>
  </filter>
  <filter id="filter48371-3-3-6" x="-.3762" y="-.11261" width="1.7524" height="1.2252" color-interpolation-filters="sRGB">
   <feGaussianBlur id="feGaussianBlur12-6-9" stdDeviation="1.2069309"/>
  </filter>
 
  <filter id="filter8667-0" x="-.031008" y="-.010591" width="1.062" height="1.0212" color-interpolation-filters="sRGB">
   <feGaussianBlur id="feGaussianBlur29-7-9" stdDeviation="0.098933874"/>
  </filter>
  <filter id="filter5908-3" x="-.00045317" y="-.00033413" width="1.0009" height="1.0007" color-interpolation-filters="sRGB">
   <feGaussianBlur id="feGaussianBlur20-54" stdDeviation="0.073773287"/>
  </filter>
  <filter id="filter540481" x="-.01366" y="-.0058712" width="1.0273" height="1.0117" color-interpolation-filters="sRGB">
   <feGaussianBlur id="feGaussianBlur540483" stdDeviation="0.4101881"/>
  </filter>
 
  <filter id="filter83355-5-9-7" x="-.017303" y="-.053342" width="1.0346" height="1.1067" color-interpolation-filters="sRGB">
   <feGaussianBlur id="feGaussianBlur2-9-3-9" stdDeviation="0.23823084"/>
  </filter>
  <filter id="filter5543-6-5-2" x="-.0052051" y="-.0015182" width="1.0065" height="1.0051" color-interpolation-filters="sRGB">
   <feGaussianBlur id="feGaussianBlur15-9-9-3" stdDeviation="0.0045646585"/>
  </filter>
  <filter id="filter6257-4-1-2" x="-.01264" y="-.0043461" width="1.0206" height="1.0128" color-interpolation-filters="sRGB">
   <feGaussianBlur id="feGaussianBlur18-0-9-0" stdDeviation="0.020753834"/>
  </filter>
  <filter id="filter6257-8-7-3-3" x="-.03649" y="-.0052644" width="1.0778" height="1.0146" color-interpolation-filters="sRGB">
   <feGaussianBlur id="feGaussianBlur21-0-8-5" stdDeviation="0.087166883"/>
  </filter>
  <filter id="filter6257-8-1-6-4-4" x="-.00993" y="-.0026757" width="1.0199" height="1.0054" color-interpolation-filters="sRGB">
   <feGaussianBlur id="feGaussianBlur24-5-0-3" stdDeviation="0.0042469749"/>
  </filter>
 </defs>
<g id="Time">
 <g id="layer60" transform="translate(19.4 11.241)">
  <g id="layer253">
   <g id="layer255">
    <path id="path7155" d="m-19.4 588.76v-600h1200v1200h-1200v-600z" fill="#5bacc9" stroke-width=".2"/>
    <path id="path7147" d="m750.2 614.74c-140.93-49.316-336.86-57.415-479.43-41.854-124.58 13.598-288.49-94.412-288.49-94.412l0.16662-42.464v-447.25l1198.1 1.596v895.18s-280.15-228.11-430.4-270.79zm-615.02 33.357c-51.372-1.1752-104.64-13.331-154.58-34.506l1.0428-100.32c106.59 89.928 237.16 107.67 353.33 91.733 66.766-5.878 146.74-3.0129 209.21-1.2228-136.34 14.204-272.29 42.974-408.99 44.313z" fill="#5b97c9" stroke-width=".19938"/>
    <path id="path7143" d="m928.58 382.63c-154.38-91.95-319.38-99.591-480.65-96.141-125.45 1.9592-252.49 34.472-376.9-6.2949-52.627-18.844 34.029 0.14806 49.945-5.6724 179.47-5.1913 356.24-82.458 536.2-67.431 119.07 0.60965 239.44 26.121 350.79 104.38 58.402 35.296 116.57 73.221 171.15 124.71-0.034 45.182 1.4878 133.27 1.4878 133.27s-169.38-125.28-252.02-186.82zm251.72 4.9446c-162.86-128.82-340.55-217.89-520.23-211.73-136.7-5.6175-272.22 29.316-407.61 57.191-90.079 9.877-184.33 37.504-271.59-16.663l-0.26819-71.062c125.25 86.295 274.95 61.418 405.07 36.032 173.36-39.819 350.71-54.653 523.14 6.3123 93.71 32.615 185.57 92.851 272.1 163.64-0.05 11.427 0.2253 27.46-0.6046 36.287zm0.3022-88.22c-99.604-63.623-202.54-131.27-308.34-154.34-164.54-45.216-332.27-28.119-496.68 10.088-130.95 27.042-269.87 54.621-394.72-39.326l-0.0082-125.84c385.93 0.6255 813.85-2.8915 1199.7-0.06842v142.69c0 54.168 3.7097 119.81 1e-4 166.79z" fill="#5b77c9" stroke-width=".19965"/>
    <path id="path7153" d="m-17.932 1126.5 0.26197-57.836c83.721 49.381 184.94 66.09 272.71 58.041 138.26-6.8298 276.56-31.499 414.88-12.259 95.252 11.343 190.29 34.444 283.31 72.661-52.186 1.7542-104.45 3.768-155.73-16.092-147-36.998-298.24-38.068-444.73-18.285 103.95 6.5297 208 14.284 311.44 34.643-226.72 0.183-455.42 0.079-682.14 0.1081v-60.98zm1020.8 55.831c-127.24-85.701-264.65-99.231-399.33-97.897-196.94-8.3847-429.78 6.4191-622.9-78.857l-1.9918-30.729c189.13 85.272 416.16 70.065 609.17 76.75 139.02-1.8445 281.64 6.1779 413.14 94.946 20.395 13.954 106.28 49.419 40.418 40.935-12.737-2.0341-26.613 4.908-38.502-5.1491z" fill="#5cc9a0" stroke-width=".19938"/>
    <path id="path9827" d="m469.48 291.95c1.9881-7.0892-4.3236-1.9221 0 0z" fill="#5b77c9" stroke-width=".034938"/>
    <ellipse id="path22090" cx="1026.4" cy="293.83" rx="94.948" ry="94.699" fill="#fbf3c1" fill-rule="evenodd" style="paint-order:markers stroke fill"/>
    <ellipse id="path25489" transform="matrix(1.1701 0 0 1.3788 3.1092 20.494)" cx="969.69" cy="18.422" rx="3.3919" ry="3.1508" fill="#fffce9" fill-rule="evenodd" filter="url(#filter26319)" style="paint-order:markers stroke fill"/>
    <ellipse id="path25491" transform="matrix(1.1701 0 0 1.3788 3.1092 20.494)" cx="959.44" cy="65.892" rx="2.1942" ry="2.2155" fill="#fffce9" fill-rule="evenodd" filter="url(#filter26323)" style="paint-order:markers stroke fill"/>
    <ellipse id="path25493" transform="matrix(1.1701 0 0 1.3788 3.1092 20.494)" cx="970.75" cy="87.028" rx="3.3317" ry="4.3269" fill="#fffce9" fill-rule="evenodd" filter="url(#filter26327)" style="paint-order:markers stroke fill"/>
    <ellipse id="path25495" transform="matrix(1.1701 0 0 1.3788 3.1092 20.494)" cx="873.78" cy="85.038" rx="3.7212" ry="3.4615" fill="#fffce9" fill-rule="evenodd" filter="url(#filter26331)" style="paint-order:markers stroke fill"/>
    <ellipse id="path25497" transform="matrix(1.1701 0 0 1.3788 -21.446 100.01)" cx="771.97" cy="133.59" rx="2.899" ry="2.8558" fill="#fffce9" fill-rule="evenodd" filter="url(#filter26303)" style="paint-order:markers stroke fill"/>
    <ellipse id="path25499" transform="matrix(1.1701 0 0 1.3788 -21.446 100.01)" cx="762.92" cy="123.29" rx="1.3785" ry="1.3857" fill="#fffce9" fill-rule="evenodd" filter="url(#filter26307)" style="paint-order:markers stroke fill"/>
    <ellipse id="path25501" transform="matrix(1.1701 0 0 1.3788 -21.446 100.01)" cx="771.44" cy="165.98" rx="1.5068" ry="1.7598" fill="#fffce9" fill-rule="evenodd" filter="url(#filter26311)" style="paint-order:markers stroke fill"/>
    <ellipse id="path25503" transform="matrix(1.1701 0 0 1.3788 -21.446 100.01)" cx="749.12" cy="139.56" rx="1.8606" ry="1.7308" fill="#fffce9" fill-rule="evenodd" filter="url(#filter26315)" style="paint-order:markers stroke fill"/>
    <ellipse id="path25505" transform="matrix(1.1701 0 0 1.3788 -26.123 71.943)" cx="351.57" cy="27.405" rx="2.5731" ry="2.8324" fill="#fffce9" fill-rule="evenodd" filter="url(#filter26295)" style="paint-order:markers stroke fill"/>
    <ellipse id="path25507" transform="matrix(1.1701 0 0 1.3788 -26.123 71.943)" cx="333.41" cy="14.612" rx="2.5317" ry="2.2772" fill="#fffce9" fill-rule="evenodd" filter="url(#filter26299)" style="paint-order:markers stroke fill"/>
    <ellipse id="path25509" transform="matrix(1.1701 0 0 1.3788 -26.123 71.943)" cx="322.91" cy="41.573" rx="2.5554" ry="2.3144" fill="#fffce9" fill-rule="evenodd" filter="url(#filter26263)" style="paint-order:markers stroke fill"/>
    <ellipse id="path25511" transform="matrix(1.1701 0 0 1.3788 -26.123 71.943)" cx="271.03" cy="51.24" rx="2.0719" ry="2.4348" fill="#fffce9" fill-rule="evenodd" filter="url(#filter26287)" style="paint-order:markers stroke fill"/>
    <ellipse id="path25513" transform="matrix(1.1701 0 0 1.3788 -74.065 43.88)" cx="166.88" cy="18.579" rx="3.6648" ry="3.5521" fill="#fffce9" fill-rule="evenodd" filter="url(#filter26291)" style="paint-order:markers stroke fill"/>
    <ellipse id="path25515" transform="matrix(-.16858 0 0 .21213 59.794 202.59)" cx="16.581" cy="91.074" rx="5.1204" ry="4.5753" fill="#fffce9" fill-rule="evenodd" filter="url(#filter26283)" style="paint-order:markers stroke fill"/>
    <ellipse id="path25517" transform="matrix(.78717 0 0 .77407 145.86 207.75)" cx="126.58" cy="155.2" rx="3.5027" ry="3.5887" fill="#fffce9" fill-rule="evenodd" filter="url(#filter26267)" style="paint-order:markers stroke fill"/>
    <ellipse id="path25521" transform="matrix(1.1701 0 0 1.3788 80.004 114.75)" cx="85.552" cy="173.25" rx="2.1287" ry="2.0645" fill="#fffce9" fill-rule="evenodd" filter="url(#filter26271)" style="paint-order:markers stroke fill"/>
    <path id="ellipse162063" transform="matrix(1.2982 0 0 1.5147 82.543 91.66)" d="m137.16 186.39c0 2.0187 5e-3 3.8299-2.1796 4.0411-3.4935 0.33774-5.7826-2.0224-5.7826-4.0411s1.7824-3.6551 3.9811-3.6551 3.9811 1.6365 3.9811 3.6551z" fill="#fffce9" fill-rule="evenodd" filter="url(#filter26275)" stroke-dasharray="0.810761, 0.810761" stroke-linecap="round" stroke-linejoin="round" stroke-width=".20269" style="paint-order:markers stroke fill"/>
    <ellipse id="path25525" transform="matrix(1.3386 0 0 1.1829 71.729 148.25)" cx="164.35" cy="165.83" rx="2.5969" ry="2.7153" fill="#fffce9" fill-rule="evenodd" filter="url(#filter26279)" style="paint-order:markers stroke fill"/>
    <path id="ellipse272370" transform="matrix(1.1701 0 0 1.3788 -21.446 100.01)" d="m764.3 123.29a1.3785 1.3857 0 0 1-1.3785 1.3857 1.3785 1.3857 0 0 1-1.3785-1.3857 1.3785 1.3857 0 0 1 1.3785-1.3857 1.3785 1.3857 0 0 1 1.3785 1.3857z" fill="#fffce9" fill-rule="evenodd" filter="url(#filter26307)" stroke-dasharray="1.31809, 1.31809" stroke-linecap="round" stroke-linejoin="round" stroke-width=".32952" style="paint-order:markers stroke fill"/>
    <path id="ellipse272372" transform="matrix(1.1701 0 0 1.3788 -21.446 100.01)" d="m750.98 139.56a1.8606 1.7308 0 0 1-1.8606 1.7308 1.8606 1.7308 0 0 1-1.8606-1.7308 1.8606 1.7308 0 0 1 1.8606-1.7308 1.8606 1.7308 0 0 1 1.8606 1.7308z" fill="#fffce9" fill-rule="evenodd" filter="url(#filter26315)" stroke-dasharray="1.06, 1.06" stroke-linecap="round" stroke-linejoin="round" stroke-width=".265" style="paint-order:markers stroke fill"/>
   </g>
  </g>
 </g>

</g><g id="District">
 <g id="layer60" transform="translate(19.4 11.241)">
  <g id="layer23">
   <g id="layer261">
    <path id="path151249" d="m1183.6 532.81c0.5881-42.519-62.327-59.35-104.75-62.313-35.386-2.4711-54.206-5.0128-84.502 13.437-42.616 25.952-92.09 95.354-137.3 116.46-50.72 23.673-109.5 2.6777-164.09 15.025-30.524 6.9032-60.881 23.078-88.47 37.85-31.246 16.73-92.982 38.735-83.993 73.02 55.89 213.19 656.21 305.53 659.26 85.162z" fill="#e29755"/>
    <path id="path156496" d="m1054.2 465.01s-38.612 9.2188-56.017 21.291c-40.435 28.046-60.22 82.268-98.599 113.07-16.824 13.502-36.987 22.981-57.464 29.766-47.054 15.59-98.733 11.715-146.76 23.978-23.352 5.9625-68.213 28.525-68.213 28.525l52.917-4.5475s58.291-10.922 87.23-17.363c38.235-8.511 106.03-26.321 141.18-43.615 43.641-21.474 57.95-59.629 99.219-85.369 27.04-16.865 47.033-31.278 74.207-31.006 44.858 0.44853 58.794 15.999 69.453 19.017 3.084 0.8731 8.957 4.8955 5.7878 5.3744-34.022 5.1406-60.944 7.8674-85.99 22.738-28.322 16.815-52.666 39.602-79.788 58.291-23.133 15.941-43.087 40.676-70.693 45.889-52.024 9.8237-131.43 51.741-124.85 58.704l26.872 9.7152s30.312-15.039 42.168-18.19c34.854-9.2629 69.68-19.36 100.46-37 30.281-17.354 50.414-48.951 79.788-67.799 28.797-18.478 53.587-30.936 86.61-39.894 14.293-3.8774 50.894-7.1951 50.894-7.1951l-2.7318 76.855s-47.416 2.5512-69.867 9.5085c-27.844 8.6287-46.328 23.663-72.14 37.207-22.117 11.605-47.332 32.678-71.727 38.034-28.94 6.3534-79.163 12.772-74.414 14.883l33.486 11.162s43.729-8.6956 66.146-17.983c25.305-10.484 50.316-29.737 74.827-41.961 25.9-12.917 52.227-26.613 80.615-32.246 12.031-2.3871 33.766-0.41342 33.766-0.41342v6.2012s-42.062 1.0404-73.66 16.95c-22.378 11.267-68.583 46.189-90.744 57.878-14.994 7.9088-48.369 15.71-48.369 15.71l45.475 4.9609s48.243-33.57 74.414-46.715c24.835-12.474 37.348-23.184 64.699-28.112 17.971-3.2378 29.559 0.82682 29.559 0.82682l-1.6536-164.12-62.838-45.062-73.174-4.1341c-53.813-4.4316-155.73 99.34-186.86 131.05-40.553 41.306-116.56 8.8544-171.57 26.872-50.138 16.421-152.14 86.816-152.14 86.816l69.867-15.296s29.578-29.751 46.302-37.207c24.301-10.835 51.425-14.135 77.721-18.19 30.459-4.6968 63.111 3.1797 92.191-7.028 29.285-10.28 61.277-25.683 76.895-52.503 35.283-60.593 151.09-117.45 157.51-108.31z" fill="#dc8f4c"/>
    <path id="path147103" d="m1059.5 454.27c-53.576 0.50811-93.858 31.85-128.8 65.008-34.942 33.158-65.567 68.21-97.803 80.152-22.509 8.3392-46.034 8.4316-70.773 7.5411-24.739-0.89045-50.592-2.7949-77.031 2.9099-91.499 19.743-159.2 88.881-159.2 88.881l10.679 10.533s65.798-66.22 151.69-84.752c23.758-5.1264 48.241-3.4847 73.328-2.5818 25.087 0.90297 50.879 1.0356 76.523-8.4651 38.004-14.08 68.727-50.895 102.92-83.338 30.488-28.931 62.927-54.307 103.49-59.787-24.486 10.77-44.012 29.952-61.804 50.365-25.391 29.13-48.169 61.11-77.133 78.924-23.766 14.617-59.126 23.266-91.932 34.918s-64.125 26.772-77.227 57.404l13.793 5.9004c10.352-24.202 36.728-37.901 68.455-49.17 31.726-11.269 67.735-19.648 94.769-36.275 32.685-20.103 55.906-53.536 80.58-81.844 24.674-28.308 49.902-51.123 85.979-53.906 14.38-1.1093 38.28 11.727 57.293 25.971 7.5487 5.6552 14.331 11.332 19.838 16.171-5.3173-0.1896-10.932-0.29292-16.446-0.13386-6.4677 0.18667-12.766 0.72576-18.182 1.8847-88.41 18.917-135.02 85.498-186.55 110.99-29.123 14.409-57.495 21.193-85.337 32.293-27.842 11.1-55.051 26.864-79.735 58.719l11.856 9.1876c22.921-29.58 46.944-43.412 73.434-53.973 26.489-10.56 55.55-17.501 86.436-32.783 57.216-28.309 100.71-92.155 183.04-109.77 7.7634-1.6612 21.929-1.8192 33.619-1.3322 11.69 0.48704 22.451 1.4594 22.451 1.4594l-0.6235-7.1091 1.0282-18.612c-5.83-7.0126-19.766-17.797-31.012-26.797-22.491-18-51.36-28.969-91.592-28.588z" color="#000000" fill="#d9843a" style="-inkscape-stroke:none"/>
    <path id="path188607" d="m-19.4 677.48 57.296-53.788 98.222-35.079 111.08 12.862 72.497 24.555 147.33 86.529 80.682-14.032 112.25-16.37 77.174 2.3386 109.91 29.233 112.25 32.741 78.343 7.0158 142.95-15.201v450.48h-1200z" fill="#ce7527"/>
    <path id="path186469" d="m-18.23 855.21 86.529-29.233 109.91-2.3386 152.01 47.941 224.51 119.27 118.1 63.142-85.359-6.4312-99.391-64.896-121.61-81.851s-68.103-39.266-134.47-51.449c-61.082-11.213-122.74-24.883-250.23 26.894-46.37 18.832 0-21.047 0-21.047z" fill="#c56e22"/>
    <path id="path186471" d="m704.4 1044.6-88.867-34.202 97.052 15.493 35.079 15.201z" fill="#c56e22"/>
    <path id="path172429" d="m68.298 610.83c286.42-45.263 343.81 245.55 623.44 248.86 0 0 135.76-6.6128 196.66 10.039 51.972 14.211 135.21 74.351 135.21 74.351l42.095-44.434s-92.839-44.679-142.6-57.685c-98.092-25.641-211.82-12.81-313.11-17.209-112.71-4.8952-318.01-168.62-309.59-173.3l-149.1-59.337z" fill="#c46e21"/>
    <path id="path183945" d="m476.69 705.2s10.335 10.335 100.05 27.699c89.71 17.363 263.84 5.8521 322.46 20.671 35.967 9.0923 167.02 19.844 232.75 100.87 65.732 81.029-35.14 16.536-35.14 16.536l-78.962-42.581-111.62-44.235-136.43-9.0951-191.82-14.469-106.97-41.755-31.936-17.363z" fill="#c56e22"/>
    <path id="path168520" transform="matrix(.26458 0 0 .26458 -19.4 -11.241)" d="m709.98 2236c-145.07 1.8592-276.44 40.973-387.38 93.389-1.636 0.5596-3.2569 1.0169-4.8945 1.5879l0.2168 0.6231c-56.428 26.99-107.59 57.31-152.28 87.951-71.109 48.753-126.27 98.127-162.35 136.49-18.041 19.182-31.219 35.342-39.928 48.838-4.3542 6.7481-7.7787 12.164-10.15 20.973-1.1858 4.4045-2.9271 10.246 0.25781 19.887 3.1849 9.6405 16.058 19.445 24.84 20.699l8.0176-56.125c6.7755 0.968 18.359 9.7365 20.971 17.643s1.0132 11.318 0.6582 12.637c-0.71003 2.6373 0.29788-0.7233 3.041-4.9746 5.4863-8.5025 17.135-23.23 33.596-40.732 32.922-35.005 85.466-82.208 153.1-128.58 42.934-29.436 91.955-58.499 145.98-84.211 283.92-96.038 536.96-9.6251 822.96 151.58 288.46 162.59 358.83 373.34 881.54 573.36 204.59 78.286 540.6 114.23 758.01 105.34 217.41-8.8916 431.85-10.499 634.44 19.281 241.46 35.494 530.6 228.05 511.91 235.23l52.955-47.008c25.174 5.3254-162.2-151.27-551.87-243.4-274.41-64.882-434.18-29.567-649.76-20.75s-495.05-15.427-685.96-84.223c-461.22-166.21-577.23-397.66-904.7-591.9-163.48-96.971-447.49-196.84-460.86-186.34 285.98 8.5415 576.74 183.23 871.33 353.55 418.56 248.81 703.04 315.15 1031.4 329.26 490.56 15.884 662.17 13.923 960.69 102.69 206.25 61.329 583.57 284.45 583.57 284.45l29.004-48.705s-372.85-223.6-596.42-290.08c-304.49-90.54-485.02-89.151-975.01-105.02-304.15-9.8479-551.35-76.082-753.17-170.44 99.706 7.9749 176.7-34.013 279.85-54.883 178.14-36.04 384.43-61.179 547.34-47.346 255.89 21.728 505.56 109.42 760.16 180.93 471.43 135.14 723.35 232.77 1064 241.2l2.4004-56.648c-269.94-11.427-441.16-47.111-585.14-89.975 16.705 1.2435 33.441 2.306 50.244 2.9941 211.89 8.6772 574.9-69.088 574.9-69.088l-11.693-55.475s-366.01 75.895-560.89 67.914c-430.84-17.644-842.73-240.44-1289.2-278.35-177.95-15.11-396.35 22.268-571.19 57.642-174.85 35.374-303.29 68.847-442.56-9.873-320.21-180.99-612.55-387.12-967.4-401.4-15.026-0.6045-29.916-0.8024-44.668-0.6133zm-147.83 868.15c-122.64 0.5869-233.47 19.468-325.55 44.852-73.66 20.307-135.33 44.765-181.89 67.678-46.556 22.912-76.383 41.112-93.994 61.846l43.205 36.701c3.599-4.2371 32.742-26.479 75.82-47.68s101.71-44.53 171.92-63.889c140.44-38.717 327.17-61.595 531.89-22.566 239.26 45.615 466.2 183.6 682.61 301.94 380.35 222.28 688.03 481.35 970.95 596.67l20.617-52.811c-179.89-70.25-405.46-216.25-607.64-356.31 242.55 111.69 434.82 178.7 696.59 230.84 218.59 43.542 647.64 22.611 647.64 22.611l-2.584-56.635s-433.35 18.39-633.99-21.576c-341.85-68.094-671.29-206.39-982.38-368.57-237.03-123.57-495.35-297.35-781.19-351.84-80.599-15.366-158.44-21.596-232.03-21.244z" color="#000000" fill="#c0691d" stroke-width="3.7795"/>
    <path id="path192304" d="m-19.4 983.84 107.58-33.91 135.64-1.1693 158.44 33.325 178.32 56.711 154.35 15.201 95.883-31.571 129.79-73.666 166.04-78.343 73.96-23.386v341.73h-1200z" fill="#ab5f1c"/>
    <path id="path194192" d="m1180.6 874.29c0.8021-0.3278-32.253-23.629-291.32 133.95 144.74-51.168 220.21-111.13 291.32-104.18v49.609c-3.2349-9.7048-92.407 22.918-246.67 74.414-161.04 53.759-250.53 26.458-250.53 26.458l141.39-35.553 114.93-65.319 86.816-55.397 154.07-52.917z" fill="#a15917"/>
    <path id="path195861" d="m400.63 991.7s114.93 76.068 314.19 111.62 331.2 85.443 284.43 85.443h-33.9s-77.721-49.062-280.29-68.906c-202.57-19.844-340.37-145.68-340.37-145.68z" fill="#a15917"/>
    <path id="path195896" d="m298.93 966.06s213.32 157.1 392.74 166.19c126.05 6.3895 203.54 38.216 238.48 56.504h-129.42l-23.902-11.029-219.11-21.497-155.44-59.531-103.35-75.241-127.33-71.934z" fill="#a15917"/>
    <path id="path203201" d="m-19.4 1094.2 65.319-13.229 103.35 17.363 126.5 53.744 62.012 36.66h-357.19z" fill="#a15917"/>
    <path id="path197044" transform="matrix(.26458 0 0 .26458 -19.4 -11.241)" d="m4535.4 3220c-33.81 1.7649-79.755 5.6199-166.15 33.447-86.391 27.828-212.9 79.456-411.53 177.33-185.05 91.183-393.86 240.65-670.2 393.78-282.89 156.76-560.95 187.27-823.16 159.16-11.955-1.9325-23.949-3.8725-37.979-6.461-120.83-22.294-323.37-71.429-649.66-172.83-173.68-62.054-331.81-121.61-467.95-146.48-47.514-8.6803-95.078-16.564-142.64-23.859-136.61-24.44-263.78-35.877-380.39-38.326-268.06-10.162-532.25 20.639-785.79 125.94v78.483s123.11-58.694 292.7-98.916 373.46-59.276 507.5 9.7734c141.06 72.665 355.58 235.45 598.25 389.83 242.67 154.38 514.61 301.29 780.44 342.19 260.23 40.036 468.18 47.828 634.6 61.01 92.249 7.3068 171.31 14.928 239.6 31.408h158.26c-105.45-58.403-233.37-75.25-393.38-87.923-168.35-13.334-373.62-21.018-630.46-60.531-251.25-38.654-518.48-181.21-758.63-333.99-240.15-152.77-452.09-314.8-602.72-392.4-4.7309-2.4372-9.6411-4.5287-14.496-6.7266 113.61 5.5106 228.21 18.244 343.33 35.818 116.36 20.741 239.79 51.057 369.7 93.75 66.673 21.911 128.28 41.63 187.07 60.148 225.4 81.676 485.88 173.5 766.2 199.58 40.531 5.9146 69.763 8.4047 89.619 8.9179 566.54 22.948 998.1-32.91 1421.8-230.34 228.12-111.6 428.6-153.99 546.08-164.24v-56.882c-126.58 10.285-329.28 45.635-564.74 160.82-322.39 157.72-668.24 219.84-948.39 234.77 96.789-27.909 194.55-67.696 292.74-122.11 279.4-154.82 489.71-304.77 667.78-392.52 197.14-97.143 321.59-147.72 403.85-174.22 82.261-26.497 116.05-29.081 148.76-30.789zm-4296.6 888.78c-7.2247 0.025-14.332 0.1162-21.32 0.2715-83.859 1.8633-150.67 12.823-199.87 24.892-5.6163 1.3779-12.437 2.7774-17.617 4.1847v59.426c9.3085-2.7887 19.413-5.6766 31.127-8.5506 60.502-14.844 151.69-28.355 272.85-21.879 227.01 12.134 559.61 91.07 992.12 368.35h101.32c-473.52-318.79-840.08-411.58-1090.4-424.96-23.79-1.2716-46.527-1.806-68.201-1.7324z" color="#000000" fill="#965013" style="-inkscape-stroke:none"/>
    <ellipse id="ellipse206740" cx="567.23" cy="1162.4" rx="139.32" ry="19.844" fill="#894b15" fill-rule="evenodd" opacity=".74589" style="paint-order:fill markers stroke"/>
    <path id="path208555" d="m279.23 799.51c5.5202 8.3637-9.193 16.504-25.085 12.665-9.5433-2.3054-16.088-5.1464-14.269-13.396 1.6065-7.2849 8.4394-18.662 17.484-18.804 9.176-0.14385 17.223 12.496 21.869 19.535z" fill="#ae957e" fill-rule="evenodd" stroke="#a58a70" stroke-linecap="round" stroke-linejoin="round" stroke-width="4" style="paint-order:fill markers stroke"/>
    <path id="path214689" d="m242.96 807.27s-0.0249-10.782 14.032-8.039c9.9895 1.9495 11.965-12.988 10.67-15.055" fill="none" stroke="#a58a70" stroke-width="4"/>
    <path id="path208555-5" d="m215.27 782.85c0.16246 7.2591-4.557 7.8188-15.971 8.3718-6.9673 0.33756-11.962-2.7944-12.295-8.9139-0.30034-5.5175 6.2215-10.446 12.705-10.879 6.9139-0.46214 15.367 2.7398 15.562 11.421z" fill="#ae957e" fill-rule="evenodd" stroke="#a58a70" stroke-linecap="round" stroke-linejoin="round" stroke-width="2.9197" style="paint-order:fill markers stroke"/>
    <path id="path214689-7" d="m192.14 774.14s-2.8352 9.8211 7.4475 10.407c8.8257 0.50293 15.05 4.5292 13.072 3.595" fill="none" stroke="#a58a70" stroke-width="2.9197"/>
    <path id="path208555-0" d="m656.98 975.43c-7.4094 11.007 4.806 19.259 24.669 15.371 9.6349-1.8861 19.002-2.3366 17.183-10.586-1.6065-7.2849-10.521-20.431-19.566-20.573-9.176-0.14385-17.576 8.7918-22.286 15.789z" fill="#ae957e" fill-rule="evenodd" stroke="#a58a70" stroke-linecap="round" stroke-linejoin="round" stroke-width="4" style="paint-order:fill markers stroke"/>
    <path id="path214689-6" d="m690.44 988.08s2.7273-8.8523-11.222-12.098c-14.881-3.4619-11.861-10.802-10.566-12.869" fill="none" stroke="#a58a70" stroke-width="4"/>
    <path id="path208555-0-4" d="m824.53 1090.2c-4.8398 5.4178-3.1517 12.9 3.5919 16.294 6.1026 3.0713 15.542 1.4854 24.436 1.5226 5.506 0.023 11.431-2.4724 14.817-5.4404 2.6517-2.3242 3.341-6.2459 2.5421-9.869-0.49215-2.2318-3.6601-5.1978-5.8322-8.4469-4.9182-7.3564-11.412-15.557-17.686-15.655-4.2766-0.067-10.611 2.6255-14.211 7.0998-4.124 5.126-4.6582 11.137-7.6584 14.496z" fill="#856549" fill-rule="evenodd" stroke="#7b5f48" stroke-linecap="round" stroke-linejoin="round" stroke-width="4" style="paint-order:fill markers stroke"/>
    <path id="path214689-6-2" d="m852.26 1108.6s11.651-11.665-7.2617-17.016c-9.7935-2.771-14.319-13.576-13.025-15.644" fill="none" stroke="#7b5f48" stroke-width="4"/>
    <path id="path208555-0-1" d="m892.67 1133.8c-2.04 9.8113 13.019 17.24 28.911 13.401 9.5433-2.3054 13.15-2.0192 8.8234-9.2753-4.2556-7.1378-15.209-20.87-24.254-21.012-9.176-0.1439-11.925 9.405-13.48 16.886z" fill="#856549" fill-rule="evenodd" stroke="#7b5f48" stroke-linecap="round" stroke-linejoin="round" stroke-width="4" style="paint-order:fill markers stroke"/>
    <path id="path214689-6-9" d="m926.44 1146.5s0.17207-8.2801-9.0278-9.2162c-10.126-1.0303-23.297-11.369-22.002-13.436" fill="none" stroke="#7b5f48" stroke-width="4"/>
    <path id="path208555-0-0" d="m865 757.58c-5.5202 8.3637 9.9288 14.15 20.67 12.96 9.7581-1.081 20.224-4.3684 15.446-11.336-3.4891-5.0885-11.013-15.463-19.839-15.861-9.1679-0.41302-11.631 7.1975-16.277 14.237z" fill="#ae957e" fill-rule="evenodd" stroke="#a58a70" stroke-linecap="round" stroke-linejoin="round" stroke-width="4" style="paint-order:fill markers stroke"/>
    <path id="path214689-6-6" d="m897.45 767.11s-1.4468-9.1633-15.503-6.42c-9.9895 1.9495-13.289-6.3648-12.289-10.492" fill="none" stroke="#a58a70" stroke-width="4"/>
    <path id="path208555-0-40" d="m919.16 739.33c-8.8434 10.025 8.8463 24.331 26.851 19.435 9.4738-2.5759 21.002 3.398 24.718-7.2149 1.8222-5.2049-2.4154-11.239-6.541-17.341-5.6677-8.3838-12.952-16.245-20.657-16.327-9.1767-0.0977-18.792 15.123-24.371 21.448z" fill="#ae957e" fill-rule="evenodd" stroke="#a58a70" stroke-linecap="round" stroke-linejoin="round" stroke-width="4" style="paint-order:fill markers stroke"/>
    <path id="path214689-6-5" d="m954.25 722.96s6.6526 22.164-9.0278 23.897c-14.42 1.5938-19.029 4.6731-23.327 9.8173" fill="none" stroke="#a58a70" stroke-width="4"/>
    <path id="path214689-6-5-2" d="m962.59 732.18s5.1163 21.06-9.0278 23.309c-7.6348 1.2137-16.998 3.3417-16.998 3.3417" fill="none" stroke="#a58a70" stroke-width="4"/>
    <path id="path208555-0-46" d="m1050.4 449.7c-2.2087 9.7623 7.4269 14.297 19.198 12.077 9.6477-1.8196 10.054-3.6747 8.2347-11.924-1.6065-7.2849-9.1772-13.864-14.982-14.095-5.6413-0.22398-11.339 9.0301-12.45 13.942z" fill="#ae957e" fill-rule="evenodd" stroke="#a58a70" stroke-linecap="round" stroke-linejoin="round" stroke-width="4" style="paint-order:fill markers stroke"/>
    <path id="path214689-6-7" d="m1069 461.14s3.3718-5.6037-7.1146-10.099c-6.8847-2.9515-5.489-10.78-4.1943-12.847" fill="none" stroke="#a58a70" stroke-width="4"/>
    <path id="path208555-0-7" d="m1021.1 460.58c-0.954 5.9079 4.9608 10.242 13.537 7.8597 5.1499-1.4306 8.5247-3.1661 7.7-8.3132-0.8669-5.4104-5.8019-12.056-10.613-11.816-10.422 0.51951-9.8312 7.3602-10.624 12.27z" fill="#ae957e" fill-rule="evenodd" stroke="#a58a70" stroke-linecap="round" stroke-linejoin="round" stroke-width="3" style="paint-order:fill markers stroke"/>
    <path id="path214689-6-76" d="m1033.8 468.56s5.6531-7.7216-2.0531-9.8454c-3.4089-0.93949-7.6424-3.6242-9.0693-5.2217" fill="none" stroke="#a58a70" stroke-width="3"/>
    <path id="path208555-0-2" d="m364.96 1104.3c-7.3878 14.222 11.048 21.619 35.867 16.49 13.682-2.8277 21.563-4.7876 22.168-15.822 0.62546-11.398-5.7857-29.932-26.766-26.101-20.888 3.8137-26.406 16.072-31.269 25.434z" fill="#856549" fill-rule="evenodd" stroke="#7b5f48" stroke-linecap="round" stroke-linejoin="round" stroke-width="5.4576" style="paint-order:fill markers stroke"/>
    <path id="path214689-6-8" d="m403.87 1119.9c7.4726-0.9803 19.081-20.224-4.3156-23.712-14.349-2.1389-15.783-11.464-13.932-14.156" fill="none" stroke="#7b5f48" stroke-width="5.4576"/>
    <path id="path214689-6-8-8" d="m387.69 1121.9c7.4726-0.9803 17.576-14.523 2.8959-18.266-15.593-3.9758-15.93-14.113-14.079-16.805" fill="none" stroke="#7b5f48" stroke-width="5.4576"/>
    <path id="path214689-6-0" d="m680.02 992.19s1.1808-7.4134-6.5389-9.704c-10.308-3.0587-13.63-6.4314-13.896-9.8515" fill="none" stroke="#a58a70" stroke-width="4"/>
    <path id="path270271" d="m1070.5 714.93c-36.704-4.9593-38.273 21.12-19.356 41.627 9.1925 1.3444 18.385 2.5482 27.578-3.4342 15.243-32.134 4.0157-35.987-8.2212-38.192z" fill="#5f7934" stroke="#9bba67" stroke-width="3"/>
    <path id="path270669" d="m1069.2 756.66c14-34.667 2.4674-36.973-6.5562-42.459-20.804 9.7476-8.1387 36.505-5.0992 43.396" fill="none" stroke="#9bba67" stroke-width="3"/>
    <path id="path276292" d="m1060.9 710.15c0.8603-7.2397 7.1804-5.8792 4.2407 2.1334 6.185-8.969 10.468 3.0182 0.2602 2.0553 9.8432-1.4084 9.3942 7.2217-0.4943 2.1594 11.638 7.0969 0.4623 10.244-2.8358 0.93658-1.3802 7.1132-8.2747 5.6596-2.6798-0.72846-7.9266 4.6082-10.147-4.4938-1.3008-2.3415-9.0448-3.8257-2.7479-9.0193 1.7691-3.9025 0.5858 0.57848 0.9405 0.49681 1.0407-0.31219z" fill="#3184fd" stroke="#0a71f9" stroke-width="2"/>
    <path id="path274090" d="m1043.5 715.14 3.8505 4.9952" fill="none" stroke="#e3f1ca" stroke-linecap="round" stroke-width="1.5"/>
    <path id="path274092" d="m1038.6 741.47 4.3708-1.8732" fill="none" stroke="#e3f1ca" stroke-linecap="round" stroke-width="1.5"/>
    <path id="path274094" d="m1056.3 756.98 3.4342-4.4748" fill="none" stroke="#e3f1ca" stroke-linecap="round" stroke-width="1.5"/>
    <path id="path274096" d="m1065.1 743.45-2.9139-2.9139" fill="none" stroke="#e3f1ca" stroke-linecap="round" stroke-width="1.5"/>
    <path id="path274098" d="m1050.6 729.82 5.2033 1.0407" fill="none" stroke="#e3f1ca" stroke-linecap="round" stroke-width="1.5"/>
    <path id="path274100" d="m1067.3 731.27 3.2261-4.0586" fill="none" stroke="#e3f1ca" stroke-linecap="round" stroke-width="1.5"/>
    <path id="path274102" d="m1080.4 752.5-2.8098-4.5789" fill="none" stroke="#e3f1ca" stroke-linecap="round" stroke-width="1.5"/>
    <path id="path274104" d="m1089.2 737.1-4.4749-2.4976" fill="none" stroke="#e3f1ca" stroke-linecap="round" stroke-width="1.5"/>
    <path id="path274106" d="m1080.2 722.64 3.4342-3.6423" fill="none" stroke="#e3f1ca" stroke-linecap="round" stroke-width="1.5"/>
    <path id="path274108" d="m1075.3 716.7 1.3528-4.5789" fill="none" stroke="#e3f1ca" stroke-linecap="round" stroke-width="1.5"/>
    <ellipse id="path276257" cx="1062.1" cy="713.16" rx="3.8765" ry="3.5383" fill="none" style="paint-order:fill markers stroke"/>
    <ellipse id="path280774" cx="1062.3" cy="714.06" rx="3.5534" ry="3.3323" fill="#045dde" fill-rule="evenodd" stroke="#045dde" stroke-linecap="round" stroke-linejoin="round" stroke-width="1.8136" style="paint-order:fill markers stroke"/>
    <path id="path270271-9" d="m825.95 577c-31.404-1.1023-30.541 21.081-12.85 36.828 7.8737 0.36269 15.736 0.60633 22.995-5.2262 10.173-28.455 0.37127-30.767-10.145-31.602z" fill="#5f7934" stroke="#9bba67" stroke-width="2.5472"/>
    <path id="path270669-4" d="m828.39 612.39c8.9114-30.492-1.0186-31.471-9.0971-35.35-16.746 9.9942-3.8087 31.553-0.66452 37.123" fill="none" stroke="#9bba67" stroke-width="2.5472"/>
    <path id="path276292-8" d="m817.46 573.76c0.11894-6.1941 5.5689-5.5759 3.7592 1.4467 4.4693-8.1047 9.0913 1.6704 0.3921 1.716 8.1921-2.0199 8.537 5.3152-0.23617 1.8675 10.42 5.0208 1.2498 8.6234-2.3156 1.0308-0.56849 6.1309-6.5112 5.4824-2.3236-0.39025-6.3055 4.564-8.9438-2.9452-1.2946-1.8703-7.9571-2.4731-3.0766-7.395 1.1662-3.4488 0.54311 0.43981 0.83573 0.34089 0.85245-0.35161z" fill="#e7bc45" stroke="#d5a92c" stroke-width="1.6982"/>
    <path id="path274090-0" d="m803.21 579.44 3.6699 3.8994" fill="none" stroke="#e3f1ca" stroke-linecap="round" stroke-width="1.2736"/>
    <path id="path274092-5" d="m801.29 602.12 3.5329-1.952" fill="none" stroke="#e3f1ca" stroke-linecap="round" stroke-width="1.2736"/>
    <path id="path274094-4" d="m817.52 613.74 2.5239-4.073" fill="none" stroke="#e3f1ca" stroke-linecap="round" stroke-width="1.2736"/>
    <path id="path274096-7" d="m823.77 601.56-2.7046-2.2184" fill="none" stroke="#e3f1ca" stroke-linecap="round" stroke-width="1.2736"/>
    <path id="path274098-6" d="m810.41 591.26 4.4803 0.44174" fill="none" stroke="#e3f1ca" stroke-linecap="round" stroke-width="1.2736"/>
    <path id="path274100-5" d="m824.59 591.08 2.3832-3.7035" fill="none" stroke="#e3f1ca" stroke-linecap="round" stroke-width="1.2736"/>
    <path id="path274102-3" d="m837.44 607.93-2.7563-3.6351" fill="none" stroke="#e3f1ca" stroke-linecap="round" stroke-width="1.2736"/>
    <path id="path274104-8" d="m843.62 594.16-3.9875-1.735" fill="none" stroke="#e3f1ca" stroke-linecap="round" stroke-width="1.2736"/>
    <path id="path274106-5" d="m834.76 582.69 2.5938-3.369" fill="none" stroke="#e3f1ca" stroke-linecap="round" stroke-width="1.2736"/>
    <path id="path274108-3" d="m830.14 578.09 0.75797-3.9857" fill="none" stroke="#e3f1ca" stroke-linecap="round" stroke-width="1.2736"/>
    <ellipse id="path276257-0" transform="matrix(.99506 -.099258 .09873 .99511 0 0)" cx="757.81" cy="654.63" rx="3.289" ry="3.0065" fill="none" style="paint-order:fill markers stroke"/>
    <ellipse id="path280774-2" transform="matrix(.99506 -.099258 .09873 .99511 0 0)" cx="757.97" cy="655.39" rx="3.0149" ry="2.8314" fill="#bb9325" fill-rule="evenodd" stroke="#bb9325" stroke-linecap="round" stroke-linejoin="round" stroke-width="1.5399" style="paint-order:fill markers stroke"/>
    <path id="path270271-5" d="m147.06 886.7c-59.121-7.5655-61.648 32.219-31.178 63.502 14.807 2.051 29.613 3.8873 44.42-5.2389 24.552-49.021 6.4682-54.899-13.242-58.263z" fill="#5f7934" stroke="#9bba67" stroke-width="4.7026"/>
    <path id="path270669-9" d="m145.05 950.36c22.55-52.885 3.9743-56.403-10.56-64.772-33.51 14.87-13.109 55.689-8.2135 66.201" fill="none" stroke="#9bba67" stroke-width="4.7026"/>
    <path id="path276292-9" d="m131.64 879.4c1.3857-11.044 11.566-8.9688 6.8306 3.2545 9.9624-13.682 16.862 4.6043 0.4191 3.1354 15.855-2.1486 15.132 11.017-0.79618 3.2942 18.745 10.826 0.74465 15.628-4.5677 1.4288-2.2231 10.851-13.328 8.6338-4.3165-1.1113-12.768 7.0298-16.344-6.8554-2.0952-3.572-14.569-5.8361-4.4261-13.759 2.8496-5.9533 0.94357 0.88248 1.5149 0.75789 1.6763-0.47626z" fill="#ce82bf" stroke="#c172b1" stroke-width="3.1351"/>
    <path id="path274090-4" d="m103.65 887.02 6.2021 7.6202" fill="none" stroke="#e3f1ca" stroke-linecap="round" stroke-width="2.3513"/>
    <path id="path274092-1" d="m95.772 927.19 7.0402-2.8576" fill="none" stroke="#e3f1ca" stroke-linecap="round" stroke-width="2.3513"/>
    <path id="path274094-2" d="m124.27 950.84 5.5316-6.8264" fill="none" stroke="#e3f1ca" stroke-linecap="round" stroke-width="2.3513"/>
    <path id="path274096-1" d="m138.35 930.2-4.6935-4.4451" fill="none" stroke="#e3f1ca" stroke-linecap="round" stroke-width="2.3513"/>
    <path id="path274098-2" d="m115.05 909.4 8.3811 1.5875" fill="none" stroke="#e3f1ca" stroke-linecap="round" stroke-width="2.3513"/>
    <path id="path274100-8" d="m141.87 911.63 5.1964-6.1915" fill="none" stroke="#e3f1ca" stroke-linecap="round" stroke-width="2.3513"/>
    <path id="path274102-37" d="m162.99 944.01-4.5258-6.9852" fill="none" stroke="#e3f1ca" stroke-linecap="round" stroke-width="2.3513"/>
    <path id="path274104-7" d="m177.24 920.52-7.2079-3.8101" fill="none" stroke="#e3f1ca" stroke-linecap="round" stroke-width="2.3513"/>
    <path id="path274106-8" d="m162.65 898.45 5.5316-5.5564" fill="none" stroke="#e3f1ca" stroke-linecap="round" stroke-width="2.3513"/>
    <path id="path274108-9" d="m154.78 889.4 2.179-6.9852" fill="none" stroke="#e3f1ca" stroke-linecap="round" stroke-width="2.3513"/>
    <ellipse id="path276257-6" cx="133.53" cy="884" rx="6.244" ry="5.3977" fill="none" style="paint-order:fill markers stroke"/>
    <ellipse id="path280774-3" cx="133.82" cy="885.37" rx="5.7236" ry="5.0834" fill="#ae69a0" fill-rule="evenodd" stroke="#ae69a0" stroke-linecap="round" stroke-linejoin="round" stroke-width="2.843" style="paint-order:fill markers stroke"/>
   </g>
  </g>
 </g>

</g><g id="Skin">
 <g id="layer60" transform="translate(19.4 11.241)">
  <g id="layer192">
   <g id="g265099">
    <path id="path265091" d="m549.13 259.7c-9.4797 0-18.959 0.34454-24.279 1.0327-24.145 3.1232-44.929 9.3587-66.167 19.851-23.296 11.508-43.292 26.981-59.98 46.412-22.535 26.238-36.234 57-41.229 92.577-1.1092 7.9026-0.93727 34.289 0.27639 42.422l0.95556 6.404-1.1441 0.79916c-5.3279 3.7306-7.183 6.9139-6.8347 11.728 0.46137 6.3789 4.9709 10.842 11.784 11.662 1.9657 0.23666 3.6917 0.54858 3.8351 0.69203 0.14337 0.14333 0.62524 2.8601 1.0713 6.0376 2.5684 18.297 8.9002 32.187 21.588 47.356 19.185 22.935 52.298 42.055 90.755 52.403 19.446 5.2331 48.296 8.8275 65.678 8.8315 4.2932 1e-3 7.0696-0.8498 7.3014-0.24586 12.686-0.16269 15.862-1.4205 25.185-1.6174 0-0.76137 1.4358 0.55138 10.683-0.7009 38.113-5.1611 70.921-18.286 97.703-37.041 7.0807-4.9588 10.37-7.5239 16.935-13.851 11.391-10.978 18.485-21.072 23.706-33.74l2.8823-5.3574 3.4899-0.75105c6.2022-1.3348 8.3236-3.0609 9.3521-8.464 0.87448-4.5939-1.6056-10.412-6.3328-11.829-1.2054-0.36113-2.2685-0.35144-2.536-0.67401-0.30341-0.36555 0.62198-3.8625 1.5947-7.3273 1.9966-7.112 3.9063-16.197 5.1121-24.315 1.2091-8.1405 1.3786-34.539 0.2721-42.422-4.9942-35.577-18.693-66.337-41.229-92.577-5.3844-6.2692-16.158-16.973-21.791-21.652-29.278-24.314-64.777-39.49-104.36-44.609-5.32-0.68816-14.801-1.0327-24.281-1.0327zm-80.322 632.16c0.29847 1.173-5e-3 1.6663-2.0718 3.3595-2.8989 2.3754-2.8604 4.886-2.4698 9.8063 0.31676 3.988 0.29683 4.7498 3.5708 6.826 3.274 2.0764 5.1227 0.78507 7.9253-0.28527 5.7916-2.2118 7.0183-3.4323 5.7441-9.1264-0.33835-1.5121-0.52485-2.3981-0.99372-3.0676-1.4368-2.0513-4.0369-5.1595-6.2997-5.1595-2.9532-0.088-3.4279 0.14163-5.4051-2.3532zm223.97-173.56c-2.2628 0-4.5225 1.3839-5.9593 3.4353-0.46888 0.66942-1.4309 2.5543-1.7692 4.0664-1.2742 5.694 0.82656 8.7504 6.618 10.962 2.8025 1.0703 3.7591 0.56684 7.0332-1.5095 3.2739-2.0764 3.563-2.1671 3.8798-6.1551 0.39077-4.9201 0.13182-5.9922-2.767-8.3676-3.0703-1.3317-4.6169-0.89594-7.0355-2.4315z" fill="#cf9e7c" stroke-width="1.097" style="mix-blend-mode:normal"/>
   </g>
  </g>
 </g>

</g><g id="Head">
 <g id="layer60" transform="translate(19.4 11.241)">
  <g id="layer266">
   <g id="layer120">
    <g id="g4-2" transform="matrix(4.1461 0 0 4.1461 114.51 46.946)">
     <path id="path2-97" d="m104.32 135.44c-2.7616 0-7.6008-0.50136-11.336-1.1745-13.605-2.4516-24.641-8.9681-29.528-17.437-1.329-2.3028-2.0879-4.5222-2.5248-7.3836-0.14563-0.95359-0.33435-1.778-0.41938-1.8321-0.085-0.0541-0.36452-0.0992-0.62107-0.10025-1.1305-5e-3 -2.239-0.69567-2.7449-1.7109-0.75445-1.514-0.20525-3.0303 1.4381-3.9705 0.60604-0.34674 0.86326-0.41745 1.5093-0.4149 0.85858 3e-3 1.9454 0.39621 2.3462 0.84804 0.23 0.25926 0.22836 0.26292-0.0873 0.19439-0.17697-0.0384-0.66927-0.19776-1.094-0.3541-1.7337-0.6382-3.5822 0.18601-3.9961 1.7818-0.48396 1.8657 1.0858 3.4576 3.2883 3.3347l0.57917-0.0323 0.0843 1.3594c0.49494 7.9809 6.8355 15.61 17.162 20.649 5.6601 2.7623 12.37 4.6166 19.563 5.4066 2.5766 0.28299 8.9404 0.39558 11.656 0.20623 13.264-0.92475 24.949-5.4822 32.324-12.607 2.7776-2.6835 4.5416-5.2986 5.7737-8.5594l0.43011-1.1383 0.48888 0.0782c0.70274 0.11238 1.5531-0.143 2.1352-0.64121 0.64962-0.55605 0.844-1.0383 0.77141-1.9137-0.14185-1.7104-1.9766-2.6074-3.835-1.8749-0.78576 0.30971-0.99259 0.32987-0.78207 0.0762 0.20975-0.25274 1.011-0.61853 1.5885-0.72513 0.35335-0.0652 0.69716-0.0125 1.2692 0.19462 1.4365 0.52013 2.043 1.2638 2.043 2.505 0 0.85527-0.23263 1.3916-0.83171 1.9176-0.57778 0.5073-0.92986 0.65303-1.8605 0.77006l-0.7004 0.0881-0.48383 1.1941c-0.61838 1.5261-1.818 3.6345-2.9089 5.1125-1.218 1.6503-4.1659 4.5424-6.1064 5.9908-6.7488 5.0376-15.421 8.2896-25.502 9.5631-0.76502 0.0966-1.4082 0.2164-2.092 0.31549" fill-opacity=".99763"/>
    </g>
   </g>
  </g>
 </g>

</g><g id="Eye Whites">
 <g id="layer60" transform="translate(19.4 11.241)">
  <g id="layer30">
   <g id="layer52" fill="#fff">
    <ellipse id="ellipse187" cx="485.87" cy="443.88" rx="108.22" ry="108.92" stroke-width="4.1283"/>
    <ellipse id="ellipse189" cx="653.33" cy="489.79" rx="62.37" ry="62.685" stroke-width="4.1461"/>
   </g>
  </g>
 </g>

</g><g id="Eye Colour">
 <g id="layer60" transform="translate(19.4 11.241)">
  <g id="layer49">
   <g id="layer126" stroke-width="4.1461">
    <path id="path6-49" d="m649.56 536.14c-0.73373-0.13018-2.7748-0.49218-4.5358-0.80413-4.1714-0.73904-11.364-3.7855-15.789-6.6868-4.5259-2.9681-10.949-9.7018-13.733-14.397-15.623-26.349-1.7877-59.936 27.92-67.776 5.1345-1.3554 17.234-1.388 22.081-0.0597 10.443 2.8628 18.419 8.0306 24.893 16.128 11.639 14.559 12.994 34.973 3.4194 51.519-2.5395 4.389-8.1653 10.504-12.529 13.618-4.2137 3.0068-11.165 6.2494-15.877 7.4066-3.5659 0.87545-13.232 1.5172-15.85 1.0524zm-170.76-14.119c-9.7209-1.1919-17.352-3.3406-25.434-7.1615-20.589-9.7338-36.248-28.367-41.992-49.969-2.1-7.8991-2.6885-12.444-2.6885-20.76 0-4.2555 0.30474-9.5385 0.67727-11.74 4.4243-26.145 19.601-46.743 43.235-58.671 4.9546-2.501 15.021-5.7228 21.133-6.7639 7.0102-1.194 19.084-1.2039 26.007-0.0207 29.998 5.1242 54.811 27.532 62.498 56.436 2.1 7.8991 2.6885 12.444 2.6885 20.76 0 21.41-7.7001 40.011-22.878 55.263-11.767 11.826-26.124 19.242-42.406 21.906-6.0433 0.98885-15.87 1.3275-20.839 0.71823z" fill="#502d16"/>
    <path id="path8-004" d="m648.23 529.22c-2.0545-0.4535-5.7763-1.8034-8.271-2.9997-6.3924-3.0654-12.772-9.4361-15.926-15.904-3.2381-6.64-3.9894-10.212-3.7012-17.596 0.38807-9.9411 3.3667-16.802 10.306-23.742 6.943-6.943 13.8-9.9182 23.754-10.307 7.2386-0.28277 12.107 0.78369 18.36 4.0208 5.7531 2.9786 12.321 9.7545 15.127 15.607 9.5053 19.821 0.0477 42.655-20.617 49.778-5.7042 1.9661-13.251 2.4194-19.033 1.1431zm-172.36-18.428c-19.662-2.8333-37.466-15.853-46.154-33.751-8.5509-17.615-8.5509-36.433 0-54.048 18.611-38.338 70.546-46.063 99.713-14.83 23.14 24.778 21.843 63.501-2.9005 86.608-13.562 12.665-32.463 18.643-50.657 16.021z" fill-opacity=".99763" opacity=".59939"/>
   </g>
  </g>
 </g>

</g><g id="Eye Style">
 <g id="layer60" transform="translate(19.4 11.241)">
  <g id="layer45">
   <g id="layer109">
    <path id="path25-2" d="m649.39 535.85c-0.73373-0.13019-2.7748-0.49218-4.5358-0.80413-4.1714-0.73904-11.364-3.7855-15.789-6.6868-4.5259-2.9681-10.949-9.7018-13.733-14.397-15.623-26.349-1.7877-59.936 27.92-67.776 5.1345-1.3554 17.234-1.388 22.081-0.0597 10.443 2.8628 18.419 8.0306 24.893 16.128 11.639 14.559 12.994 34.973 3.4194 51.519-2.5395 4.389-8.1653 10.504-12.529 13.618-4.2137 3.0068-11.165 6.2494-15.877 7.4066-3.5659 0.87545-13.232 1.5172-15.85 1.0524zm-170.76-14.119c-9.7209-1.1919-17.352-3.3406-25.434-7.1615-20.589-9.7338-36.248-28.367-41.992-49.969-2.1-7.8991-2.6885-12.444-2.6885-20.76 0-4.2555 0.30474-9.5385 0.67727-11.74 4.4243-26.145 19.601-46.743 43.235-58.671 4.9546-2.501 15.021-5.7228 21.133-6.7639 7.0102-1.194 19.084-1.2039 26.007-0.0207 29.998 5.1241 54.811 27.532 62.498 56.436 2.1 7.8991 2.6885 12.444 2.6885 20.76 0 21.41-7.7001 40.011-22.878 55.263-11.767 11.826-26.124 19.242-42.406 21.906-6.0433 0.98885-15.87 1.3275-20.839 0.71823z" fill="url(#linearGradient102788)" stroke-width="4.1461"/>
    <g id="g35-5" transform="matrix(4.1461 0 0 4.1461 114.51 46.948)" fill="none" filter="url(#filter22322-2)" stroke-linecap="round" stroke-linejoin="round" stroke-opacity=".82341" style="mix-blend-mode:normal">
     <path id="path27-10" transform="rotate(137.23)" d="m13.375-131.98a13.19 13.003 0 0 1-8.1489 12.016 13.19 13.003 0 0 1-14.378-2.8314 13.19 13.003 0 0 1-2.8407-14.18 13.19 13.003 0 0 1 12.206-8.007" opacity=".47557" stroke="url(#linearGradient17791)" stroke-width=".865"/>
     <path id="path29-9" transform="rotate(137.23)" d="m11.721-131.96a11.693 11.527 0 0 1-7.2303 10.654 11.693 11.527 0 0 1-12.749-2.5217 11.693 11.527 0 0 1-2.5014-12.579 11.693 11.527 0 0 1 10.84-7.0799" opacity=".41368" stroke="url(#linearGradient9727)" stroke-width=".165"/>
     <path id="path31-98" transform="rotate(145.57)" d="m-39.721-162.73a7.0148 6.9114 0 0 1-6.3018 6.8756 7.0148 6.9114 0 0 1-7.5829-5.4779 7.0148 6.9114 0 0 1 4.7603-7.9892" opacity=".47883" stroke="url(#linearGradient20078)" stroke-width=".165"/>
     <path id="path33-3" transform="rotate(140.51)" d="m-24.344-166.26a7.9229 7.8065 0 0 1-7.7289 7.8042 7.9229 7.8065 0 0 1-8.1074-7.422 7.9229 7.8065 0 0 1 7.3318-8.1677" opacity=".468" stroke="url(#linearGradient20080)" stroke-width=".465"/>
    </g>
    <g id="g45-2" transform="matrix(4.1461 0 0 4.1461 114.51 46.948)" fill="#fff" fill-rule="evenodd" stroke-linecap="round" stroke-linejoin="round" stroke-width=".865">
     <ellipse id="ellipse37" cx="76.8" cy="92.983" rx="3.2741" ry="3.5547"/>
     <ellipse id="ellipse39" cx="80.822" cy="85.874" rx="3.2741" ry="3.5547"/>
     <ellipse id="ellipse41" cx="122.97" cy="105.31" rx="1.9841" ry="2.1531"/>
     <ellipse id="ellipse43" cx="125.41" cy="101" rx="1.9841" ry="2.1531"/>
    </g>
   </g>
  </g>
 </g>

</g><g id="Eye Outline">
 <g id="layer60" transform="translate(19.4 11.241)">
  <g id="layer104">
   <g id="layer51">
    <path id="path274" d="m646.78 554.34c-0.44023-0.10656-2.6014-0.4853-4.8024-0.84157-9.2056-1.4899-19.15-5.8485-27.255-11.946-16.244-12.22-25.574-30.99-25.574-51.449 0-3.8712-0.18782-5.9845-0.50346-5.6664-0.27696 0.27903-2.0916 3.7288-4.0327 7.6665-5.9612 12.093-14.114 23.201-23.332 31.789-42.912 39.978-108.4 39.978-151.31 0-9.4319-8.7872-17.592-19.994-23.595-32.406-4.3472-8.9887-6.9679-16.622-8.7922-25.61-4.8016-23.656-1.8853-47.983 8.2955-69.194 6.1034-12.715 12.245-21.446 21.82-31.022 43.177-43.177 112.67-43.177 155.85 0 9.5758 9.5758 15.717 18.307 21.82 31.022 8.0969 16.868 11.75 36.373 10.259 54.774-0.35076 4.3289-0.78008 8.4112-0.95401 9.0716-0.62515 2.3735 0.85886 1.1485 2.9535-2.438 3.2246-5.5213 6.455-9.5712 11.489-14.404 12.114-11.629 27.342-17.71 44.355-17.71 35.614 0 64.289 28.765 64.277 64.472-0.0124 25.954-15.748 49.276-40.046 59.347-7.1176 2.9499-13.754 4.2912-22.386 4.5246-4.2555 0.11485-8.0977 0.1219-8.538 0.0166zm21.988-5.251c9.9145-2.6206 18.804-7.6437 26.353-14.891 12.812-12.3 18.895-26.438 18.895-43.915 0-11.037-1.7875-18.506-6.7109-28.038-8.5082-16.473-23.902-28.025-42.302-31.746-6.2419-1.2621-20.97-0.85161-26.78 0.74637-21.643 5.9521-37.877 22.239-43.87 44.015-1.0659 3.8716-1.1952 5.5562-1.1741 15.29 0.0207 10.354 0.10199 11.196 1.482 15.742 1.6688 5.496 5.2912 13.335 8.213 17.773 2.8598 4.3443 11.333 12.926 15.808 16.01 7.0454 4.8559 14.483 8.0774 22.497 9.7445 7.2241 1.5028 20.47 1.1524 27.591-0.72983zm-171.52 0.66255c19.74-2.1455 39.855-10.574 55.607-23.301 4.7236-3.8161 13.694-12.964 17.152-17.492 4.4732-5.8568 8.4568-12.409 11.906-19.583 7.6943-16.005 10.925-31.654 10.272-49.761-0.83067-23.056-8.5011-43.832-23.058-62.461-3.7663-4.819-13.323-14.278-18.14-17.954-32.572-24.861-75.819-29.346-111.87-11.604-11.239 5.5313-18.757 10.837-27.872 19.668-19.975 19.355-31.195 44.57-32.196 72.349-0.65243 18.108 2.5782 33.758 10.272 49.761 5.5201 11.483 10.918 19.239 19.703 28.314 8.9784 9.274 17.71 15.693 29.193 21.461 10.375 5.2112 23.915 9.3067 34.858 10.543 6.0918 0.68829 18.106 0.71748 24.168 0.0589z" stroke-width="4.1461"/>
   </g>
  </g>
 </g>

</g><g id="Hair">
 <g id="layer60" transform="translate(19.4 11.241)">
  <g id="layer4">
   <g id="g8632">
    <g id="g8630" transform="matrix(4.1461 0 0 4.1461 114.51 46.945)">
     <g id="g8618" transform="translate(.2466 .052997)" stroke="#000" stroke-width=".565">
      <g id="g8616" fill="#303433" stroke-linecap="round" stroke-linejoin="round">
       <path id="path8612" d="m147.5 107.65c1.2146-0.6355 3.9956-0.0984 4.139 2.6729 0.046 0.88988-0.42644 1.5126-1.2112 1.9384-0.60135 0.32635-1.3861 0.53714-2.2614 0.66404-2.9836 6.7566-7.9118 13.999-22.621 18.866 3.8035-0.30948 7.4764-1.0851 10.464-2.4804 0 0-0.0416 0.53396 1.5294 2.5437 0.69415-0.88598-0.23202-3.3112 2.7158-4.9303 6.5583-4.3406 12.013-12.246 12.013-12.246 0.68962 0.62234 1.0362 2.3129 1.0362 2.3129 0.34095-0.27082-0.0352-3.6478 0.55609-5.3818 0 0 2.8525-10.782 2.8795-16.429 0.0299-6.2504-0.60109-12.375-1.8888-18.06 2.3303 2.058 4.2426 1.6588 4.2426 1.6588-4.6512-5.7731-8.9353-18.323-18.016-26.652-12.886-11.583-27.596-13.447-42.502-12.079-10.921 1.0824-17.41 3.3353-26.231 9.6261-4.048 3.0219-4.8347 5.1076-7.1046 7.3863-5.1256 5.2238-9.4865 8.2357-13.043 10.824 0.32324 0.6751 1.2652 0.78536 5.4748-0.21248-3.139 6.8114-4.846 14.668-4.5289 23.108 0.13422 3.5726 0.78404 8.7507 1.0919 11.746 0.11916 3.0803-1.0989 6.6007-0.25734 7.2698 0.97913-1.2113 1.4692-1.85 1.4692-1.85 1.5986 5.6703 5.8788 14.26 15.157 19.473 1.5726 0.88025 3.0277 2.2544 3.0788 4.2827 0.86543-0.4845 0.95853-1.2403 1.6716-2.1003 2.1786 0.79877 4.5712 1.4234 7.1962 1.8236-15.548-6.0925-21.798-16.752-21.933-23.934-2.807-0.1549-3.529-0.83537-3.729-2.7151 0.02262-3.3689 1.7658-3.1751 4.5753-2.941-1.7442-11.674-0.57827-19.374 3.6591-27.08 6.0373-10.98 15.67-12.897 25.234-12.995 1.0458-0.01071 16.13 2.1777 18.982 2.4414 3.1198 0.28845 15.943-0.95634 17.168-0.76986 4.7438 0.38045 17.455 3.4415 21.335 18.622 1.4618 5.7195 0.58459 18.74-0.34033 25.597z" style="mix-blend-mode:normal"/>
      </g>
     </g>
     <g id="g8626" transform="translate(-.28257 -.47617)" fill="none">
      <path id="path8620" d="m107.55 63.434s-0.81422 13.946 10.845 20.996c2.6816 1.6214 6.4216 4.8965 6.8542 6.981" stroke-linecap="round"/>
      <path id="path8622" d="m61.134 107.19c-0.55186 16.553 7.9446 25.82-1.0583 30.692-1.7227 0.93222-4.7377-1.1055-5.0271-3.0427-0.33225-2.2238 1.6493-5.5081 4.4979-5.0271 5.9521 1.0051 10.481 6.5515 6.4823 11.774-4.249 5.5497-4.7865 4.3357-6.35 9.2604-0.86435 2.7226 1.4552 10.054 1.4552 10.054"/>
      <path id="path8624" d="m148.41 112.98c-4.8737 17.489-8.9123 25.668 0 30.692 1.7064 0.96177 4.7376-1.1055 5.0271-3.0427 0.33226-2.2238-1.6493-5.5081-4.4979-5.0271-5.9521 1.0051-10.481 6.5515-6.4823 11.774 4.249 5.5497 4.7865 4.3357 6.35 9.2604 0.86435 2.7226-1.4552 10.054-1.4552 10.054"/>
     </g>
    </g>
    <path id="path27402" d="m368.06 335.46c-15.446 36.982-17.159 73.751-14.123 79.995 2.3625-6.2951 3.4747-10.772 7.2505-17.533 1.075 24.222 5.2128 48.87 9.1714 71.457 2.4405 13.925 19.491 43.781 19.491 43.781-1.0142-52.982-3.103-117.43 23.311-157.42-1.3267 18.118 2.6154 38.856 20.02 58.414 10.709-34.108 16.185-72.312 48.816-88.033 18.916 42.737 38.159 76.852 95.254 110.3-0.95609-4.7458-0.3462-16.129 2.8889-27.928 2.1473 3.2264 15.44 20.179 15.44 20.179s-1.2627-10.235-0.64185-15.303c3.4777-28.385 24.182-82.313 24.182-82.313 27.47 25.605 19.218 52.15 20.843 78.434 10.317-20.947 23.156-23.46 21.054-51.712 16.061 32.769 16.835 40.862 22.003 80.508 19.018-7.9391 22.9-25.539 22.9-25.539 13.856 30.909 19.278 61.343 17.046 90.058 0 0 30.685-109.11 6.7125-158.42-23.972-49.319-82.69-83.352-141.27-101.08-11.883-3.5965-17.527-3.7653-29.822-6.7682-32.509-7.9403-45.787-7.8417-71.76-17.241-0.7965 5.9758 22.005 24.558 36.859 24.558h-1.7e-4" color="#000000" fill="#303433" stroke-width="2.3425" style="-inkscape-stroke:none"/>
    <path id="path27404" d="m483.95 215.99-0.19498 1.4484c-0.27376 2.0539 9.3647 13.687 11.116 15.658 6.9662 8.8366 16.117 14.481 23.739 12.467-9.2775-2.3159-15.685-7.0606-21.983-14.032-0.95973-1.0804-9.5214-11.403-9.8022-12.238 11.633 3.8793 25.072 11.509 36.721 14.289 7.441 1.7755 19.794 1.7369 30.99 2.9332-11.585-2.8494-22.078-3.1867-30.951-5.275-9.9155-2.3626-25.412-10.097-38.268-14.749zm126.53 33.023 22.214 10.059c40.27 17.644 68.917 33.654 88.17 71.092 11.752 24.177 17.948 78.412 13.286 111.77-3.4187 24.456-7.5206 41.536-9.9586 51.08 0.32008-25.899-5.5396-52.605-17.888-80.151l-1.5319-3.4174-0.68776 3.6745s-3.109 15.282-20.187 23.257c-4.8963-37.594-6.0751-46.956-21.833-79.107l-2.2176 0.60848c1.0377 13.948-1.5515 21.25-5.6949 27.879-3.5893 5.7426-8.4488 11.511-13.093 19.72-0.33086-11.738 0.77264-23.609-0.66419-35.59-1.5963-13.311-6.5528-26.7-20.478-39.68l-1.2727-1.1827-0.61492 1.6198s-20.729 53.825-24.254 82.589c-0.50715 4.1396 0.15264 8.798 0.48635 11.848-1.2383-1.5836-2.2471-2.8665-4.6729-6.0013-3.5888-4.6378-7.4978-9.7583-8.4781-11.231l-1.4248-2.1383-0.67276 2.4789c-2.9291 10.684-3.5466 20.242-2.946 25.993-55.283-32.935-74.339-66.371-92.997-108.53l-0.49279-1.1098-1.0863 0.52707c-16.627 8.0105-26.353 21.788-33.201 37.711-6.5473 15.223-10.564 32.418-15.563 48.749-15.839-18.767-19.666-38.386-18.398-55.706l0.3321-4.4694-2.4789 3.7409c-25.965 39.311-24.583 101.19-23.555 153.24-1.4238-2.5516-3.1717-5.5356-6.5605-12.365-4.5508-9.1706-9.3852-20.151-10.55-26.797-3.9576-22.581-8.0888-47.184-9.1594-71.308l-0.17784-4.1137-2.0161 3.5952c-2.9576 5.296-4.1047 9.2575-5.6456 13.644-0.26809-1.6961-0.64132-2.6723-0.65563-5.4828-0.0245-4.8321 0.38561-11.121 1.3691-18.372 0.3896-9.9298 10.091-42.111 11.75-52.135-7.7703 18.604-12.082 37.129-14.074 51.818-0.99611 7.3443-1.4094 13.733-1.3841 18.707 0.0252 4.9737 0.38488 8.4321 1.3605 10.438l1.1913 2.4532 0.962-2.5582c1.8061-4.8126 3.4123-8.7688 5.4335-13.16 1.3689 22.778 5.0345 45.752 8.7373 66.88 1.2757 7.2791 6.1774 18.188 10.762 27.427 4.5846 9.2388 8.868 16.731 8.868 16.731l2.1875-0.59992c-0.98322-51.364-2.6204-113.13 21.012-152.84-0.37605 17.243 4.091 36.455 20.271 54.637l1.3755 1.5383 0.61491-1.9668c5.3746-17.119 9.4234-35.161 16.148-50.798 6.5701-15.277 15.725-28.129 31.063-35.907 18.769 42.213 38.416 76.39 95.148 109.63l2.2604 1.3284-0.51849-2.5668c-0.799-3.9659-0.15854-14.172 2.4211-24.86 1.6793 2.3097 4.014 5.4239 6.9161 9.1744 3.5944 4.6451 6.9226 8.8916 6.9226 8.8916l2.6011 3.3124-0.5185-4.178s-1.215-10.333-0.64063-15.021c3.3288-27.17 22.311-77.152 23.476-80.211 12.432 12.168 17 24.401 18.494 36.863 1.5511 12.934-0.0994 26.115 0.72203 39.404l0.27425 4.3965 1.9433-3.9509c5.0816-10.317 10.797-16.088 15.126-23.015 3.7269-5.9627 5.7986-13.551 5.7656-24.455 13.771 28.758 15.049 38.272 19.954 75.893l0.20354 1.5234 1.4076-0.59134c16.682-6.9637 20.636-19.045 21.71-22.949 12.971 29.83 18.769 58.622 16.618 86.298l2.299 0.40494s7.6863-27.343 12.373-60.872c4.6869-33.529-1.2775-87.976-13.498-113.12-21.17-43.554-63.014-63.824-112.49-80.123z" color="#000000" stroke-width="4.1461" style="-inkscape-stroke:none"/>
    <path id="path20130" d="m489.68 274.06c-5.6918 10.678-8.602 21.601-9.7417 30.934-1.1397 9.3322-0.5459 17.027 0.94744 21.508l2.2269-0.7369c-1.2901-3.8712-1.9584-11.414-0.85027-20.487 0.15594-8.3026 6.0085-22.79 7.4176-31.217z" color="#000000" stroke-width="4.1461" style="-inkscape-stroke:none"/>
    <path id="path20132" d="m652.44 324.3c0.39056 10.493 1.9482 19.254 7.4824 33.906l2.1945-0.82598c-3.3704-6.4304-7.9312-25.551-9.6769-33.08z" color="#000000" stroke-width="4.1461" style="-inkscape-stroke:none"/>
    <path id="path20134" d="m423.72 311.28c-8.2294 19.393-10.289 29.136-11.726 44.36l2.3322 0.21862c0.13724-11.913 6.9377-30.07 9.3935-44.578z" color="#000000" stroke-width="4.1461" style="-inkscape-stroke:none"/>
    <path id="path20136" d="m577.05 362.55c0.70637 6.8287 1.7205 13.5 2.2674 16.835 1.2621 7.9573 1.7357 18.092-0.32381 28.901l2.2998 0.43728c2.1221-11.137 1.6362-21.531 0.33998-29.703-1.2961-8.1718-3.3516-14.05-4.5834-16.471z" color="#000000" stroke-width="4.1461" style="-inkscape-stroke:none"/>
    <path id="path31363" d="m376.54 314.4c-7.1516 7.1642-14.413 10.488-22.156 12.195l0.50206 2.2917c5.0261-2.1517 14.952-3.7611 21.654-14.487z" color="#000000" stroke-width="4.1461" style="-inkscape-stroke:none"/>
    <path id="path32924" transform="matrix(4.1461 0 0 4.1461 114.51 46.946)" d="m57.389 81.009c-0.7238 4.0878-0.89152 7.4255-0.04677 11.88 1.0371-1.6961 1.8445-1.9918 1.8445-1.9918 0.10468 2.8772 0.20271 6.3696 0.02675 9.3583-2.6078-0.26984-4.6684-6.2271-5.7292-9.8585 0.24471 4.4827 1.1229 14.69 0.73922 19.451l1.4691-1.85c3.6693 15.46 18.321 18.642 18.236 23.756l1.6716-2.1003 7.1962 1.8236c-7.186-3.7659-20.576-9.8149-21.933-23.934-4.0335 0.56966-4.2205-4.0128-3.0077-5.2966 1.0261-1.0861 3.044-0.12824 3.854-0.35954 0.17984-8.2097-3.266-16.933 1.2491-26.309-2.1155 4.2257-3.8599 8.7579-5.2099 13.303-1.0794-6.6452 1.3893-12.995 3.146-19.404 0 0-2.8142 7.629-3.5051 11.531z" filter="url(#filter36802)" opacity=".14103" style="mix-blend-mode:normal"/>
    <path id="path35624" transform="matrix(4.1461 0 0 4.1461 114.51 46.946)" d="m74.216 65.044s-3.5429 9.4687-4.9616 12.049c-5.0157 9.1235-3.2916 23.266-3.2742 23.184 0.72936-3.4379 1.4667-21.72 6.0523-25.797 0.42767-3.1439 0.84995-5.3216 2.1835-9.4365z" filter="url(#filter36806)" opacity=".14103" stroke="#000" stroke-width=".265" style="mix-blend-mode:normal"/>
    <path id="path36845" transform="matrix(4.1461 0 0 4.1461 114.51 46.946)" d="m61.365 66.37-3.4468 1.3557-3.2081 9.7358c0.82101-2.491 3.7741-9.6581 6.6549-11.091z" filter="url(#filter37234)" opacity=".14103" stroke="#000" stroke-width=".265" style="mix-blend-mode:normal"/>
    <path id="path37353" transform="matrix(4.1461 0 0 4.1461 114.51 46.946)" d="m90.114 55.76c-1.812 4.43-5.6179 7.1809-7.0493 16.385 0.70999-1.2896 4.2334-4.3804 5.4527-4.4024-0.87441-6.8738 0.30921-8.7117 1.5965-11.983z" filter="url(#filter53962)" opacity=".14103" stroke="#000" stroke-width=".26458px"/>
    <path id="path38394" transform="matrix(4.1461 0 0 4.1461 114.51 46.946)" d="m103.27 71.655 2.845 7.8233 2.487 9.2017s-0.73855-6.554-1.8662-9.8269c-0.84665-2.4574-3.4658-7.1982-3.4658-7.1982z" filter="url(#filter53970)" opacity=".14103" style="mix-blend-mode:normal"/>
    <path id="path38822" transform="matrix(4.1461 0 0 4.1461 114.51 46.946)" d="m119.39 61.51c2.6253 3.9857 2.411 6.0397 2.1113 6.8558 3.4835 2.8634 6.1149 10.416 4.8506 19.007 0 0 2.0141-10.03 0.34723-15.015-1.294-3.8699-7.3091-10.848-7.3091-10.848z" filter="url(#filter53978)" opacity=".14103" style="mix-blend-mode:normal"/>
    <path id="path40546" transform="matrix(4.1461 0 0 4.1461 114.51 46.946)" d="m129.74 66.895c2.2832 9.2266 6.5714 11.252 8.3273 22.487 0.52652-2.4931 1.3895-3.5654 1.1863-9.1395 0.10253 2.6387 0.37531 5.249-0.017 7.9702 0.83611-3.2098 2.1445-4.9353 2.4322-9.8689-0.0594 3.3723-0.0234 6.4811 0.86728 9.767-0.71342 3.0225-3.0647 4.8125-5.4198 6.2797-0.46127-10.724-6.1383-18.346-7.3762-27.496z" filter="url(#filter53982)" opacity=".14103" style="mix-blend-mode:normal"/>
    <path id="path41935" transform="matrix(4.1461 0 0 4.1461 114.51 46.946)" d="m110.22 66.814 1.3939 9.6366c1.0211 3.8489 1.5326 7.2767 0.69417 10.754l3.724 4.867-0.39384-3.2746s-1.1042-2.5247-1.3436-4.0924c-0.77536-5.0773-3.8846-17.016-4.0746-17.89z" filter="url(#filter53974)" opacity=".14103" style="mix-blend-mode:normal"/>
    <path id="path43984" transform="matrix(4.1461 0 0 4.1461 114.51 46.946)" d="m150.06 84.478c1.7972 6.2999 0.8214 16.59 0.88729 20.694 1.1334-1.8238 1.4232-3.8164 1.9844-5.7547 0.0177 2.9431 0.1857 4.1846 0.59531 5.424 3.0311-3.7961 1.0426-22.535 0.94488-28.99 2.5365 1.6202 3.4021 2.4859 4.4125 2.7761 0.27072 0.07774-1.3958-0.15136-3.6732-1.2759 1.4166 0.49386 3.1233 22.627-1.2097 35.268-0.48089 1.403 0.0809 3.273-0.44797 4.4245l-1.0362-2.3129c-4.4171 4.3866-7.225 9.3096-13.344 13.129l-1.3851 4.0469-1.5294-2.5437-8.9917 2.2009c8.5579-4.0454 17.426-7.6488 21.146-18.588 4.993-1.0499 5.2523-6.3571-0.66408-5.274 0.99011-7.414 2.4684-15.717 2.3106-23.224z" filter="url(#filter53986)" opacity=".14103" style="mix-blend-mode:normal"/>
    <path id="path47677" transform="matrix(4.1461 0 0 4.1461 114.51 46.946)" d="m107.67 45.631c-5.571 0.48767-6.8381 0.19627-13.318-1.1189 0.22605 1.2832 1.9272 3.4658 4.0281 3.5404 0.60071 0.17008 1.2994 0.06325 1.2994 0.06325-3.4556 1.1812-6.1393 3.3363-8.1832 5.9318 2.7821-3.0795 6.3675-4.7125 10.34-5.4602-0.44242 1.1189-1.3399 3.3635-1.5093 4.4824 0.4403-1.1286 1.4411-3.773 2.5782-4.634l5.149 0.70648c1.3407 0.64428 2.0188 2.4267 2.8154 3.8546 0.12461-0.95158-0.39685-3.1735-0.88785-4.3024 2.2532 0.49504 2.8653 1.6883 4.367 2.5288l-2.9612-2.7019c7.1462 0.75773 15.508 4.1791 21.785 6.3458-7.3484-3.9431-16.736-8.7851-21.359-9.0229z" filter="url(#filter53966)" opacity=".14103" style="mix-blend-mode:normal"/>
    <path id="path52306" transform="matrix(4.1461 0 0 4.1461 114.51 46.946)" d="m86.254 48.948c-5.3176 3.391-4.815 4.8805-6.6146 7.8714 0 0 1.9589-3.0175 3.1312-4.4436 1.0757-1.3087 3.4834-3.4277 3.4834-3.4277z" filter="url(#filter53958)" opacity=".14103" style="mix-blend-mode:normal"/>
    <path id="path52308" transform="matrix(4.1461 0 0 4.1461 114.51 46.946)" d="m122.54 46.152c-1.0862-0.16685-0.11109-0.95981 0.34275-0.83555 4.0291 1.1031 6.4562 2.6638 9.3397 4.0942-3.0066-1.263-5.8358-2.6678-9.6824-3.2587z" filter="url(#filter53990)" opacity=".14103" style="mix-blend-mode:normal"/>
   </g>
  </g>
 </g>

</g><g id="Pose">
 <g id="layer60" transform="translate(19.4 11.241)">
  <g id="layer134">
   <g id="g265105">
    <g id="g265103" transform="matrix(4.1461 0 0 4.1461 114.5 46.946)" fill-opacity=".99763">
     <path id="path265101" d="m93.014 270.84c-0.54243-0.12847-0.59439-0.18685-0.36789-0.41335 0.12673-0.12674 0.76593-0.23222 2.0332-0.33555 2.6743-0.21805 5.5425-0.63947 5.7475-0.84448 0.1473-0.14731 0.1291-2.4673-0.1156-14.735-0.24474-12.27-0.26577-14.951-0.13364-17.039 0.0862-1.3631 1.6025-24.471 3.3695-51.351s3.2127-49.077 3.2127-49.326c0-0.72652-0.37063-0.58428-1.1962 0.45908-0.49341 0.62361-1.373 2.1812-2.78 4.923-1.132 2.2059-2.2412 4.4162-2.4649 4.9117-0.22369 0.49551-0.77741 1.6828-1.2305 2.6384-0.45308 0.95564-0.82359 1.7818-0.82337 1.8359 2.6e-4 0.0541-0.41414 1.0097-0.92082 2.1236-1.3716 3.0153-2.8954 6.5962-3.5181 8.2675-0.30332 0.81406-0.90034 2.3489-1.3267 3.4107-0.42638 1.0618-1.0488 2.7414-1.3831 3.7324s-0.77 2.2444-0.96817 2.7851c-1.1018 3.0067-3.1481 10.673-3.6517 13.68-0.1177 0.70291-0.23613 1.3138-0.26317 1.3576-0.36925 0.59745-1.0219 8.4559-0.9302 11.2 0.0644 1.9269 0.48989 5.2043 0.73516 5.6626 0.0754 0.14092 0.32871 0.24687 0.68665 0.2872 0.34347 0.0387 0.79776 0.22259 1.1518 0.4662 1.3645 0.93881 1.3914 3.2037 0.0489 4.1208-1.1378 0.77718-1.8256 0.78616-2.9574 0.0386-0.60042-0.39657-0.86081-0.87404-0.94965-1.7414-0.10397-1.015 0.14287-1.7141 0.82694-2.3422 0.51825-0.47584 0.57489-0.58053 0.49154-0.90852-0.29442-1.1586-0.60633-3.7241-0.67099-5.5189-0.0552-1.5315-3e-3 -2.9333 0.20393-5.47 0.24067-2.9515 0.56135-5.5383 0.718-5.7917 0.0261-0.0422 0.14015-0.62416 0.25348-1.2932 0.88038-5.1974 3.5621-14.301 6.029-20.467 0.46929-1.173 1.0625-2.7337 1.3181-3.4683 0.25569-0.73457 0.60008-1.6024 0.76533-1.9285 0.16524-0.32609 0.67505-1.4875 1.1329-2.5809 0.45786-1.0934 1.1631-2.712 1.5672-3.5968 0.40408-0.88485 0.90234-2.0286 1.1072-2.5416 0.20491-0.513 0.63566-1.4566 0.95723-2.0969s0.70311-1.4658 0.84788-1.8344c0.25778-0.65647 3.8645-7.7478 5.1349-10.096 0.35365-0.65367 0.5877-1.1758 0.643-1.3836 0 0 0.15588-0.2483-0.27259-0.23395l4.528-0.59113 3.8132 0.0306c-0.76502 0.0966-1.4433 0.22809-1.5073 0.2921-0.0694 0.0694 0.13953 0.58361 0.51729 1.2733 5.4097 10.159 10.076 24.816 14.582 31.454s2.5116 5.4306 10.71-1.3291c0.11457-0.31845 0.16236-0.40196-0.17852-1.0174-0.44996-0.81239-0.46268-1.5537-0.0426-2.4836 0.35891-0.79458 1.0752-1.1546 1.4522-1.351 0.28403-0.0986 0.57048-0.12217 0.8852-0.1519 0.32614-0.0308 0.47946 0.0168 0.67484 0.049 0.28894 0.0659 0.4644 0.19998 0.7487 0.5201 0.14808 0.14139 0.31776 0.33664 0.48427 0.55598 0.98302 1.295 0.24022 3.4348-1.3514 3.8932-0.41299 0.11895-0.90213 0.14949-1.2402 0.0774-0.35228-0.0751-0.67462-0.0898-0.74226 0.055-8.1756 7.1847-7.0673 9.1994-11.917 1.5943s-9.7716-22.001-14.423-31.123c-0.47766-0.82604-0.75906-1.0666-0.87979-0.75193-0.0383 0.0998 1.8168 22.672 4.1223 50.161 2.3056 27.489 4.2281 50.993 4.2722 52.232 0.0442 1.2388-0.0476 8.4421-0.20384 16.007-0.24097 11.666-0.25726 13.782-0.10729 13.932 0.20719 0.20719 3.0601 0.62722 5.7495 0.84649 1.2956 0.10563 1.9053 0.20758 2.0386 0.34087 0.16775 0.16775 0.16579 0.20381-0.0166 0.3059-0.39281 0.21983-2.0158 0.2664-3.5839 0.10282-1.5433-0.16098-3.9884-0.80709-4.5043-1.1903-0.22548-0.16747-0.51904-2.4652-2.8574-22.365-0.76965-6.55-0.80826-6.95-0.9067-9.3955-0.0385-0.95563-0.12428-2.5773-0.19068-3.6037s-0.50038-7.9476-0.96439-15.38c-0.46401-7.4327-0.87393-13.651-0.91093-13.818-0.0575-0.25953-0.11765-0.28973-0.41528-0.20864-0.59549 0.16222-5.4911 0.22162-6.0288 0.0731-0.3713-0.10251-0.52774-0.0969-0.63704 0.0228-0.0982 0.10758-0.32037 4.7008-0.68939 14.252-0.80443 20.821-0.78052 20.421-1.6756 27.993-2.5342 21.44-2.7044 22.777-2.9203 22.937-0.11578 0.086-0.75511 0.33787-1.4207 0.55962-1.8384 0.61246-5.0555 0.93672-6.3207 0.63709zm-5.654-62.721c0.38879-0.21457 0.52158-0.39052 0.66877-0.88617 0.50456-1.6991-1.0089-2.9884-2.5146-2.1422-0.53979 0.30339-0.76296 0.7491-0.76296 1.5238 0 0.8699 0.21942 1.2451 0.93739 1.6029 0.70567 0.35166 0.87406 0.34175 1.6714-0.0983zm51.906-45.729c-0.58627 0.10785-0.94154 0.46622-1.185 1.1953-0.24533 0.73482-0.1748 1.2283 0.24113 1.687 0.48529 0.5352 1.02 0.71228 1.7354 0.57519 0.45718-0.0878 0.63749-0.21055 0.93628-0.63723 0.32191-0.4597 0.37293-0.6143 0.3925-1.1882 0.0199-0.59345-0.031-0.71293-0.50586-1.187-0.56396-0.56299-0.72676-0.60781-1.6144-0.44453z"/>
    </g>
   </g>
  </g>
 </g>

</g><g id="Bottoms">
 <g id="layer60" transform="translate(19.4 11.241)">
  <g id="layer17">
   <g id="layer252" transform="translate(-19.4 -11.241)">
    <g id="g59-4" transform="matrix(4.1461 0 0 4.1461 132.54 58.188)" stroke="#000">
     <path id="path31-83" d="m96.776 190.9 0.4588 63.546s0.0239 0.41441 0.08782 0.81037 0.4391 1.5138 0.4391 1.5138l-0.42472 11.832c2.0359 0.91495 3.6556 1.1704 5.8274 1.069l4.1439-0.63809 0.62356-32.73 1.5423-32.23 2.9174 31.37 4e-3 33.723c4.9711 1.5167 7.2136 0.52932 11.278-0.19289l-2.4672-78.245s-2.7333 0.16482-11.776 0.22232c-10.731 0.0682-11.63-0.0174-11.63-0.0174z" fill="#242424" stroke-width=".40429"/>
     <g id="g49-4" transform="translate(.2152 -.49518)" fill="none">
      <g id="g41-8" stroke-width=".26458px">
       <path id="path35-86" d="m103.91 192.75s0.22989 5.2894-7.3734 3.1969"/>
       <path id="path37-3" d="m113.62 192.56s-0.22989 5.2894 7.3734 3.1969"/>
       <path id="path39-468" d="m108.15 191.64c0.01 9.218 0.0323 11.013 1.1271 11.42l-0.24568-11.515"/>
      </g>
      <path id="path43-14" d="m109.31 200.51-0.16955 0.14616-0.0822 4.3513 0.42738-0.0197z" color="#000000" fill="#000" stroke="none" style="-inkscape-stroke:none"/>
      <path id="path45-9-5" d="m96.609 192.57 11.343 0.10336h0.12919" stroke-width=".26458px"/>
      <path id="path47-1-4" d="m109.11 192.6 11.834-0.41341" stroke-width=".26458px"/>
     </g>
    </g>
    <path id="path52-1-8" transform="matrix(4.1461 0 0 4.1461 133.91 58.187)" d="m108.61 203.54-3.3748 0.69482 2.7388 0.64597 0.14839 22.18 1.0167-22.992 2.6308 25.194-2.0001-24.667 3.1652-0.93017z" fill-opacity=".99763" filter="url(#filter48371-3-3-6)" opacity=".18567" stroke-width=".26458px" style="mix-blend-mode:normal"/>
    <path id="path44645-5-8" transform="matrix(4.1461 0 0 4.1461 133.91 58.187)" d="m99.592 203.77c0.98966 3.5696 7.0712 8.0225 7.0712 8.0225s-5.0268-4.0312-7.2115-3.0179c-2.4404 1.1319 0.15365 8.0689 0.15365 8.0689-3.9976 2.6263-1.664 8.0705-0.33349 9.5994-0.22468 1.173-0.65868 4.069 0.33351 4.4941 3.5449 1.4365 0.41666 3.602 0.45964 3.6204 0 0-0.93322 0.45981-1.1693 0.88868-0.26411 0.47978-0.14032 1.637-0.14032 1.637s0.19298 0.77268 0.5145 0.8419c0.39964 0.086 2.3182-7e-3 2.3182-7e-3s-1.2159 0.74406-1.8698 1.1812c-0.57558 0.38478-0.69709 0.0846-1.165 0.59483-0.48466 0.52851-0.28613 1.3664-0.0227 1.9668 0.22838 0.52049 1.268 1.14 1.268 1.14s-1.2644 0.0224-1.6838 0.42095c-0.69719 0.66242-1.0649 1.8241-0.8419 2.7596 0.23239 0.97478 0.37694 1.4924 0.37694 1.4924 1.3722 0.79004 3.3799 2.9007 3.235 3.6948-0.0848 0.46461-1.9482-0.59634-3.0234-0.48642-0.79028 0.0808 0.90913 1.5559 1.5848 2.363 1.6271 1.9434 3.7472 3.7642 3.7472 3.7642-0.0666 0.33316-4.4268-4.2291-5.0046-3.6482-0.92151 0.92644-0.21028 3.962-0.21164 3.9601-0.71626 0.6418-0.87184-1.4781 0.87878 1.2883 1.2258 1.2966 2.5309 3.9924 5.4094 4.1146-3.5001 0.0743-4.1481-0.11197-5.8267 0.76198-0.82946 1.2442-0.52513 3.2125 0.45167 4.3276 1.8036 2.059 8.0876 1.4226 8.0876 1.4226-3.3013 0.93328-6.6259 0.75235-9.9713-0.4309-0.16052-3.095 0.3794-7.3013 0.41265-11.791 0.0045-0.60491-0.43644-1.3302-0.45843-1.9409-0.09113-2.5303 0.0088-5.0482-0.14679-7.3781-0.08236-1.2335 0.06086-0.38863 0.05345-1.5713l-0.04534-7.2357s0.0478-2.7909-0.08904-7.2044c0 0-0.05755-13.4-0.1091-15.88l-0.17834-24.701 2.5617-0.0429s-0.56618 8.7583 0.58465 12.909z" filter="url(#filter25156-65)" opacity=".18567" stroke="#000" stroke-width=".26458px" style="mix-blend-mode:normal"/>
    <path id="path31-24-4" d="m533.78 849.68 1.9022 263.47s0.0991 1.7181 0.36403 3.3598 1.8205 6.2764 1.8205 6.2764l-1.7609 49.054c8.441 3.7934 15.156 4.8526 24.161 4.4321l17.181-2.6455 2.5853-135.7 6.3947-133.63 12.096 130.06 0.0166 139.82c20.611 6.2884 29.908 2.1946 46.76-0.7997l-10.229-324.41s-11.332 0.68336-48.824 0.92176c-44.492 0.28276-52.469-0.20938-52.469-0.20938z" fill="url(#linearGradient27389-3)" opacity=".16938" stroke-width="1.6762"/>
    <path id="path52902-3-8-6" transform="matrix(4.1461 0 0 4.1461 133.91 58.187)" d="m104.97 219.94-2.4143-4.2003c0.80112 3.5606 3.1872 6.7338 5.6555 9.8557z" filter="url(#filter25176-35)" opacity=".18567" stroke="#000" stroke-width=".26458px" style="mix-blend-mode:normal"/>
    <path id="path52914-9-20" transform="matrix(4.1461 0 0 4.1461 133.91 58.187)" d="m112.06 235.44c-0.73341 5.9492 0.59809 22.731 0.0799 27.48-0.0257 0.23592 4.5002-0.77898 3.3987-1.5586-0.60055-0.42506-3.0828 0.24588-2.6735-2.6007 0 0-0.16027-1.5559 3.0888 0.49654 0.36161 0.22843-1.1866-1.18-0.9727-1.7554 0.29619-0.79663 1.2627-1.4615 1.5899-2.6704 0.2072-0.76559-1.6989-2.0904-1.5095-5.2658 0.18604-3.1197 0.69051-7.5531 1.5377-9.3685 0.29873-0.64009 1.5089-0.28858 1.5602-0.36118 0.46045-0.65128-1.7641-1.3154-3.0428-4.6076-0.34787-0.89565-0.50323-3.7621-0.66289-4.7382-0.46863-2.8652-1.3137-5.5647-1.103-6.0696 1.0446-2.5027 1.2898-5.2917 1.2898-5.2917-0.2463 1.1166-1.4781 2.0018-2.1412 2.2916 0.20322-1.3458 2.1079-4.5877 1.7112-6.2934 0.1077-1.3177-0.15315-5.4431 0.8599-6.6476-1.4111 1.3578-3.6412 3.3989-4.0018 1.9183l-1.9081-7.8352c-0.6748 2.8702-0.78323 5.7679-0.93614 8.6951l-1.7859-1.1245c1.9791 1.8591 1.5906 3.8498 2.1497 5.7878-0.39026-9.5182 0.70976-9.3298 0.70976-9.3298s1.8015 18.53 2.3224 23.59" filter="url(#filter25136-9)" opacity=".18567" stroke="#000" stroke-width=".26458px" style="mix-blend-mode:normal"/>
    <path id="path53293-8-7" transform="matrix(4.1461 0 0 -4.1461 133.91 2263.2)" d="m122.78 264.78c-3.9361 2.9688-7.1734 2.3595-9.7896 1.9844 1.9252 0.85563 2.9141 2.6724 5.2586 1.5875 0.22371-0.10352 4.531-3.5719 4.531-3.5719z" filter="url(#filter25152-14)" opacity=".18567" stroke="#000" stroke-width=".26458px" style="mix-blend-mode:normal"/>
    <path id="path19432-6" transform="matrix(4.1461 0 0 4.1461 133.91 58.187)" d="m117.05 259.32 2.745-3.9688s-0.53703 1.425-0.95911 2.0505c-0.48867 0.72418-1.7859 1.9182-1.7859 1.9182z" filter="url(#filter25148-0)" opacity=".18567" style="mix-blend-mode:normal"/>
    <path id="path19434-2" transform="matrix(4.1461 0 0 4.1461 133.91 58.187)" d="m116.35 256.35s2.4009-3.415 4.2664-3.8364c0.30281-0.0684 0.89296 0.26458 0.89296 0.26458l-5.0602 3.605" filter="url(#filter25144-55)" opacity=".18567" style="mix-blend-mode:normal"/>
    <path id="path19436-3" transform="matrix(4.1461 0 0 4.1461 133.91 58.187)" d="m118.29 236.67c-0.45454 1e-3 -1.3744 0.16966-1.3744 0.16966 2.4351 1.4758 3.4836 2.9516 5.1447 4.4275 0 0-1.7885-4.6017-3.7703-4.5971z" filter="url(#filter25140-8)" opacity=".18567" style="mix-blend-mode:normal"/>
    <path id="path21541-6" d="m538.01 1120.4-0.56793 2.6928c2.7186 2.8564 12.987 17.957 15.177 16.124-4.8698-5.5964-9.7397-11.76-14.61-18.817z" color="#000000" stroke-width="4.1461" style="-inkscape-stroke:none"/>
    <path id="path24105-60" transform="matrix(4.1461 0 0 4.1461 133.91 58.187)" d="m106.27 234.94s-2.0789 0.48974-2.8999 1.1225c-0.44212 0.3408-0.98222 1.3564-0.98222 1.3564z" filter="url(#filter25168-2)" opacity=".18567" style="mix-blend-mode:normal"/>
    <path id="path24107-7" transform="matrix(4.1461 0 0 4.1461 133.91 58.187)" d="m104.49 238.44s-1.4902 0.10949-2.1983 0.3274c-0.92638 0.2851-2.6192 1.2628-2.6192 1.2628z" filter="url(#filter25164-0)" opacity=".18567" style="mix-blend-mode:normal"/>
    <path id="path24109-6" transform="matrix(4.1461 0 0 4.1461 133.91 58.187)" d="m107.06 255.66-3.695 3.695 3.8353-3.0402z" filter="url(#filter25160-90)" opacity=".18567" style="mix-blend-mode:normal"/>
   </g>
  </g>
 </g>

</g><g id="Tops">
 <g id="layer60" transform="translate(19.4 11.241)">
  <g id="layer16">
   <g id="layer221" transform="translate(-19.4 -11.241)">
    <g id="g52-9" transform="translate(19.4 11.241)" fill="none" stroke="#000"></g>
    <g id="g58-71" transform="matrix(4.1461 0 0 4.2539 331.96 65.967)" fill="#382e85" fill-opacity=".99763">
     <path id="path56-67" d="m54.415 144.68c0.12756-0.81753-7.2713 20.261-7.127 19.314 0.12173-0.79863-5.2827-0.69888-4.6992-3.0381 0.93854-3.7627 4.7033-17.479 9.4848-24.959 1.1581-1.8118 2.0608-3.048 4.0278-5.0596 1.1458-1.0073 1.7876-0.77852 1.7876-0.77852l5.5934-0.31303c1.2234-0.10501 4.122 1.3795 6.9069 5.1249 3.1035 4.1739 5.5151 15.37 8.8643 23.38-0.79617 1.5947-3.4474 2.8842-4.87 3.8178-0.56973-0.47523-5.6089-18.665-5.4997-18.062 3.7502 20.711 4.5965 39.448 4.4104 40.399-4.4478 0.83025-19.926 0.7795-24.655 0.52393-1.2323-0.36541 1.4179-15.746 5.7753-40.349z" fill="#1f1f1f" fill-opacity=".99763" stroke="#000" stroke-width=".71478"/>
    </g>
    <g id="g96-7" transform="matrix(4.1461 0 0 4.1461 133.91 58.188)" stroke="#000">
     <path id="path66-82" d="m109.96 136.53 0.5858 54.965c-0.47221 0.0516-3.7131 0.22829-2.4666 0.12602l-0.4121-55.315" fill="none" stroke-width=".565"/>
     <path id="path68-1-2" d="m103.69 135.2 4.4618 0.52634 1.6305-0.032c0.87499-0.40253 3.0161 0.10576 2.8104-0.77713-0.46578 0.46775-6.121 0.73723-8.903 0.28279z" stroke-width=".26458px"/>
     <g id="g76-7" fill="#1f1f1f" stroke-width=".565">
      <path id="path70-8-9" d="m114.38 140.49-5.5967-4.8394c0.999 0.0437 1.8872-0.26591 3.8094-0.73339l2.4351 1.5213s-1.0708 1.2734-0.64778 4.0514z"/>
      <path id="path72-3-0" d="m103.94 141.19 4.8515-5.5417c-1.75-0.0561-3.6585 0.0988-5.0932-0.44449l-1.3808 1.3229s2.0367 1.8852 1.6225 4.6633z"/>
     </g>
     <path id="path78-56" d="m90.779 163.64c2.0274 1.181 3.6291 2.9065 5.98 2.8744 0.73511-0.0283-1.0666 2.6147-1.5999 3.9221-1.9359-0.3855-3.8898-0.5911-5.6555-2.6789z" fill="#1f1f1f" stroke-width=".565"/>
     <g id="g94-4" fill="none" stroke-linejoin="round" stroke-width=".165">
      <circle id="circle80-3" cx="109.21" cy="186.43" r=".51449"/>
      <circle id="circle82-6" cx="109.17" cy="179.02" r=".51449"/>
      <circle id="circle84-8" cx="109.07" cy="171.42" r=".51449"/>
      <circle id="circle86-3" cx="109.11" cy="162.92" r=".51449"/>
      <circle id="circle88-6" cx="109.01" cy="155.08" r=".51449"/>
      <circle id="circle90-0" cx="108.94" cy="146.88" r=".51449"/>
      <circle id="circle92-0" cx="108.88" cy="138.64" r=".51449"/>
     </g>
    </g>
    <path id="path98-8-8" transform="scale(.26458)" d="m2270.5 2334.1-139.51 4.416-21.639 20.73 0.8965 1.5546 6.6445 12.44c-93.214 115.72-130.63 277.41-190.32 417.92l-17.881 57.527 17.287 15.32c1.274-23.62 10.536-43.299 23.545-63.053 3.9959-3.2376-16.99-13.941-16.99-13.941l13.272 3.2148c54.558-126.33 83.756-259.31 173.16-384.31 1.8661 6.9772 3.5052 14.233 4.3906 22.498 0.7663 7.1393 0.9693 15.031 0.2734 24.145l21.768-32.65c-0.07 6.4674-0.1568 12.935-0.2559 19.402l0.1387-0.2461c0.051-6.3821 0.096-12.773 0.1211-19.184 0-8.1749-1.1041-17.446-2.1465-26.66 38.964-4.9979 65.247-11.116 84.465-18.594l71.686 71.781-0.7539-24.998-59.742-51.66c19.515-9.5253 30.808-21.02 43.162-34.883z" filter="url(#filter5908-3)" opacity=".2468" stroke-width="15.67" style="mix-blend-mode:normal"/>
    <path id="path106-1" d="m661.45 736.74c-6.9356 8.084-15.623 11.978-24.017 18.047 3.5853 6.38 5.5197 11.589 8.4991 16.114 4.5864-2.048 22.17-7.8734 23.317-18.321z" fill="#1f1f1f" stroke="#000" stroke-width="2.5463"/>
    <path id="path108-7" transform="matrix(4.1461 0 0 4.1461 133.91 58.187)" d="m116.9 149.48 2.866 8.3338 3.0457 9.5196c0.67599 1.8023 0.58032 3.3069 1.7457 4.0948l-1.0618 0.47112-2.0499-3.8865 0.40579-0.78049z" filter="url(#filter8667-0)" opacity=".21938" style="mix-blend-mode:normal"/>
    <path id="path112-30" d="m557.61 685.19c5e-5 0-6e-5 -3e-3 0-4e-3 0 0 0.28448-6.9157-2.6851-3.9796-4.4504 4.3998-14.003 44.135-14.128 44.604 0 0 17.011-41.294 16.813-40.621z" opacity=".27642" stroke-width=".26458" style="mix-blend-mode:normal"/>
    <path id="path34120" d="m557.61 685.19c-3.4458 11.638-13.586 64.23-16.044 96.375-4.34 24.638-10.925 47.525-7.3087 70.854l24.918 0.44492 46.105-1.0036c-38.678-6.9363-62.219-17.196-60.818-56.255 3.3316-36.656 11.648-75.341 13.148-110.41z" filter="url(#filter540481)" opacity=".21938" stroke-width=".26458" style="mix-blend-mode:normal"/>
   </g>
  </g>
 </g>

</g><g id="Outerwear">
 <g id="layer60" transform="translate(19.4 11.241)">
  <g id="layer15">
   <g id="layer235" transform="translate(-19.4 -11.241)">
    <g id="g59659" transform="translate(-206.07 -1.3664)">
     <g id="g11060-7" transform="matrix(4.1461 0 0 4.1461 338.85 58)" fill="none" opacity=".45528" stroke="#000" stroke-width=".26458px">
      <path id="path11056-7" d="m96.609 192.57 11.343 0.10336h0.12919"/>
      <path id="path11058-1" d="m109.11 192.6 11.834-0.41341"/>
     </g>
     <path id="path11064-4" d="m731.08 858.75 9.9253-121.07c6.7017-64.227 1.7608-10.173-0.53617-2.8244-3.9137 12.522-27.309 166.61-27.309 166.61-15.794 14.134-32.946 2.2411-32.884 0.81043 1.2453-28.957 24.716-167.31 48.928-234.47 19.713-54.679 45.847-45.437 45.847-45.437l25.981 8e-3c29.618-6.5465 57.101 56.892 74.364 128.47 0 0 13.653-5.3679 30.257-9.5523 3.4696 3.4448 7.4373 8.0953 14.156 9.9154 1.9528 0.52898-62.462 77.567-70.503 33.484-7.0385-38.586-9.8574-46.812-9.8619-47.124-5.8999-57.403-2.1656-13.14-2.0901-4.734l12.284 130.37c-32.223 9.6583-101.87 12.931-118.56-4.4475z" fill="#272222" stroke="#000" stroke-linejoin="round" stroke-width="3.0018"/>
     <path id="path11068-2" d="m785.52 627.65s7.6246 5.9728 11.829 8.3386c15.417 8.6753 43.65 18.129 48.65 21.206 6.7328 4.1444 11.104-12.581 12.047-20.431 0.69285-5.766-1.5312-12.051-5.042-16.677-2.6479-3.4893-11.091-7.0475-11.091-7.0475-40.888 9.3187-80.243 9.2491-118.29 3.1027 0 0-16.628 13.018-15.282 21.786 1.434 9.3415 14.708 19.475 22.495 17.259 14.41-4.1004 27.905-12.195 41.305-19.392 4.6001-2.4705 13.381-8.1446 13.381-8.1446z" fill="#272222" stroke="#000" stroke-width="2.3425"/>
     <path id="path11072-5" transform="matrix(4.1461 0 0 4.1461 337.95 60.051)" d="m121.55 133.38s-5.6868 2.9935-10.749 5.5352c12.838 5.2685 16.656 7.4143-1.1773 0.87224-1.9044 0.79811-2.7016 1.303-4.1596 1.8098-3.346 1.163-10.422 2.0774-10.422 2.0774-2.2317-0.0294-4.7855-0.95292-5.5932-4.2604-0.98349-1.0588 0.31293-2.8553 3.5696-5.2859 1.3959 0.27987 7.6057 0.80592 11.423 0.98841 2.3881 0.11415 7.1721 0.0661 7.1721 0.0661 3.4572-0.34814 13.078-2.8305 9.9356-1.8029z" fill-opacity=".99763" filter="url(#filter83355-5-9-7)" opacity=".3792"/>
     <g id="g11106-6" transform="matrix(4.1461 0 0 4.1461 337.95 60.053)" stroke="#000">
      <g id="g11080-5" fill-opacity=".72065">
       <path id="path11074-1" d="m107.95 136.9-4.928-1.9316c4.5239 0.18121 8.142 0.10463 10.848-0.23151l-5.9199 2.1631" stroke-width=".26458px"/>
       <ellipse id="ellipse11076-0" cx="104.07" cy="138.72" rx=".48783" ry=".42168" fill-rule="evenodd" stroke-linecap="round" stroke-linejoin="round" stroke-width=".165"/>
       <ellipse id="ellipse11078-2" cx="111.44" cy="138.63" rx=".48783" ry=".42168" fill-rule="evenodd" stroke-linecap="round" stroke-linejoin="round" stroke-width=".165"/>
      </g>
      <g id="g11104-4" stroke-width=".26458px">
       <path id="path11082-7-4" d="m104.16 138.77-0.18709 12.114" fill="none"/>
       <path id="path11084-6" d="m111.43 138.61 0.0468 11.553" fill="none"/>
       <path id="path11086-4" d="m96.11 134.56-0.37522 0.0887c-1.3785 1.0146-4.1573 4.6053 12.215 2.2563l-4.0793-1.6444z" fill-opacity=".53441"/>
       <path id="path11088-9-7" d="m119.93 133.79c1.3785 1.0146 4.3911 5.4589-11.982 3.1099l5.6696-2.1004c2.1449 0.0534 2.882-0.63467 6.3121-1.0094z" fill-opacity=".53441"/>
       <g id="g11098-3" fill-opacity=".99763">
        <path id="path11090-3" d="m97.941 155.84c5.6508 14.032-13.638 40.452 25.473 37.865-13.242 2.5658-23.569 2.8345-28.596-1.0727z" filter="url(#filter5543-6-5-2)" opacity=".16"/>
        <path id="path11092-0" d="m120.3 156.5s3.3796 9.5251 4.0224 14.499c1.6393 6.5507 10.385 2.178 10.385 2.178-3.1695 1.8012-5.7602 7.7785-11.054 3.2183 0 0-2.5705-12.326-3.3528-19.896z" filter="url(#filter6257-4-1-2)" opacity=".16"/>
        <path id="path11094-9-6" transform="matrix(-1,0,0,1,185.48,1.4479)" d="m87.536 154.4s3.3796 9.5251 4.0224 14.499c1.8323 14.18 5.3361 33.568 5.3361 33.568l-1.9134-0.97339c-3.1498-15.591-5.4225-31.503-7.4451-47.094z" filter="url(#filter6257-8-7-3-3)" opacity=".16"/>
        <path id="path11096-6" transform="matrix(-1,0,0,1.1552,179.47,-30.16)" d="m82.578 149.62c0.965-0.4498 5.0211 8.8061 5.8876 13.938 4.4285 14.18 8.7258 38.907 8.4287 38.907l-2.8812 0.0534c0.77903-13.566-4.4547-34.878-11.435-52.898z" filter="url(#filter6257-8-1-6-4-4)" opacity=".16" stroke-linejoin="round" stroke-width=".26423"/>
       </g>
       <path id="path11100-7" d="m82.848 199.4c2.712 1.4525 5.424 1.3129 8.1359 0.0331" fill="none"/>
       <path id="path11102-1" d="m134.16 165.53s1.7509 4.5729 3.9589 4.4226" fill="none"/>
      </g>
     </g>
     <path id="path27407-1" d="m875.87 750.05c-0.27369 0.0548-0.50326 0.133-0.95312 0.27344-0.44987 0.14044-1.0376 0.3291-1.7188 0.55078-5.0844 1.207-9.1669 4.1561-10.869 5.7324 0 0 3.2983-1.115 6.7031-2.25 1.7024-0.56747 3.4313-1.1395 4.7852-1.5801 0.67691-0.22029 1.2612-0.40683 1.6973-0.54296 0.4361-0.13614 0.80745-0.23454 0.74805-0.22266z" color="#000000" style="-inkscape-stroke:none"/>
    </g>
   </g>
  </g>
 </g>

</g><g id="Expression">
 <g id="layer60" transform="translate(19.4 11.241)">
  <g id="layer32">
   <g id="layer39">
    <path id="path30" d="m557.81 566.16c9.662 12.238 31.552 13.289 40.999 0.0697" fill="none" stroke="#000" stroke-linecap="round" stroke-width="3.1718"/>
   </g>
  </g>
 </g>

</g></svg>